<svg width="341" height="183" viewBox="0 0 341 183" fill="none" xmlns="http://www.w3.org/2000/svg">
<path d="M18.7412 67.9882L20.9823 66.2833" stroke="#F84E4E" stroke-width="0.344378" stroke-miterlimit="10"/>
<path d="M22.1016 65.3058L100.836 9.39258" stroke="#F84E4E" stroke-width="0.344378" stroke-miterlimit="10"/>
<path d="M101.89 8.68238L104.209 7.08273" stroke="#F84E4E" stroke-width="0.344378" stroke-miterlimit="10"/>
<path d="M20.9433 68.7047L14.1071 71.5119L18.6102 65.6937L20.9433 68.7047Z" fill="#F84E4E"/>
<path d="M104.042 9.44073L108.814 3.83665L101.854 6.32506L104.042 9.44073Z" fill="#F84E4E"/>
<path d="M313.465 47.1463L310.728 46.4512" stroke="#F84E4E" stroke-width="0.344378" stroke-miterlimit="10"/>
<path d="M307.68 45.9188L124.264 4.24805" stroke="#F84E4E" stroke-width="0.344378" stroke-miterlimit="10"/>
<path d="M123.172 4.00452L120.447 3.26758" stroke="#F84E4E" stroke-width="0.344378" stroke-miterlimit="10"/>
<path d="M312.674 44.9861L319.122 48.5826L311.723 48.6627L312.674 44.9861Z" fill="#F84E4E"/>
<path d="M122.21 1.77711L114.811 1.74361L121.202 5.43866L122.21 1.77711Z" fill="#F84E4E"/>
<path d="M326.927 64.6055V67.4051" stroke="#F84E4E" stroke-width="0.344378" stroke-miterlimit="10"/>
<path d="M327.014 69.1367L327.014 111.998" stroke="#F84E4E" stroke-width="0.344378" stroke-miterlimit="10"/>
<path d="M326.927 114.775V117.575" stroke="#F84E4E" stroke-width="0.344378" stroke-miterlimit="10"/>
<path d="M325.011 65.8986L326.926 58.8164L328.841 65.8986H325.011Z" fill="#F84E4E"/>
<path d="M325.011 116.281L326.926 123.363L328.841 116.281H325.011Z" fill="#F84E4E"/>
<path d="M331.742 70.3649H338.288V72.6532C338.288 73.1092 338.209 73.4853 338.051 73.7814C337.896 74.0776 337.686 74.2981 337.422 74.443C337.159 74.5879 336.869 74.6603 336.549 74.6603C336.268 74.6603 336.036 74.6103 335.852 74.5101C335.669 74.4121 335.524 74.2821 335.418 74.1202C335.311 73.9604 335.232 73.7868 335.181 73.5993H335.117C335.104 73.7995 335.034 74.0009 334.906 74.2033C334.778 74.4057 334.595 74.5751 334.357 74.7115C334.118 74.8478 333.826 74.916 333.481 74.916C333.153 74.916 332.858 74.8414 332.596 74.6923C332.333 74.5431 332.126 74.3077 331.972 73.986C331.819 73.6642 331.742 73.2456 331.742 72.7299V70.3649ZM332.445 71.1575V72.7299C332.445 73.2477 332.545 73.6152 332.746 73.8326C332.948 74.052 333.193 74.1618 333.481 74.1618C333.702 74.1618 333.907 74.1053 334.094 73.9924C334.284 73.8794 334.435 73.7186 334.548 73.5098C334.663 73.301 334.721 73.0538 334.721 72.7683V71.1575H332.445ZM335.411 71.1575V72.6277C335.411 72.8663 335.458 73.0815 335.552 73.2733C335.646 73.4672 335.778 73.6206 335.948 73.7335C336.119 73.8485 336.319 73.9061 336.549 73.9061C336.837 73.9061 337.081 73.8059 337.281 73.6056C337.483 73.4054 337.585 73.0879 337.585 72.6532V71.1575H335.411ZM335.539 77.5265V79.3929C335.539 79.8617 335.462 80.2569 335.309 80.5787C335.156 80.9025 334.939 81.1476 334.66 81.3138C334.381 81.4821 334.052 81.5662 333.673 81.5662C333.293 81.5662 332.959 81.4821 332.669 81.3138C332.379 81.1476 332.152 80.9025 331.988 80.5787C331.824 80.2569 331.742 79.8617 331.742 79.3929V76.9384H338.288V77.731H332.433V79.3929C332.433 79.6912 332.492 79.9437 332.612 80.1504C332.733 80.3592 332.888 80.5169 333.078 80.6234C333.27 80.7321 333.472 80.7864 333.685 80.7864C333.999 80.7864 334.268 80.666 334.494 80.4253C334.722 80.1845 334.836 79.8404 334.836 79.3929V77.5265H335.539ZM338.288 82.9981H331.742V82.2054H338.288V82.9981ZM336.242 90.5719V89.7793C336.47 89.7324 336.67 89.6504 336.843 89.5332C337.016 89.4182 337.161 89.2775 337.278 89.1113C337.397 88.9473 337.487 88.7651 337.546 88.5648C337.606 88.3645 337.636 88.1557 337.636 87.9384C337.636 87.5421 337.536 87.1831 337.335 86.8613C337.135 86.5417 336.84 86.2871 336.45 86.0975C336.06 85.91 335.582 85.8162 335.015 85.8162C334.448 85.8162 333.97 85.91 333.58 86.0975C333.19 86.2871 332.895 86.5417 332.695 86.8613C332.494 87.1831 332.394 87.5421 332.394 87.9384C332.394 88.1557 332.424 88.3645 332.484 88.5648C332.543 88.7651 332.632 88.9473 332.749 89.1113C332.868 89.2775 333.014 89.4182 333.187 89.5332C333.362 89.6504 333.562 89.7324 333.788 89.7793V90.5719C333.453 90.5123 333.154 90.4036 332.89 90.2459C332.625 90.0883 332.401 89.8922 332.215 89.6579C332.032 89.4235 331.892 89.1603 331.797 88.8684C331.701 88.5787 331.653 88.2687 331.653 87.9384C331.653 87.3802 331.789 86.8837 332.062 86.4491C332.335 86.0144 332.722 85.6724 333.225 85.4231C333.728 85.1738 334.325 85.0492 335.015 85.0492C335.705 85.0492 336.302 85.1738 336.805 85.4231C337.308 85.6724 337.695 86.0144 337.968 86.4491C338.241 86.8837 338.377 87.3802 338.377 87.9384C338.377 88.2687 338.329 88.5787 338.233 88.8684C338.137 89.1603 337.997 89.4235 337.811 89.6579C337.628 89.8922 337.404 90.0883 337.14 90.2459C336.878 90.4036 336.579 90.5123 336.242 90.5719ZM335.015 98.0955C334.325 98.0955 333.728 97.9708 333.225 97.7215C332.722 97.4722 332.335 97.1303 332.062 96.6956C331.789 96.2609 331.653 95.7645 331.653 95.2063C331.653 94.648 331.789 94.1516 332.062 93.7169C332.335 93.2822 332.722 92.9403 333.225 92.691C333.728 92.4417 334.325 92.317 335.015 92.317C335.705 92.317 336.302 92.4417 336.805 92.691C337.308 92.9403 337.695 93.2822 337.968 93.7169C338.241 94.1516 338.377 94.648 338.377 95.2063C338.377 95.7645 338.241 96.2609 337.968 96.6956C337.695 97.1303 337.308 97.4722 336.805 97.7215C336.302 97.9708 335.705 98.0955 335.015 98.0955ZM335.015 97.3284C335.582 97.3284 336.06 97.2336 336.45 97.044C336.84 96.8565 337.135 96.6019 337.335 96.2801C337.536 95.9605 337.636 95.6026 337.636 95.2063C337.636 94.8099 337.536 94.4509 337.335 94.1292C337.135 93.8096 336.84 93.555 336.45 93.3653C336.06 93.1778 335.582 93.0841 335.015 93.0841C334.448 93.0841 333.97 93.1778 333.58 93.3653C333.19 93.555 332.895 93.8096 332.695 94.1292C332.494 94.4509 332.394 94.8099 332.394 95.2063C332.394 95.6026 332.494 95.9605 332.695 96.2801C332.895 96.6019 333.19 96.8565 333.58 97.044C333.97 97.2336 334.448 97.3284 335.015 97.3284ZM337.585 99.5178H338.288V104.427H337.585V102.369H331.742V101.576H337.585V99.5178ZM331.742 105.874V105.043L338.288 107.446V108.265L331.742 110.668V109.837L337.252 107.881V107.83L331.742 105.874ZM334.299 106.181V109.53H333.596V106.181H334.299Z" fill="#F84E4E"/>
<path d="M37.6612 40.8161L38.3062 40.3555L41.7256 45.0611L43.5983 43.7239L40.179 39.0183L40.824 38.5577L44.2434 43.2634L46.1161 41.9262L42.6968 37.2205L43.3418 36.76L47.1895 42.0551L41.5089 46.1112L37.6612 40.8161ZM45.2211 35.4181L45.8558 34.9649L48.8843 39.1327L48.9364 39.0956L48.821 32.8477L49.4452 32.402L53.2929 37.6971L52.6478 38.1577L49.6268 34.0002L49.5748 34.0373L49.6931 40.2675L49.0688 40.7132L45.2211 35.4181ZM55.1696 36.357L51.3219 31.0619L53.1218 29.7767C53.5397 29.4784 53.9358 29.3094 54.3101 29.2699C54.6848 29.2275 55.0284 29.2872 55.3409 29.4489C55.6533 29.6107 55.9229 29.8475 56.1496 30.1595C56.3763 30.4715 56.5182 30.8009 56.5752 31.1476C56.634 31.4931 56.5859 31.8364 56.4308 32.1775C56.2744 32.5169 55.9891 32.8346 55.5746 33.1305L54.2845 34.0516L53.8712 33.4828L55.1405 32.5765C55.4266 32.3722 55.6207 32.159 55.7227 31.937C55.8247 31.7149 55.854 31.4924 55.8105 31.2695C55.7675 31.0436 55.669 30.8247 55.5149 30.6127C55.3609 30.4007 55.1832 30.2396 54.982 30.1293C54.7824 30.0178 54.5607 29.9772 54.3166 30.0075C54.0714 30.036 53.8039 30.1536 53.5144 30.3604L52.3803 31.1702L55.8147 35.8965L55.1696 36.357ZM56.5572 27.3238L57.1919 26.8706L60.2204 31.0385L60.2724 31.0013L60.157 24.7534L60.7813 24.3077L64.629 29.6028L63.9839 30.0634L60.9629 25.9059L60.9109 25.943L61.0292 32.1732L60.4049 32.6189L56.5572 27.3238ZM66.5057 28.2628L62.658 22.9676L63.3031 22.5071L65.0165 24.865L67.8568 22.837L66.1434 20.479L66.7884 20.0184L70.6361 25.3135L69.9911 25.7741L68.2701 23.4058L65.4298 25.4338L67.1508 27.8022L66.5057 28.2628ZM72.732 23.817L72.0557 24.2999L70.164 17.6082L70.8299 17.1327L76.6335 21.0312L75.9573 21.5141L71.1265 18.1933L71.0848 18.223L72.732 23.817ZM71.4787 21.5703L74.2046 19.624L74.6179 20.1928L71.892 22.1391L71.4787 21.5703Z" fill="#F84E4E"/>
<path d="M206.354 19.3352L206.9 17.113L207.31 17.2121C207.483 17.1178 207.66 16.9688 207.842 16.765C208.026 16.5596 208.21 16.2709 208.393 15.8988C208.58 15.5251 208.762 15.0376 208.941 14.4363L209.736 11.7878L213.514 12.7004L212.119 18.3738L212.853 18.5509L212.309 20.7607L211.576 20.5836L211.952 19.0566L207.466 17.9729L207.087 19.5123L206.354 19.3352ZM208.23 17.4342L211.386 18.1967L212.613 13.2061L210.265 12.6387L209.674 14.6134C209.535 15.0709 209.388 15.4804 209.234 15.842C209.079 16.2015 208.918 16.5143 208.749 16.7804C208.581 17.0445 208.408 17.2625 208.23 17.4342ZM214.002 19.552L214.176 18.8443L214.362 18.8894C214.628 18.9534 214.855 18.9183 215.043 18.7842C215.232 18.6501 215.405 18.4014 215.562 18.0383C215.722 17.6757 215.89 17.1847 216.066 16.5653L216.932 13.5259L220.809 14.4626L219.246 20.8188L218.476 20.6327L219.87 14.9592L217.497 14.3859L216.775 16.8944C216.586 17.5546 216.386 18.1068 216.174 18.5509C215.961 18.995 215.703 19.3106 215.398 19.4978C215.093 19.685 214.706 19.7221 214.238 19.609L214.002 19.552ZM223.048 15.0035L223.806 15.1866L222.576 20.1896L222.638 20.2047L227.348 16.0422L228.093 16.2223L226.531 22.5785L225.76 22.3924L226.987 17.4017L226.925 17.3867L222.231 21.5398L221.485 21.3597L223.048 15.0035ZM228.772 23.12L230.335 16.7638L231.105 16.9499L230.409 19.7804L233.802 20.5999L234.498 17.7694L235.268 17.9555L233.706 24.3118L232.935 24.1256L233.634 21.2827L230.241 20.4632L229.543 23.3061L228.772 23.12ZM236.209 24.9165L235.401 24.7214L239.3 18.9295L240.095 19.1216L240.869 26.0422L240.061 25.8471L239.475 20.0372L239.425 20.0251L236.209 24.9165ZM237.117 22.5056L240.373 23.2922L240.205 23.9749L236.95 23.1884L237.117 22.5056Z" fill="#F84E4E"/>
<path d="M13.8672 144.375V141.6" stroke="#F84E4E" stroke-width="0.275381" stroke-miterlimit="10"/>
<path d="M13.8115 140.589L13.8115 122.404" stroke="#F84E4E" stroke-width="0.275381" stroke-miterlimit="10"/>
<path d="M13.8672 121.666V118.891" stroke="#F84E4E" stroke-width="0.275381" stroke-miterlimit="10"/>
<path d="M15.765 143.092L13.8669 150.114L11.9697 143.092H15.765Z" fill="#F84E4E"/>
<path d="M15.765 120.175L13.8669 113.154L11.9697 120.175H15.765Z" fill="#F84E4E"/>
<path d="M13.8672 100.325V97.5488" stroke="#F84E4E" stroke-width="0.550762" stroke-miterlimit="10"/>
<path d="M13.8672 95.4845V88.2656" stroke="#F84E4E" stroke-width="0.275381" stroke-miterlimit="10"/>
<path d="M13.8672 87.2347V84.459" stroke="#F84E4E" stroke-width="0.275381" stroke-miterlimit="10"/>
<path d="M15.765 99.0391L13.8669 106.06L11.9697 99.0391H15.765Z" fill="#F84E4E"/>
<path d="M15.765 85.7425L13.8669 78.7207L11.9697 85.7425H15.765Z" fill="#F84E4E"/>
<path d="M6.15598 171.653C6.84632 171.653 7.44292 171.778 7.94576 172.027C8.4486 172.277 8.83638 172.619 9.10911 173.053C9.38184 173.488 9.5182 173.984 9.5182 174.543C9.5182 175.101 9.38184 175.597 9.10911 176.032C8.83638 176.467 8.4486 176.809 7.94576 177.058C7.44292 177.307 6.84632 177.432 6.15598 177.432C5.46564 177.432 4.86905 177.307 4.36621 177.058C3.86337 176.809 3.47559 176.467 3.20286 176.032C2.93013 175.597 2.79377 175.101 2.79377 174.543C2.79377 173.984 2.93013 173.488 3.20286 173.053C3.47559 172.619 3.86337 172.277 4.36621 172.027C4.86905 171.778 5.46564 171.653 6.15598 171.653ZM6.15598 172.42C5.58922 172.42 5.11088 172.515 4.72097 172.705C4.33105 172.892 4.03596 173.147 3.83567 173.469C3.63539 173.788 3.53524 174.146 3.53524 174.543C3.53524 174.939 3.63539 175.298 3.83567 175.62C4.03596 175.939 4.33105 176.194 4.72097 176.384C5.11088 176.571 5.58922 176.665 6.15598 176.665C6.72274 176.665 7.20108 176.571 7.591 176.384C7.98091 176.194 8.27601 175.939 8.4763 175.62C8.67658 175.298 8.77672 174.939 8.77672 174.543C8.77672 174.146 8.67658 173.788 8.4763 173.469C8.27601 173.147 7.98091 172.892 7.591 172.705C7.20108 172.515 6.72274 172.42 6.15598 172.42ZM4.92871 164.334V165.126C4.70073 165.173 4.50044 165.255 4.32786 165.372C4.15527 165.487 4.01039 165.628 3.8932 165.794C3.77388 165.958 3.68439 166.14 3.62473 166.341C3.56507 166.541 3.53524 166.75 3.53524 166.967C3.53524 167.363 3.63539 167.722 3.83567 168.044C4.03596 168.364 4.33105 168.618 4.72097 168.808C5.11088 168.996 5.58922 169.089 6.15598 169.089C6.72274 169.089 7.20108 168.996 7.591 168.808C7.98091 168.618 8.27601 168.364 8.4763 168.044C8.67658 167.722 8.77672 167.363 8.77672 166.967C8.77672 166.75 8.74689 166.541 8.68723 166.341C8.62757 166.14 8.53915 165.958 8.42196 165.794C8.30265 165.628 8.15669 165.487 7.98411 165.372C7.80939 165.255 7.60911 165.173 7.38326 165.126V164.334C7.71777 164.393 8.01713 164.502 8.28134 164.66C8.54554 164.817 8.77033 165.013 8.9557 165.248C9.13894 165.482 9.2785 165.745 9.37438 166.037C9.47026 166.327 9.5182 166.637 9.5182 166.967C9.5182 167.525 9.38184 168.022 9.10911 168.456C8.83638 168.891 8.4486 169.233 7.94576 169.482C7.44292 169.732 6.84632 169.856 6.15598 169.856C5.46564 169.856 4.86905 169.732 4.36621 169.482C3.86337 169.233 3.47559 168.891 3.20286 168.456C2.93013 168.022 2.79377 167.525 2.79377 166.967C2.79377 166.637 2.84171 166.327 2.93759 166.037C3.03347 165.745 3.17409 165.482 3.35946 165.248C3.5427 165.013 3.76642 164.817 4.03063 164.66C4.2927 164.502 4.59206 164.393 4.92871 164.334ZM9.42871 162.333H2.88326V161.54H5.79803V158.05H2.88326V157.258H9.42871V158.05H6.50115V161.54H9.42871V162.333ZM6.15598 149.428C6.84632 149.428 7.44292 149.553 7.94576 149.802C8.4486 150.051 8.83638 150.393 9.10911 150.828C9.38184 151.262 9.5182 151.759 9.5182 152.317C9.5182 152.875 9.38184 153.372 9.10911 153.807C8.83638 154.241 8.4486 154.583 7.94576 154.832C7.44292 155.082 6.84632 155.206 6.15598 155.206C5.46564 155.206 4.86905 155.082 4.36621 154.832C3.86337 154.583 3.47559 154.241 3.20286 153.807C2.93013 153.372 2.79377 152.875 2.79377 152.317C2.79377 151.759 2.93013 151.262 3.20286 150.828C3.47559 150.393 3.86337 150.051 4.36621 149.802C4.86905 149.553 5.46564 149.428 6.15598 149.428ZM6.15598 150.195C5.58922 150.195 5.11088 150.29 4.72097 150.479C4.33105 150.667 4.03596 150.922 3.83567 151.243C3.63539 151.563 3.53524 151.921 3.53524 152.317C3.53524 152.713 3.63539 153.073 3.83567 153.394C4.03596 153.714 4.33105 153.968 4.72097 154.158C5.11088 154.346 5.58922 154.439 6.15598 154.439C6.72274 154.439 7.20108 154.346 7.591 154.158C7.98091 153.968 8.27601 153.714 8.4763 153.394C8.67658 153.073 8.77672 152.713 8.77672 152.317C8.77672 151.921 8.67658 151.563 8.4763 151.243C8.27601 150.922 7.98091 150.667 7.591 150.479C7.20108 150.29 6.72274 150.195 6.15598 150.195ZM9.42871 147.375H2.88326L2.88326 145.087C2.88326 144.631 2.96209 144.255 3.11976 143.959C3.2753 143.663 3.48517 143.442 3.74938 143.297C4.01145 143.152 4.30229 143.08 4.62189 143.08C4.90314 143.08 5.13539 143.13 5.31863 143.23C5.50186 143.328 5.64675 143.458 5.75328 143.62C5.85982 143.78 5.93865 143.953 5.98979 144.141H6.05371C6.06649 143.941 6.13681 143.739 6.26465 143.537C6.39249 143.334 6.57573 143.165 6.81436 143.029C7.053 142.892 7.3449 142.824 7.69007 142.824C8.0182 142.824 8.3133 142.899 8.57537 143.048C8.83745 143.197 9.04519 143.432 9.1986 143.754C9.35201 144.076 9.42871 144.495 9.42871 145.01V147.375ZM8.72559 146.583V145.01C8.72559 144.492 8.62544 144.125 8.42516 143.908C8.22274 143.688 7.97772 143.578 7.69007 143.578C7.46848 143.578 7.26394 143.635 7.07644 143.748C6.88681 143.861 6.73553 144.022 6.6226 144.23C6.50755 144.439 6.45002 144.686 6.45002 144.972V146.583H8.72559ZM5.75968 146.583V145.112C5.75968 144.874 5.7128 144.659 5.61905 144.467C5.5253 144.273 5.3932 144.12 5.22274 144.007C5.05229 143.892 4.85201 143.834 4.62189 143.834C4.33425 143.834 4.09029 143.934 3.89 144.134C3.68759 144.335 3.58638 144.652 3.58638 145.087L3.58638 146.583H5.75968ZM9.42871 140.533V141.364L2.88326 138.961L2.88326 138.143L9.42871 135.739V136.57L3.91877 138.526V138.577L9.42871 140.533ZM6.87189 140.226V136.877H7.57502V140.226H6.87189ZM9.42871 134H2.88326V133.207H5.79803V129.717H2.88326V128.924H9.42871V129.717H6.50115V133.207H9.42871V134ZM2.88326 126.618V125.838H8.03525V125.774L2.88326 122.194V121.427H9.42871V122.22H4.28951V122.284L9.42871 125.851V126.618H2.88326ZM9.42871 119.121H2.88326L2.88326 115.171H3.58638L3.58638 118.329H5.79803V115.375H6.50115V118.329H8.72559V115.12H9.42871V119.121Z" fill="#F84E4E"/>
<path d="M9.42871 101.299L6.42445 103.549V104.354H9.42871V105.147H2.88326V104.354H5.72132V104.009L2.88326 101.388V100.442L5.75968 103.089L9.42871 100.353V101.299ZM9.42871 98.6085H2.88326V96.3968C2.88326 95.8833 2.97594 95.4636 3.16131 95.1376C3.34455 94.8095 3.59277 94.5666 3.90598 94.4089C4.21919 94.2512 4.56863 94.1724 4.95428 94.1724C5.33993 94.1724 5.69043 94.2512 6.00577 94.4089C6.32111 94.5644 6.57253 94.8052 6.76003 95.1312C6.9454 95.4572 7.03809 95.8748 7.03809 96.384V97.9693H6.33496V96.4096C6.33496 96.0581 6.27424 95.7757 6.15279 95.5627C6.03134 95.3496 5.86728 95.1951 5.6606 95.0992C5.45179 95.0012 5.21635 94.9522 4.95428 94.9522C4.69221 94.9522 4.45783 95.0012 4.25115 95.0992C4.04448 95.1951 3.88255 95.3507 3.76536 95.5659C3.64604 95.7811 3.58638 96.0666 3.58638 96.4224V97.8159H9.42871V98.6085ZM5.63184 91.5875V89.721C5.63184 89.2523 5.70854 88.8571 5.86195 88.5353C6.01536 88.2115 6.23162 87.9664 6.51074 87.8002C6.78986 87.6319 7.11905 87.5477 7.49831 87.5477C7.87757 87.5477 8.21209 87.6319 8.50186 87.8002C8.79164 87.9664 9.01855 88.2115 9.18262 88.5353C9.34668 88.8571 9.42871 89.2523 9.42871 89.721L9.42871 92.1756H2.88326V91.383H8.73837V89.721C8.73837 89.4227 8.67871 89.1703 8.55939 88.9636C8.43794 88.7548 8.2824 88.5971 8.09277 88.4906C7.90101 88.3819 7.6986 88.3276 7.48553 88.3276C7.17232 88.3276 6.90279 88.448 6.67694 88.6887C6.44895 88.9295 6.33496 89.2736 6.33496 89.721V91.5875H5.63184ZM2.88326 86.1159H9.42871V86.9085H2.88326V86.1159ZM2.88326 83.8091V83.0165H8.70002V80.7154H2.88326V79.9227H8.70002V77.6216H2.88326V76.829H9.42871V83.8091H2.88326ZM9.42871 70.6718L6.42445 72.9218V73.7272H9.42871V74.5198H2.88326V73.7272H5.72132V73.382L2.88326 70.7612V69.8152L5.75968 72.4615L9.42871 69.7257V70.6718ZM9.42871 67.7129V68.5439L2.88326 66.1405V65.3223L9.42871 62.9189V63.7499L3.91877 65.7058V65.757L9.42871 67.7129ZM6.87189 67.4061V64.0567H7.57502V67.4061H6.87189Z" fill="#F84E4E"/>
<path d="M314.288 87.3825C314.341 83.5078 314.383 80.4456 314.383 80.1748C314.393 79.5186 314.341 78.6646 313.889 77.873C313.763 77.6438 313.553 77.3626 313.311 77.0501C313.164 76.8522 312.996 76.6335 312.88 76.4564C312.848 75.4982 312.827 71.3736 312.827 65.6033V65.52C312.796 64.0409 312.092 62.5307 310.725 61.0204C309.622 59.8018 308.14 58.9164 306.542 58.4998C306.521 58.4894 306.5 58.4894 306.479 58.479C305.628 58.2498 304.776 58.0623 303.831 57.854C303.084 57.6978 302.338 57.5415 301.592 57.3853C301.592 57.3749 301.592 57.3749 301.592 57.3645C301.602 56.9479 301.613 56.5312 301.613 56.1146C301.613 55.3438 300.961 55.0105 300.751 54.896C300.73 54.8855 300.709 54.8751 300.688 54.8647C299.469 54.1669 298.334 53.844 297.23 53.8856C297.209 53.8856 297.177 53.8856 297.156 53.8961C297.146 53.8961 297.146 53.8961 297.135 53.8961C297.104 53.8961 297.072 53.8961 297.051 53.8961V53.9065C296.021 54.0835 294.329 55.1043 294.087 55.2605L293.93 55.3751C293.804 55.4584 293.656 55.5626 293.625 55.573C293.551 55.5938 293.268 55.5938 293.12 55.5938C292.322 55.5313 284.397 53.8961 283.43 53.6773C274.065 51.5213 264.711 49.5423 256.45 47.8029C253.875 47.2613 251.447 46.7509 249.208 46.2718C243.553 45.0636 237.899 43.8553 232.255 42.6575C200.639 35.9186 167.994 28.9609 138.523 22.1699C138.46 22.1595 138.397 22.1386 138.323 22.1282C137.934 22.0345 137.482 21.8991 137.041 21.7637C136.673 21.6491 136.284 21.5345 135.927 21.4408C135.927 21.4304 135.927 21.4095 135.927 21.3991C135.937 20.9825 135.948 20.5659 135.948 20.1492C135.948 19.3785 135.296 19.0452 135.086 18.9306C135.065 18.9202 135.044 18.9098 135.023 18.8994C133.804 18.2015 132.669 17.8786 131.565 17.9203C131.544 17.9203 131.523 17.9203 131.502 17.9307C131.46 17.9307 131.418 17.9307 131.376 17.9411V17.9515C130.346 18.1182 128.654 19.1493 128.412 19.3056C128.212 19.441 128.086 19.5347 127.991 19.6076C127.981 19.6076 127.981 19.6181 127.981 19.6181C127.949 19.6181 127.928 19.6181 127.897 19.6181C127.067 19.4618 123.157 18.514 121.622 18.1078C120.119 17.5766 115.799 17.2641 114.023 17.8891C112.92 18.2744 111.017 19.3577 109.872 20.118C109.851 20.1284 109.829 20.1493 109.787 20.1701C109.766 20.1909 109.735 20.2013 109.714 20.2222C109.682 20.243 109.651 20.2638 109.609 20.2951C109.514 20.3576 109.43 20.4201 109.357 20.4721C106.266 22.6386 90.0594 34.0542 74.3359 45.1261C57.1934 57.1978 39.4624 69.6862 38.8212 70.1237C38.054 70.6549 37.0765 71.4881 36.3933 72.1756C35.9203 72.6547 33.5975 75.1441 33.5765 77.4667C33.4399 79.1124 33.4609 82.2788 33.4924 85.4347C33.503 86.4138 33.5135 87.2575 33.5029 87.497C33.4714 87.7887 33.2612 87.9449 32.3783 88.4032C32.2627 88.4657 32.1366 88.5282 32.0105 88.6011C30.6651 89.3198 29.9084 89.976 29.1306 91.1425C28.2688 92.4237 27.8694 94.7568 27.9745 96.2775C27.985 97.4336 27.985 99.2772 27.985 101.371C27.9955 106.193 27.9955 112.182 28.0481 114.067C28.0481 114.245 28.0481 114.484 28.0481 114.776C28.0375 116.411 28.0586 118.088 28.4159 119.109C28.7417 120.036 29.9399 121.525 31.1066 122.254V122.265C31.1276 122.275 31.1381 122.285 31.1591 122.296C31.1696 122.296 31.1802 122.306 31.1802 122.306C31.2222 122.327 31.2537 122.348 31.2958 122.369C32.1156 122.827 34.3753 124.348 35.0585 124.962C35.0585 126.358 35.1531 127.764 35.8678 129.368C37.0555 132.045 39.7777 133.461 42.2897 134.482C47.692 136.69 58.5072 140.117 66.411 142.617C67.9456 143.106 69.3329 143.544 70.5311 143.929C70.9305 144.054 71.2984 144.179 71.6557 144.294V144.283C76.028 145.627 79.3178 146.356 81.4619 146.45V146.46C81.5355 146.46 81.6091 146.46 81.6826 146.46C81.7772 146.46 81.8823 146.46 81.9874 146.46C84.6571 146.481 87.8838 146.523 91.0159 146.575C94.3582 146.627 97.8161 146.669 100.591 146.689C102.546 146.7 105.331 146.773 107.475 147.283V147.293C107.559 147.314 107.717 147.356 107.927 147.408C109.766 147.856 116.083 149.377 123.861 151.262C139.931 155.136 164.158 160.98 166.123 161.49C166.134 161.49 166.155 161.5 166.165 161.5C167.658 161.844 174.815 166.156 176.896 167.542C177.685 168.062 183.896 171.979 185.2 172.635C187.533 173.801 189.004 174.135 191.464 174.676V174.655C193.219 175.051 198.653 176.072 216.5 179.301C216.952 179.384 217.319 179.447 217.582 179.499C217.645 179.509 217.708 179.52 217.761 179.53C218.717 179.717 219.979 179.978 221.418 180.28C226.453 181.342 233.295 182.78 236.785 182.78C236.89 182.78 236.995 182.78 237.089 182.78C242.155 182.644 246.107 179.093 249.597 175.957C249.891 175.697 250.175 175.437 250.459 175.187L250.511 175.135L307.793 120.14C310.126 117.89 311.104 116.317 311.198 112.505V112.495L311.177 106.818C311.177 106.714 311.177 106.61 311.177 106.516C311.188 106.495 311.188 106.474 311.198 106.464C311.482 106.172 312.785 104.756 313.248 104.027C313.258 104.006 313.279 103.975 313.29 103.954C313.3 103.933 313.321 103.912 313.332 103.881C313.342 103.86 313.353 103.839 313.363 103.818C313.647 103.277 313.994 102.412 314.057 101.829C314.089 101.475 314.11 101.1 314.099 100.767C314.099 100.746 314.099 100.725 314.099 100.704C314.12 99.8396 314.215 92.6632 314.288 87.3825ZM299.595 56.5729C299.595 56.8229 299.584 57.0728 299.584 57.3124C299.574 57.4999 299.574 57.6978 299.563 57.8853C299.532 58.1561 299.563 58.3956 299.658 58.5935C298.954 58.4373 298.144 58.2602 297.325 58.0936C297.44 57.6249 297.829 57.1458 298.344 56.8333C298.775 56.5729 299.237 56.4792 299.595 56.5729ZM295.075 57.0208L295.233 56.9166C295.748 56.5729 296.967 55.9688 297.356 55.8855C297.829 55.875 298.323 55.9688 298.859 56.1875C298.617 56.25 298.376 56.3437 298.134 56.4896C297.524 56.8541 297.072 57.4374 296.925 58.0207C296.568 57.9478 296.221 57.8748 295.874 57.8019C295.296 57.677 294.75 57.5728 294.277 57.4686C294.518 57.3749 294.75 57.2395 295.075 57.0208ZM133.31 20.2534C133.509 20.3367 133.709 20.4409 133.919 20.5555C133.919 20.8054 133.909 21.0658 133.898 21.3158C133.898 21.5137 133.888 21.7012 133.877 21.8991C133.835 22.2428 133.898 22.524 134.056 22.7532C133.184 22.5449 132.133 22.2845 131.103 22.0345C131.05 22.0241 130.997 22.0137 130.955 21.9928C131.355 21.2221 132.606 20.2638 133.278 20.2638C133.278 20.2534 133.299 20.2534 133.31 20.2534ZM129.232 21.1492C129.316 21.0867 129.41 21.0138 129.547 20.92C130.052 20.5763 131.271 19.9722 131.66 19.8889C131.964 19.8784 132.29 19.9201 132.616 20.0034C131.817 20.3367 130.882 21.1596 130.546 21.8887C129.915 21.7324 129.305 21.5866 128.748 21.4512C128.906 21.3887 129.053 21.295 129.232 21.1492ZM110.555 22.0449C110.565 22.0449 110.565 22.0449 110.555 22.0449C110.712 21.9407 110.828 21.8574 110.902 21.8053C110.933 21.7741 110.975 21.7533 111.007 21.7324C112.079 21.0242 113.813 20.0555 114.675 19.7535C115.81 19.3577 118.995 19.5243 120.466 19.8472C121.139 20.0555 125.816 21.2117 127.308 21.5241C128.149 21.722 129.368 22.0241 130.609 22.3261C130.735 22.3574 130.871 22.3886 130.997 22.4199C132.711 22.8365 134.466 23.274 135.38 23.4823C136.284 23.6906 137.178 23.8989 138.092 24.1072C167.574 30.8982 200.219 37.8559 231.834 44.5949C237.478 45.7927 243.133 47.0009 248.788 48.2091C251.026 48.6882 253.465 49.1986 256.029 49.7402C264.28 51.4796 273.624 53.4482 282.978 55.6146C283.062 55.6355 291.334 57.3957 292.921 57.5728C293.53 57.7186 294.592 57.9374 295.801 58.1873C297.356 58.5102 299.111 58.8748 300.299 59.1664C300.373 59.1872 300.436 59.2081 300.499 59.2185C300.499 59.2185 300.499 59.2185 300.509 59.2185C300.541 59.2289 300.583 59.2393 300.614 59.2497C300.635 59.2497 300.646 59.2601 300.667 59.2601C300.677 59.2601 300.688 59.2601 300.698 59.2601L301.14 59.3539C301.907 59.5101 302.664 59.6663 303.421 59.833C304.356 60.0309 305.197 60.2184 306.006 60.4371C306.017 60.4371 306.017 60.4371 306.027 60.4475C307.162 60.7392 308.234 61.3433 309.054 62.1765C307.635 63.4264 305.722 65.1033 303.631 66.9469C303.116 65.822 301.623 65.4783 300.961 65.3221C297.682 64.5721 294.34 63.8639 291.113 63.1764C289.263 62.7806 287.35 62.3744 285.469 61.9682C283.136 61.4578 280.771 60.9266 278.479 60.4163C276.188 59.9059 273.813 59.3747 271.479 58.8643C268.757 58.2707 265.993 57.677 263.313 57.1145C260.612 56.5416 257.816 55.9375 255.073 55.3438C253.107 54.9168 251.11 54.4585 249.187 54.0211C247.463 53.6357 245.687 53.2295 243.932 52.8441C240.642 52.1254 237.289 51.3963 234.052 50.6984C232.244 50.3131 230.436 49.9173 228.639 49.5319C226.611 49.0944 224.582 48.6466 222.554 48.2091C220.126 47.6779 217.698 47.1467 215.259 46.6259C213.052 46.1468 210.834 45.6677 208.627 45.199C204.56 44.324 200.356 43.4179 196.225 42.5013C193.345 41.8659 190.413 41.1993 187.585 40.564C184.569 39.8766 181.458 39.1787 178.389 38.5017C176.161 38.0121 173.88 37.5539 171.683 37.106C170.338 36.8352 168.993 36.5644 167.647 36.2831C164.746 35.679 162.371 35.1687 160.153 34.6791C158.44 34.3042 156.695 33.898 155.014 33.5126C153.795 33.2313 152.565 32.9501 151.346 32.6793L149.391 32.2419C146.217 31.5232 142.927 30.7837 139.69 30.0754C136.799 29.44 133.856 28.8255 131.018 28.2318L129.253 27.8673C128.212 27.6485 127.161 27.4402 126.121 27.2215C124.292 26.8465 122.4 26.4612 120.54 26.0549C119.32 25.7841 118.07 25.4821 116.871 25.1904C115.316 24.8155 113.708 24.4197 112.121 24.0864C111.217 23.8989 110.513 23.8468 109.504 23.9197C109.146 23.9406 108.432 24.1905 108.106 24.3364C107.917 24.2947 107.738 24.253 107.559 24.2114C108.968 23.1698 109.998 22.4407 110.555 22.0449ZM303.221 67.0302C299.385 66.1761 295.033 65.2492 290.808 64.3534C287.34 63.6139 283.756 62.8535 280.582 62.1557C278.259 61.6453 275.936 61.1245 273.603 60.6038C270.712 59.958 267.717 59.2914 264.774 58.6456C261.379 57.9061 257.921 57.1666 254.579 56.4583C251.615 55.823 248.535 55.1668 245.519 54.521C243.543 54.094 241.535 53.6461 239.591 53.2086C237.846 52.8128 236.038 52.4066 234.262 52.0212C231.74 51.4692 229.217 50.9276 226.695 50.386C223.531 49.709 220.262 49.0007 217.046 48.2924C214.776 47.7925 212.485 47.2717 210.256 46.7613C207.829 46.2093 205.327 45.6364 202.857 45.0948C200.639 44.6053 198.369 44.147 196.183 43.7095C194.827 43.4387 193.471 43.1575 192.115 42.8763C189.498 42.3347 186.86 41.7618 184.622 41.2723C181.637 40.6265 178.568 39.9495 175.499 39.262C174.458 39.0329 173.417 38.7933 172.377 38.5538C171.357 38.3246 170.338 38.0851 169.318 37.8559C167.405 37.4289 165.493 37.0122 163.569 36.5852L142.296 31.9086C139.763 31.3461 137.23 30.7941 134.708 30.242C130.419 29.3046 126.562 28.461 122.652 27.6277C120.098 27.0861 116.588 26.2633 113.193 25.4717C111.648 25.1071 110.166 24.7634 108.81 24.4509C109.083 24.3572 109.367 24.2739 109.525 24.2634C110.502 24.201 111.154 24.2426 112.026 24.4197C113.613 24.753 115.221 25.1384 116.766 25.5237C117.965 25.8154 119.215 26.1174 120.445 26.3882C122.305 26.8049 124.197 27.1903 126.026 27.5652C127.067 27.7735 128.118 27.9923 129.158 28.211L130.924 28.5755C133.762 29.1692 136.705 29.7838 139.595 30.4191C142.832 31.1274 146.122 31.8669 149.296 32.5856L151.251 33.023C152.47 33.2938 153.7 33.5751 154.919 33.8563C156.601 34.2417 158.346 34.6479 160.069 35.0228C162.287 35.5124 164.673 36.0227 167.574 36.6269C168.919 36.9081 170.264 37.1789 171.61 37.4497C173.806 37.8976 176.077 38.3559 178.305 38.8454C181.374 39.5224 184.485 40.2203 187.491 40.9077C190.318 41.5535 193.251 42.2097 196.13 42.845C200.261 43.7512 204.476 44.6574 208.543 45.5323C210.761 46.0114 212.968 46.4801 215.175 46.9592C217.603 47.4904 220.031 48.0112 222.47 48.5424C224.498 48.9799 226.527 49.4277 228.555 49.8652C230.363 50.261 232.171 50.6464 233.968 51.0422C237.205 51.74 240.558 52.4587 243.848 53.1878C245.603 53.5732 247.379 53.9794 249.103 54.3648C251.037 54.8022 253.034 55.2605 254.999 55.6876C257.742 56.2813 260.538 56.8854 263.239 57.4582C265.919 58.0311 268.684 58.6248 271.406 59.2081C273.739 59.7184 276.115 60.2496 278.406 60.76C280.697 61.2704 283.062 61.8016 285.395 62.3119C287.277 62.7181 289.19 63.1244 291.039 63.5201C294.266 64.2076 297.608 64.9159 300.888 65.6658C301.76 65.9053 302.811 66.2491 303.221 67.0302ZM37.8438 73.54C38.4323 72.9359 39.3152 72.1964 39.9774 71.7277C40.6185 71.2903 58.3496 58.7914 75.5025 46.7197C88.0099 37.908 100.833 28.8776 107.097 24.4718C107.402 24.5447 107.727 24.6072 108.053 24.6905C109.577 25.0342 111.29 25.4404 113.088 25.857C116.483 26.6486 120.004 27.4715 122.558 28.0131C126.467 28.8463 130.325 29.69 134.613 30.617C137.146 31.169 139.669 31.7315 142.202 32.2835L163.517 36.981C165.43 37.3976 167.342 37.8247 169.255 38.2517C170.275 38.4809 171.294 38.71 172.303 38.9496C173.344 39.1891 174.384 39.4287 175.435 39.6578C178.505 40.3453 181.574 41.0223 184.558 41.668C186.797 42.1576 189.446 42.7304 192.063 43.2721C193.419 43.5533 194.775 43.8345 196.13 44.1053C198.317 44.5532 200.576 45.0115 202.794 45.4906C205.264 46.0322 207.765 46.6051 210.193 47.1571C212.422 47.6675 214.713 48.1883 216.983 48.6882C220.199 49.3965 223.479 50.0943 226.642 50.7818C229.165 51.3234 231.687 51.865 234.21 52.417C235.986 52.8024 237.783 53.2086 239.528 53.6044C241.462 54.0419 243.48 54.4898 245.456 54.9168C248.472 55.573 251.541 56.2292 254.516 56.8541C257.858 57.5624 261.316 58.3019 264.711 59.0414C267.654 59.6872 270.649 60.3538 273.54 60.9996C275.862 61.5203 278.185 62.0411 280.518 62.5515C283.693 63.2493 287.277 64.0097 290.745 64.7492C294.939 65.645 299.28 66.5615 303.095 67.4156C302.611 67.8427 302.117 68.2801 301.613 68.7176C298.155 71.7485 294.581 74.8837 292.322 76.8835C290.062 78.8833 287.193 81.4143 284.166 84.0807C278.952 88.6844 273.046 93.8923 269.094 97.4128C266.697 99.5584 264.353 101.652 262.041 103.725C257.574 107.724 253.36 111.505 248.798 115.515C245.771 118.171 242.586 119.671 239.055 120.109C236.837 120.379 232.644 120.171 230.468 119.921C228.029 119.64 226.043 119.327 224.204 118.932C221.397 118.338 218.518 117.807 215.743 117.296C214.608 117.088 213.473 116.88 212.337 116.671C209.836 116.203 207.292 115.734 204.833 115.286C203.088 114.963 201.333 114.64 199.588 114.317C198.748 114.161 197.886 114.015 197.055 113.87C195.426 113.588 193.734 113.307 192.094 112.932C189.856 112.422 187.806 111.547 185.998 110.328C178.116 105.027 169.434 101.267 162.749 98.5689C158.934 97.0378 154.835 95.5796 149.464 93.8506C143.715 91.9966 137.545 90.3614 130.598 88.8511C123.714 87.3512 116.651 86.2055 109.609 85.4452C105.962 85.0494 102.104 84.7681 98.1525 84.5911C94.6735 84.4348 91.1525 84.3828 87.7051 84.4348C86.4859 84.4557 85.2562 84.539 84.058 84.6119C82.7967 84.6952 81.4935 84.7786 80.2112 84.7994C75.986 84.841 71.7188 84.164 67.1888 82.7579C63.6363 81.6434 59.9997 80.6331 56.4682 79.654C55.5853 79.4041 54.7024 79.1645 53.8196 78.9145C51.6439 78.3 49.4262 77.6646 47.2926 77.0501C44.0134 76.1023 40.629 75.1336 37.2867 74.2275C37.4443 73.9671 37.6441 73.7483 37.8438 73.54ZM35.6366 77.123C35.7732 76.3627 36.3197 75.4044 36.9819 74.5399C40.3768 75.4565 43.8242 76.446 47.156 77.4043C49.3001 78.0188 51.5073 78.6541 53.6934 79.2687C54.5763 79.5186 55.4592 79.7582 56.3421 80.0082C59.863 80.9873 63.5102 81.9976 67.0522 83.112C71.6242 84.539 75.9229 85.216 80.2007 85.1744C81.4935 85.1639 82.8073 85.0806 84.0685 84.9869C85.2562 84.9035 86.4859 84.8306 87.6946 84.8098C91.142 84.7577 94.6525 84.8098 98.1209 84.9556C102.073 85.1327 105.92 85.4243 109.556 85.8097C116.598 86.5701 123.64 87.7158 130.503 89.2156C137.44 90.7259 143.599 92.3612 149.338 94.2047C154.698 95.9337 158.787 97.3815 162.602 98.9126C169.266 101.589 177.926 105.35 185.778 110.63C187.628 111.87 189.719 112.776 192.01 113.297C193.66 113.672 195.353 113.963 196.992 114.245C197.823 114.39 198.684 114.536 199.525 114.692C201.27 115.015 203.025 115.338 204.781 115.661C207.24 116.109 209.783 116.578 212.285 117.046C213.42 117.265 214.566 117.463 215.701 117.682C218.476 118.192 221.345 118.713 224.151 119.307C226.001 119.702 227.998 120.015 230.447 120.296C231.908 120.463 234.283 120.619 236.364 120.619C237.405 120.619 238.382 120.577 239.129 120.494C242.744 120.056 246.002 118.515 249.082 115.807C253.643 111.797 257.858 108.016 262.325 104.006C264.648 101.923 266.981 99.8396 269.377 97.694C273.329 94.1735 279.236 88.9552 284.449 84.3619C287.476 81.6851 290.346 79.1645 292.605 77.1647C294.865 75.1649 298.439 72.0298 301.886 69.0092C302.485 68.478 303.084 67.9572 303.673 67.4364C303.683 67.426 303.694 67.4156 303.704 67.4156C305.891 65.4991 307.877 63.7597 309.348 62.4578C310.053 63.2493 310.841 64.4055 310.841 65.6033C310.841 66.3845 310.841 67.1136 310.841 67.7906C306.342 71.7485 301.455 76.144 296.725 80.3936C292.816 83.9036 288.78 87.5387 285.048 90.8405C280.003 95.3088 274.885 99.8709 269.924 104.277C266.424 107.391 262.914 110.516 259.414 113.63C255.966 116.692 252.403 119.859 248.861 123.056C245.918 125.712 242.881 127.202 239.549 127.629C238.477 127.764 237.415 127.785 236.511 127.785C235.187 127.785 233.978 127.785 232.696 127.722C228.334 127.525 223.899 127.441 219.6 127.358C218.391 127.337 217.183 127.316 215.974 127.285C212.159 127.202 208.28 127.254 204.539 127.316C203.151 127.337 201.754 127.358 200.366 127.368C195.857 127.41 191.485 127.608 187.386 127.952C186.692 128.004 185.977 128.087 185.294 128.149C184.842 128.202 184.39 128.243 183.938 128.285C182.131 128.452 180.701 127.774 180.029 126.41C178.778 123.879 176.739 122.035 174.763 120.254L174.553 120.067C170.18 116.119 165.198 112.588 159.743 109.568C155.77 107.37 151.482 105.422 146.658 103.61C140.772 101.402 134.424 99.7771 127.256 98.6314C124.386 98.1731 121.317 97.8815 117.313 97.6836C110.975 97.3711 104.69 97.694 98.6359 98.6314C92.7291 99.548 87.6 100.84 82.9754 102.589C79.6752 103.839 76.3749 103.579 73.4425 101.829C69.2173 99.3188 64.887 96.8295 60.7039 94.4235C57.8976 92.809 55.0072 91.1425 52.1694 89.4865C49.4578 87.9033 46.6935 86.3097 44.0134 84.7785C42.4053 83.8516 40.7867 82.9246 39.1786 81.9872C38.0855 81.3622 36.12 79.6853 35.584 78.5812C35.605 77.9563 35.6366 77.4355 35.6891 77.123H35.6366ZM35.5315 87.1846C35.5315 86.82 35.521 86.2367 35.521 85.3827C35.4999 83.7578 35.4789 81.2164 35.521 79.3103C36.3303 80.4352 37.9489 81.7684 38.9368 82.3413C40.5449 83.2683 42.1635 84.2057 43.7716 85.1327C46.4413 86.6742 49.216 88.2678 51.9277 89.8406C54.7655 91.4967 57.6664 93.1632 60.4727 94.7776C64.6558 97.1836 68.9861 99.673 73.2113 102.183C76.2593 103.995 79.6752 104.266 83.1015 102.975C87.7051 101.235 92.8027 99.9438 98.678 99.0376C104.711 98.1002 110.965 97.7877 117.271 98.1002C121.265 98.2981 124.313 98.5897 127.172 99.0376C134.319 100.173 140.636 101.798 146.5 103.995C151.314 105.797 155.581 107.745 159.533 109.922C164.957 112.922 169.917 116.432 174.269 120.369L174.479 120.556C176.423 122.306 178.431 124.129 179.65 126.587C180.312 127.941 181.7 128.712 183.402 128.712C183.581 128.712 183.77 128.701 183.959 128.681C184.411 128.639 184.874 128.587 185.326 128.545C186.009 128.472 186.713 128.399 187.407 128.347C191.495 128.004 195.857 127.816 200.356 127.764C201.743 127.754 203.141 127.733 204.528 127.712C208.27 127.66 212.148 127.597 215.953 127.681C217.162 127.702 218.37 127.733 219.579 127.754C223.867 127.837 228.303 127.92 232.665 128.118C233.957 128.181 235.166 128.181 236.501 128.181C237.415 128.181 238.498 128.16 239.591 128.024C242.996 127.587 246.118 126.066 249.124 123.348C252.666 120.15 256.229 116.984 259.676 113.922C263.187 110.807 266.687 107.683 270.187 104.568C275.137 100.163 280.256 95.6004 285.301 91.1321C289.032 87.8303 293.078 84.1953 296.978 80.6852C301.613 76.5293 306.395 72.2277 310.82 68.3322C310.82 74.1025 310.841 76.0294 310.904 76.7481C307.751 79.6436 304.135 82.935 300.646 86.1222C298.786 87.8199 296.967 89.476 295.286 91.0071C293.341 92.7882 291.386 94.5693 289.431 96.34C286.593 98.923 283.661 101.6 280.781 104.235C276.567 108.099 272.268 112.016 268.106 115.807C265.909 117.807 263.723 119.806 261.526 121.806C258.468 124.598 255.409 127.389 252.34 130.17C250.038 132.274 247.726 134.368 245.424 136.472C243.186 138.513 240.327 139.68 236.417 140.138C233.968 140.43 231.235 140.305 229.007 139.825C229.028 139.815 229.049 139.794 229.07 139.784C229.07 139.784 229.07 139.784 229.081 139.784C229.091 139.773 229.102 139.763 229.112 139.753C229.123 139.753 229.123 139.742 229.133 139.732C229.144 139.711 229.154 139.7 229.165 139.68V139.669C229.165 139.659 229.175 139.648 229.175 139.638C229.175 139.628 229.175 139.617 229.175 139.607C229.175 139.596 229.175 139.575 229.165 139.565V139.555C229.165 139.544 229.154 139.534 229.154 139.523V139.513C229.154 139.513 229.154 139.513 229.154 139.503C229.144 139.492 229.133 139.482 229.123 139.471C229.123 139.461 229.112 139.461 229.102 139.45C229.081 139.43 229.06 139.419 229.039 139.419C229.028 139.419 229.017 139.409 229.007 139.409C228.996 139.409 228.986 139.409 228.975 139.409C228.587 139.367 227.546 139.242 226.043 139.065C217.982 138.128 196.582 135.628 194.627 135.326C193.86 135.211 193.24 135.524 192.767 136.295C189.509 136.492 185.378 136.69 182.099 136.534C179.64 136.42 177.138 136.17 175.015 135.951C171.431 135.576 167.71 135.107 163.979 134.545C163.695 134.503 162.97 134.388 162.066 134.253C160.437 133.357 156.506 131.441 154.856 130.826C147.825 128.222 140.846 126.181 134.098 124.764C129.368 123.775 124.323 122.921 117.712 122.015C113.046 121.379 107.654 121.39 103.923 121.504C97.7951 119.713 88.4093 116.723 85.2877 115.651C78.5505 113.328 73.2218 111.151 68.5131 108.797C67.2308 108.162 65.7384 107.349 64.4771 106.256C64.3615 106.162 64.2879 106.079 64.2459 105.995C64.1618 105.849 64.1513 105.683 64.1198 105.37C64.0672 104.683 63.815 104.266 63.2579 103.912C63.1843 103.871 63.1108 103.829 63.0372 103.777H63.0267C61.6183 102.933 60.0838 102.339 58.6018 101.767C57.9817 101.527 57.3405 101.277 56.7309 101.017C55.3961 100.454 54.0403 99.9021 52.716 99.3709C51.5073 98.8814 50.267 98.3814 49.0373 97.8711C48.228 97.5274 47.4187 97.1836 46.6199 96.8399C44.192 95.8088 41.68 94.7359 39.1681 93.8506C38.8948 93.7569 38.632 93.6215 38.3903 93.4652C36.6245 92.3195 35.521 89.7052 35.4684 88.0178C35.5104 87.8616 35.542 87.6949 35.5525 87.5179V87.5075C35.5315 87.4346 35.5315 87.3096 35.5315 87.1846ZM227.273 155.751C227.273 155.866 227.273 155.98 227.273 156.095C227.283 157.668 227.262 159.24 227.241 160.771C227.231 161.292 227.231 161.823 227.22 162.344C227.21 163.375 227.178 164.417 227.157 165.427C227.136 166.292 227.115 167.177 227.094 168.062C227.094 168.208 227.094 168.354 227.094 168.5C227.094 168.729 227.094 168.958 227.094 169.187C227.094 169.354 227.105 169.833 227.231 170.229C226.369 170.104 225.16 169.948 223.815 169.791C223.815 169.791 223.815 169.791 223.804 169.791C223.794 169.791 223.783 169.791 223.773 169.791H223.762C220.83 169.427 217.319 169.031 215.606 168.823L215.175 168.771C211.623 168.354 208.501 167.989 205.653 167.646C202.773 167.302 199.735 166.948 196.414 166.583C195.657 166.5 194.89 166.417 194.102 166.333C192.599 166.177 192.462 165.531 192.336 164.417C192.315 164.281 192.305 164.146 192.305 164.011C192.305 164 192.305 163.979 192.315 163.969C192.315 163.938 192.315 163.917 192.305 163.886C192.284 163.407 192.315 162.927 192.336 162.459C192.357 162.084 192.378 161.698 192.368 161.313C192.368 160.688 192.347 158.365 192.315 155.532C192.305 154.616 192.294 153.647 192.284 152.658C192.242 148.283 192.21 143.575 192.21 142.179C192.21 142.169 192.21 142.148 192.21 142.138C192.21 142.086 192.21 142.044 192.21 141.992C192.21 141.971 192.21 141.961 192.21 141.94V141.929C192.21 141.929 192.21 141.929 192.21 141.919C192.168 140.575 192.179 139.19 192.515 137.93C192.515 137.909 192.525 137.899 192.525 137.888C192.588 137.659 192.662 137.43 192.757 137.201C192.851 136.972 192.946 136.774 193.04 136.597C193.051 136.586 193.051 136.576 193.061 136.565C193.461 135.888 193.934 135.628 194.564 135.722C196.519 136.024 217.929 138.523 225.99 139.461C227.084 139.586 227.924 139.69 228.46 139.753C228.45 139.763 228.429 139.784 228.429 139.794C227.672 140.617 227.567 142.086 227.557 142.742C227.546 143.804 227.514 144.929 227.483 146.044C227.483 146.054 227.483 146.054 227.483 146.064C227.462 146.762 227.441 147.471 227.42 148.168C227.346 150.585 227.273 153.085 227.273 155.397C227.273 155.522 227.273 155.636 227.273 155.751ZM223.531 170.156C223.468 170.468 223.321 170.739 223.1 170.927C222.879 171.114 222.596 171.208 222.322 171.177C221.786 171.125 221.25 171.052 220.725 170.989C220.22 170.927 219.695 170.854 219.169 170.802C216.594 170.541 213.967 170.229 211.444 169.916C210.141 169.76 208.838 169.604 207.534 169.448C206.914 169.375 206.294 169.302 205.663 169.239C203.088 168.948 200.419 168.646 197.812 168.26C197.266 168.177 196.677 167.646 196.614 167C199.841 167.354 202.805 167.687 205.611 168.031C208.459 168.375 211.581 168.739 215.133 169.156L215.564 169.208C217.235 169.416 220.641 169.802 223.531 170.156ZM61.3871 107.891C60.4411 108.912 59.9682 109.953 59.9051 111.203C59.8946 111.234 59.8946 111.276 59.9051 111.307C59.9051 111.391 59.8946 111.464 59.8946 111.547C59.9051 113.901 60.0102 116.286 60.1258 118.588L60.1363 118.786C60.1889 119.911 60.2414 120.983 60.2624 122.181C60.2624 122.213 60.2624 122.233 60.2624 122.265C60.273 122.796 60.294 123.379 60.3255 123.942C60.336 124.233 60.357 124.525 60.3675 124.806L60.3991 125.514C60.4516 126.962 60.5147 128.452 60.6198 129.931C60.6303 130.003 60.6303 130.076 60.6513 130.149C60.6513 130.17 60.6513 130.191 60.6618 130.212V130.222C60.9456 131.535 62.4381 132.326 63.4996 132.722C63.384 132.795 63.2789 132.878 63.1843 133.014C62.8165 133.493 62.1333 133.43 61.6183 133.284C61.4922 133.253 61.366 133.211 61.2399 133.18C60.6198 132.774 60.1363 131.618 60.0943 131.014C59.7579 126.743 59.5898 122.4 59.4321 118.577C59.3691 116.921 59.3165 115.234 59.2745 113.599C59.2534 112.776 59.2324 111.953 59.2009 111.12C59.1799 110.391 59.1799 109.537 59.3901 108.683C59.8736 106.693 61.1243 105.11 62.9111 104.204C62.9531 104.225 62.9951 104.256 63.0267 104.277C63.4786 104.558 63.6573 104.87 63.7099 105.433C63.7204 105.527 63.7309 105.62 63.7414 105.704C63.1633 105.464 62.5117 105.475 61.9861 105.766C61.4606 106.047 61.1874 106.547 61.2294 107.131C61.2294 107.339 61.2504 107.651 61.3871 107.891ZM191.874 151.876C189.141 151.981 184.643 151.699 181.71 151.387C179.146 151.116 176.581 150.751 174.626 150.46C173.89 150.356 173.144 150.252 172.419 150.158C171.547 150.043 170.653 149.929 169.77 149.793L169.655 149.772C167.794 149.481 165.871 149.189 164 148.856C162.234 148.543 160.49 148.252 158.829 148.012C156.885 147.721 154.982 147.377 152.87 146.981C151.262 146.679 149.632 146.346 148.056 146.023C147.425 145.898 146.805 145.762 146.174 145.637C145.197 145.439 144.209 145.242 143.232 145.054C141.844 144.783 140.394 144.492 138.985 144.2L138.134 144.023C135.654 143.502 133.089 142.971 130.588 142.398C128.391 141.888 126.205 141.377 124.019 140.867C121.717 140.325 119.341 139.773 117.008 139.232C110.281 137.69 103.523 135.878 96.9753 134.138C92.3822 132.909 87.4213 131.451 81.7772 129.67C77.8569 128.431 73.2218 126.931 68.5236 125.16C66.4951 124.389 63.2684 122.806 61.1348 121.754L60.6303 121.504C60.5988 120.577 60.5567 119.702 60.5147 118.796L60.5042 118.598C60.3991 116.328 60.2835 113.974 60.273 111.651C66.6738 115.505 74.7563 119.348 83.1015 122.483C89.4183 124.858 96.1975 127.066 103.271 129.045C111.28 131.295 118.574 133.107 125.574 134.586C131.996 135.94 137.903 137.065 143.62 138.003C150.074 139.065 156.727 139.94 163.391 140.617C167.532 141.034 171.725 141.357 175.866 141.575C178.42 141.711 180.754 141.773 182.982 141.773C184.348 141.773 185.683 141.752 186.997 141.7C188.479 141.648 190.182 141.565 191.769 141.325C191.769 141.575 191.779 141.815 191.79 142.054C191.8 143.106 191.832 147.543 191.874 151.876ZM61.0402 130.108C61.0297 130.045 61.0192 129.983 61.0087 129.91C60.9036 128.441 60.851 126.952 60.788 125.504L60.7564 124.796C60.7459 124.504 60.7354 124.223 60.7144 123.931C60.6934 123.41 60.6618 122.879 60.6513 122.39L60.7669 122.452C62.9216 123.514 66.1693 125.108 68.2293 125.889C72.938 127.67 77.5941 129.181 81.525 130.42C87.1691 132.201 92.151 133.67 96.7546 134.899C103.303 136.649 110.071 138.451 116.808 140.003C119.142 140.534 121.517 141.096 123.819 141.638C126.005 142.148 128.202 142.669 130.398 143.169C132.91 143.752 135.485 144.283 137.966 144.804L138.817 144.981C140.236 145.273 141.676 145.564 143.074 145.835C144.051 146.033 145.029 146.221 146.017 146.419C146.647 146.544 147.268 146.669 147.898 146.804C149.475 147.127 151.114 147.46 152.722 147.762C154.835 148.158 156.748 148.512 158.713 148.804C160.374 149.054 162.108 149.335 163.863 149.647C165.755 149.991 167.679 150.283 169.539 150.564L169.655 150.585C170.538 150.72 171.441 150.835 172.314 150.96C173.039 151.054 173.785 151.158 174.511 151.262C176.465 151.553 179.051 151.918 181.626 152.189C184.159 152.46 187.88 152.699 190.623 152.699C191.064 152.699 191.495 152.689 191.874 152.678C191.884 153.668 191.895 154.637 191.905 155.553C191.926 158.386 191.947 160.709 191.958 161.334C191.958 161.709 191.937 162.084 191.926 162.459C191.926 162.521 191.916 162.584 191.916 162.657C189.793 162.365 187.691 162 185.357 161.573C179.745 160.563 174.08 159.376 168.593 158.23L168.341 158.178C162.865 157.032 157.515 155.845 152.544 154.73C141.76 152.303 131.176 149.71 122.253 147.502C112.478 145.075 103.733 142.804 95.5143 140.575C88.2411 138.596 80.495 136.482 72.917 134.17C69.8479 133.243 65.8119 131.993 61.7865 130.628C61.5552 130.545 61.1138 130.264 61.0402 130.108ZM191.779 140.888C190.192 141.138 188.479 141.211 186.997 141.273C183.549 141.398 180.018 141.357 175.898 141.148C171.767 140.94 167.574 140.617 163.443 140.2C156.79 139.523 150.147 138.648 143.694 137.586C137.987 136.649 132.091 135.534 125.669 134.17C118.679 132.691 111.396 130.878 103.397 128.639C96.3447 126.66 89.5654 124.452 83.2697 122.088C74.8614 118.932 66.7158 115.057 60.315 111.172C60.3886 110.057 60.809 109.12 61.6603 108.193C61.6813 108.203 61.7024 108.214 61.7234 108.224C62.9321 108.776 64.1618 109.349 65.3495 109.901C67.9245 111.099 70.5942 112.349 73.2638 113.484C78.971 115.911 85.2772 118.265 92.5504 120.681C97.8056 122.431 103.155 124.046 108.474 125.493C112.531 126.598 116.787 127.691 121.139 128.743C125.858 129.889 130.63 130.941 135.338 131.899C140.625 132.972 145.397 133.826 149.927 134.524C157.284 135.649 162.939 136.399 168.278 136.93C172.493 137.357 176.339 137.659 180.039 137.867C182.635 138.013 185.589 138.024 188.437 138.024C189.709 138.024 190.917 138.034 192.063 138.044C191.842 138.961 191.779 139.93 191.779 140.888ZM188.437 137.628C186.85 137.628 185.242 137.617 183.686 137.596C182.435 137.576 181.206 137.534 180.06 137.471C176.371 137.263 172.524 136.951 168.32 136.534C162.991 136.003 157.337 135.253 149.99 134.128C145.46 133.43 140.688 132.576 135.412 131.503C130.714 130.545 125.931 129.493 121.223 128.347C116.882 127.295 112.625 126.202 108.568 125.108C103.26 123.671 97.9107 122.046 92.666 120.306C85.4033 117.89 79.1076 115.536 73.4215 113.12C70.7518 111.984 68.0927 110.745 65.5176 109.547C64.33 108.995 63.1003 108.422 61.8916 107.87C61.8495 107.849 61.8075 107.818 61.7759 107.776C61.6498 107.61 61.6288 107.308 61.6078 107.11C61.5657 106.537 61.9336 106.245 62.1543 106.131C62.6693 105.849 63.363 105.902 63.8885 106.266C63.9516 106.381 64.0462 106.485 64.1828 106.599C65.4861 107.724 66.9996 108.547 68.3029 109.193C73.0326 111.557 78.3719 113.734 85.1301 116.057C88.2516 117.13 97.6795 120.129 103.807 121.921C104.259 122.056 104.69 122.181 105.11 122.296C106.424 122.671 107.507 122.962 108.263 123.14H108.274C112.163 124.212 116.619 125.337 121.223 126.483C126.52 127.806 131.807 129.014 136.936 130.076C140.625 130.837 149.443 132.639 156.233 133.764C156.317 133.774 156.391 133.795 156.464 133.805C156.979 133.889 157.484 133.972 157.967 134.045C157.978 134.045 157.988 134.045 157.999 134.045H158.009C158.819 134.17 159.775 134.316 160.7 134.461C161.131 134.524 161.551 134.586 161.93 134.649C162.844 134.784 163.59 134.899 163.885 134.94C167.626 135.493 171.336 135.972 174.931 136.347C177.054 136.565 179.566 136.815 182.036 136.93C182.561 136.961 183.108 136.972 183.665 136.982C184.001 136.992 184.338 136.992 184.685 136.992C187.291 136.992 190.108 136.857 192.494 136.711C192.441 136.815 192.389 136.93 192.347 137.044C192.273 137.242 192.2 137.44 192.147 137.638C190.991 137.638 189.751 137.638 188.437 137.628ZM106.519 122.285C109.893 122.244 113.971 122.348 117.586 122.837C124.166 123.744 129.2 124.587 133.909 125.577C140.614 126.983 147.551 129.014 154.551 131.597C155.655 132.003 157.799 133.014 159.565 133.888C158.282 133.691 157.095 133.514 156.538 133.42H156.527C156.485 133.409 156.454 133.409 156.412 133.399C156.38 133.389 156.338 133.389 156.307 133.378C149.527 132.253 140.72 130.462 137.03 129.701C131.901 128.639 126.615 127.431 121.328 126.108C116.735 124.962 112.289 123.848 108.411 122.775C108.4 122.775 108.39 122.765 108.379 122.765C108.369 122.765 108.358 122.765 108.348 122.754C107.875 122.65 107.254 122.483 106.519 122.285ZM29.9925 95.6421H29.982C30.003 94.5068 30.3078 92.9757 30.8123 92.2258C31.4009 91.3404 31.9054 90.903 32.9669 90.3405C33.0825 90.278 33.1982 90.2155 33.3138 90.1635C33.9444 89.8406 34.6801 89.4656 35.1216 88.799C35.3948 90.4343 36.3933 92.5278 37.8858 93.6527C36.6981 94.1943 35.9414 94.6214 35.1951 96.0275C34.8483 96.6837 34.7117 98.1835 34.7222 99.1939C34.7222 99.2043 34.7222 99.2147 34.7222 99.2251C34.7222 99.2251 34.7222 99.2251 34.7222 99.2355C33.6291 99.0376 31.2537 97.8502 30.003 96.6003C29.9925 96.215 29.9925 95.8921 29.9925 95.6421ZM30.003 101.339C30.003 99.7251 30.003 98.246 29.9925 97.1315C31.3904 98.3814 33.6291 99.4647 34.7116 99.6313C34.7327 101.829 34.7432 108.558 34.7432 110.005C34.7432 110.234 34.7432 110.464 34.7432 110.682C33.503 110.599 31.2117 109.078 30.003 107.433C30.003 105.443 30.003 103.298 30.003 101.339ZM30.0661 113.984C30.045 113.047 30.024 111.047 30.024 108.683C31.4009 110.162 33.4084 111.411 34.7537 111.484C34.7537 111.526 34.7537 111.568 34.7537 111.62C34.7432 112.432 34.7432 113.203 34.7537 114.057C34.7642 115.265 34.7222 116.265 34.6801 117.432L34.6591 117.869C34.6381 118.327 34.6276 118.827 34.6171 119.338C34.1756 119.296 33.4084 118.9 32.578 118.275C31.3273 117.348 30.3288 116.234 30.0555 115.494C30.0555 115.213 30.0555 114.953 30.0555 114.744C30.0661 114.442 30.0661 114.172 30.0661 113.984ZM34.5645 122.046C33.9339 121.608 32.9039 120.931 32.2732 120.577C31.4324 120.119 30.476 118.869 30.3183 118.411C30.1606 117.963 30.0976 117.171 30.0766 116.38C30.6021 117.15 31.485 117.973 32.3363 118.609C32.7988 118.952 33.8708 119.692 34.6171 119.744C34.6171 120.421 34.6591 121.088 34.7537 121.671C34.7957 121.9 34.8483 122.108 34.9534 122.317C34.8273 122.223 34.7011 122.14 34.5645 122.046ZM35.5945 122.556C35.5945 122.546 35.584 122.546 35.584 122.535L35.5735 122.525C35.3107 122.192 35.2267 121.942 35.1636 121.608C35.0585 120.994 35.027 120.275 35.027 119.546C35.027 118.973 35.048 118.411 35.069 117.9L35.09 117.463C35.1321 116.296 35.1741 115.276 35.1636 114.067C35.1531 113.213 35.1636 112.443 35.1636 111.63C35.1636 111.568 35.1636 111.505 35.1636 111.443C35.1636 111.214 35.1636 110.984 35.1741 110.745C35.1741 110.505 35.1741 110.266 35.1741 110.016C35.1741 108.537 35.1636 101.558 35.1426 99.5063V99.4959C35.1426 99.4855 35.1426 99.4647 35.1426 99.4542C35.1111 98.496 35.2477 96.8295 35.5735 96.215C36.2987 94.8401 36.9714 94.5172 38.2957 93.9131C38.5374 94.0589 38.7792 94.1839 39.0419 94.2672C41.5434 95.1422 44.0554 96.215 46.4728 97.2461C47.2821 97.5898 48.0914 97.9336 48.9007 98.2773C50.1199 98.7876 51.3706 99.298 52.5793 99.7875C53.8931 100.319 55.2595 100.871 56.5838 101.433C57.2039 101.694 57.845 101.944 58.4652 102.183C59.8315 102.714 61.2294 103.256 62.5222 103.985C60.7669 104.954 59.5057 106.62 59.0117 108.61C58.791 109.505 58.7805 110.401 58.812 111.151C58.833 111.974 58.854 112.797 58.8856 113.63C58.9276 115.265 58.9802 116.953 59.0432 118.609C59.2009 122.442 59.3691 126.775 59.7054 131.055C59.7474 131.566 60.0312 132.357 60.4621 132.951C59.4847 132.649 58.5703 132.326 57.6769 132.014L57.4667 131.941C57.4456 131.93 57.4141 131.92 57.3931 131.91C56.0898 131.451 54.4187 130.733 53.0733 130.149L52.6529 129.962C50.677 129.118 48.7851 128.337 46.9563 127.577C45.5899 127.014 44.171 126.431 42.7101 125.816L42.3422 125.66C41.2491 125.202 40.2191 124.764 39.1365 124.285C38.8317 124.15 38.5164 124.004 38.2011 123.858C38.0435 123.785 37.8332 123.702 37.6125 123.608C36.8873 123.317 35.8678 122.89 35.5945 122.556ZM58.2655 132.649C57.9817 132.92 57.6664 133.045 57.288 133.034C57.2249 132.816 57.267 132.587 57.3931 132.337L57.4982 132.378C57.761 132.472 58.0132 132.566 58.2655 132.649ZM56.8676 132.972C56.752 132.941 56.6363 132.899 56.5102 132.847L54.9021 132.18C52.8736 131.337 50.7821 130.472 48.7115 129.639C47.5133 129.16 46.2941 128.66 45.1169 128.181C43.6034 127.566 42.0479 126.931 40.5029 126.316C39.3573 125.858 39.1155 125.4 39.1786 124.754C40.1665 125.191 41.1335 125.598 42.1425 126.025L42.5104 126.181C43.9713 126.795 45.3902 127.379 46.7566 127.941C48.5854 128.691 50.4773 129.472 52.4427 130.316L52.8631 130.503C54.1454 131.055 55.722 131.732 57.0042 132.201C56.8886 132.462 56.8361 132.722 56.8676 132.972ZM100.601 144.637C97.8371 144.627 94.3792 144.575 91.0474 144.523C87.9363 144.481 84.7201 144.429 82.0505 144.408C82.0085 144.408 81.9664 144.408 81.9244 144.408C81.9034 144.408 81.8929 144.408 81.8718 144.408C80.4004 144.398 77.3629 143.95 71.1512 141.981C69.953 141.596 68.5657 141.159 67.0311 140.669C59.1694 138.18 48.3962 134.763 43.0674 132.587C40.9338 131.712 38.632 130.555 37.7281 128.524C37.1711 127.264 37.0765 126.212 37.0975 124.598C37.0975 124.296 37.0344 124.046 36.6456 123.65C36.8873 123.764 37.1501 123.879 37.4338 123.994C37.6546 124.087 37.8543 124.171 38.0119 124.244C38.2852 124.369 38.5479 124.494 38.8107 124.608C38.6636 125.618 39.1155 126.223 40.3768 126.723C41.9218 127.327 43.4773 127.962 44.9803 128.587C46.1575 129.066 47.3767 129.566 48.5749 130.045C50.6454 130.868 52.737 131.743 54.7655 132.576L56.3736 133.243C56.7204 133.389 57.0357 133.461 57.3405 133.461C57.824 133.461 58.2549 133.274 58.6228 132.909C58.6543 132.878 58.6649 132.847 58.6754 132.816C59.4426 133.076 60.2414 133.347 61.1033 133.586C61.2399 133.628 61.3765 133.67 61.5132 133.701C62.396 133.951 63.1108 133.805 63.5102 133.284C63.6993 133.034 63.9516 132.951 64.3195 133.024H64.33C64.3405 133.024 64.351 133.024 64.3615 133.034C64.4035 133.045 64.4561 133.055 64.5086 133.066C66.39 133.586 68.2714 134.17 70.1002 134.743C71.3194 135.118 72.5806 135.503 73.8209 135.878C78.5716 137.284 98.163 142.836 103.008 144.2C103.534 144.346 104.543 144.606 105.93 144.96C104.049 144.69 102.094 144.637 100.601 144.637ZM136.883 152.043C121.37 148.314 105.804 144.544 103.103 143.783C98.2576 142.419 78.6662 136.867 73.926 135.461C72.6857 135.097 71.4245 134.711 70.2053 134.326C68.3765 133.764 66.4741 133.17 64.5927 132.649C64.5507 132.639 64.4771 132.618 64.393 132.607C63.7729 132.441 62.1123 131.899 61.366 130.868C61.4817 130.93 61.5762 130.972 61.6393 130.993C65.6753 132.368 69.7113 133.607 72.7803 134.545C80.3583 136.857 88.1045 138.971 95.3882 140.95C103.607 143.179 112.363 145.45 122.137 147.877C126.72 149.012 131.744 150.252 136.999 151.512C141.981 152.71 147.183 153.928 152.428 155.105C157.4 156.22 162.749 157.418 168.225 158.553L168.478 158.605C173.964 159.751 179.64 160.938 185.252 161.948C187.606 162.365 189.719 162.75 191.863 163.032C191.853 163.261 191.853 163.5 191.853 163.729C189.057 163.49 186.282 163.042 183.896 162.646C179.44 161.896 174.847 161.126 170.39 160.032C170.38 160.032 170.369 160.032 170.359 160.021C170.338 160.021 170.317 160.011 170.296 160.011C170.275 160.011 170.254 160.001 170.222 159.99C167.374 159.334 152.155 155.709 136.883 152.043ZM306.406 118.65C306.385 118.671 306.364 118.692 306.343 118.702L249.145 173.614C248.851 173.874 248.556 174.145 248.251 174.416C244.867 177.457 241.367 180.592 237.047 180.717C233.905 180.801 226.653 179.28 221.849 178.259C220.525 177.978 219.358 177.739 218.423 177.551V177.541C218.402 177.541 218.297 177.52 218.129 177.489C218.076 177.478 218.003 177.468 217.94 177.457C217.677 177.405 217.319 177.343 216.878 177.259C199.315 174.083 193.44 172.968 191.905 172.645C191.769 172.614 191.643 172.583 191.516 172.562H191.506C189.383 172.093 188.111 171.77 186.125 170.781C184.968 170.198 178.841 166.354 178.032 165.813C177.947 165.76 170.475 160.98 167.353 159.73C168.667 160.042 169.634 160.261 170.17 160.386C170.212 160.396 170.264 160.407 170.306 160.417C174.773 161.511 179.398 162.292 183.865 163.052C186.272 163.459 189.067 163.907 191.905 164.146C191.916 164.25 191.926 164.354 191.937 164.459C192.073 165.677 192.305 166.552 194.07 166.74C194.796 166.823 195.51 166.896 196.215 166.969C196.257 167.854 197.024 168.562 197.76 168.666C200.377 169.041 203.046 169.343 205.632 169.646C206.252 169.718 206.872 169.791 207.503 169.864C208.806 170.01 210.109 170.166 211.413 170.333C213.946 170.635 216.563 170.958 219.148 171.218C219.663 171.27 220.189 171.333 220.693 171.406C221.219 171.468 221.755 171.541 222.291 171.593C222.333 171.593 222.375 171.604 222.427 171.604C222.764 171.604 223.1 171.479 223.373 171.25C223.678 171 223.878 170.635 223.951 170.218C225.56 170.416 226.968 170.604 227.777 170.729C227.788 170.729 227.798 170.729 227.809 170.729C229.144 170.895 230.573 171.041 232.108 171.041C232.938 171.041 233.8 171 234.693 170.895C236.921 170.645 239.517 170.208 241.977 168.885C243.522 168.052 244.741 166.854 245.918 165.688C246.255 165.354 246.601 165.021 246.948 164.688C248.02 163.677 249.092 162.677 250.164 161.667C252.004 159.938 253.906 158.147 255.798 156.397C259.487 152.97 263.229 149.47 266.844 146.085C268.757 144.294 270.681 142.502 272.594 140.711C274.675 138.763 276.787 136.784 278.826 134.857C280.907 132.899 283.062 130.878 285.185 128.889C288.611 125.681 292.879 121.65 297.009 117.744C301.245 113.734 305.617 109.599 309.201 106.256C309.191 106.329 309.191 106.391 309.191 106.454C309.191 106.558 309.191 106.662 309.191 106.766L309.212 112.422C309.117 115.515 308.466 116.661 306.406 118.65ZM312.06 101.579C312.029 101.839 311.755 102.558 311.535 102.923C311.535 102.933 311.524 102.933 311.524 102.944C311.272 103.329 310.147 104.62 309.727 105.037C309.601 105.162 309.496 105.318 309.401 105.495C309.391 105.506 309.38 105.506 309.38 105.516C305.712 108.933 301.129 113.276 296.694 117.463C292.574 121.369 288.307 125.4 284.87 128.597C282.747 130.576 280.592 132.607 278.511 134.566C276.472 136.482 274.359 138.471 272.278 140.419C270.365 142.211 268.442 144.002 266.529 145.794C262.914 149.179 259.182 152.668 255.493 156.105C253.612 157.855 251.709 159.646 249.86 161.375C248.788 162.386 247.715 163.396 246.643 164.396C246.297 164.729 245.939 165.063 245.603 165.396C244.447 166.542 243.238 167.719 241.746 168.521C239.349 169.812 236.795 170.239 234.609 170.479C232.034 170.77 229.764 170.562 227.704 170.291C227.704 170.291 227.693 170.291 227.683 170.291C227.672 170.291 227.662 170.291 227.651 170.291C227.514 170.01 227.462 169.531 227.472 169.177C227.472 168.989 227.472 168.812 227.472 168.625C228.303 168.854 229.354 168.927 229.858 168.948C230.573 168.979 231.288 169 232.013 169C236.364 169 240.758 168.208 244.436 164.521C247.211 161.74 250.143 159.022 252.992 156.397C254.537 154.98 256.124 153.501 257.679 152.043C260.864 149.022 263.481 146.575 265.898 144.325C268.915 141.523 271.963 138.669 274.916 135.899C276.388 134.513 277.87 133.128 279.341 131.753C281.612 129.628 283.903 127.472 286.131 125.379C288.17 123.462 290.199 121.546 292.238 119.64C295.622 116.463 299.658 112.599 303.557 108.86C306.605 105.943 309.485 103.183 312.071 100.735C312.071 100.746 312.071 100.746 312.071 100.756C312.092 100.996 312.092 101.308 312.06 101.579ZM312.092 100.183C309.433 102.694 306.448 105.558 303.294 108.578C299.395 112.318 295.359 116.182 291.975 119.359C289.936 121.265 287.897 123.181 285.868 125.098C283.651 127.191 281.349 129.358 279.079 131.472C277.597 132.857 276.125 134.243 274.654 135.628C271.7 138.398 268.652 141.263 265.636 144.054C263.218 146.304 260.601 148.752 257.417 151.772C255.872 153.241 254.274 154.709 252.739 156.126C249.891 158.751 246.948 161.469 244.173 164.261C240.001 168.448 234.851 168.802 229.911 168.573C229.511 168.552 228.345 168.479 227.515 168.229C227.525 167.302 227.557 166.365 227.578 165.458C227.609 164.448 227.63 163.407 227.641 162.365C227.651 161.834 227.651 161.313 227.662 160.792C227.683 159.303 227.693 157.772 227.693 156.241C228.86 156.563 230.573 156.741 232.454 156.741C236.049 156.741 240.253 156.105 242.513 154.647C245.193 152.918 248.977 150.345 251.772 147.908C255.02 145.075 258.783 141.773 262.409 138.471C265.846 135.347 269.325 132.159 272.688 129.087C275.852 126.202 279.121 123.212 282.337 120.275C285.385 117.505 288.422 114.63 291.365 111.849C294.182 109.182 297.104 106.433 300.015 103.766C303.463 100.621 308.455 96.0692 312.186 92.6945C312.134 96.3087 312.102 99.0376 312.092 100.183ZM312.26 87.3512C312.239 88.8407 312.218 90.2676 312.197 91.58C308.413 94.9963 303.084 99.85 299.458 103.162C296.536 105.829 293.614 108.589 290.798 111.255C287.855 114.026 284.817 116.901 281.78 119.671C278.553 122.608 275.284 125.598 272.131 128.483C268.768 131.566 265.278 134.743 261.852 137.867C258.226 141.169 254.463 144.46 251.226 147.293C248.472 149.7 244.731 152.241 242.061 153.96C238.813 156.053 230.783 156.376 227.672 155.386C227.672 153.074 227.746 150.585 227.819 148.179C227.84 147.554 227.851 146.919 227.872 146.294C228.156 146.325 228.46 146.356 228.776 146.387C230.689 146.596 233.074 146.846 235.219 146.846C236.322 146.846 237.363 146.783 238.235 146.606C241.903 145.877 244.436 144.617 246.465 142.523C247.905 141.034 249.481 139.638 251.005 138.273C251.51 137.815 252.025 137.367 252.529 136.909C255.357 134.347 258.215 131.732 260.99 129.191C262.251 128.035 263.513 126.889 264.774 125.733C267.128 123.587 269.504 121.306 271.805 119.098C274.139 116.859 276.546 114.547 278.931 112.37C281.496 110.026 284.05 107.714 286.593 105.402C289.715 102.569 292.942 99.6417 296.137 96.7149L298.123 94.9026C302.559 90.8509 308.035 85.841 312.344 81.8517C312.323 83.2058 312.291 85.1952 312.26 87.3512ZM312.365 80.1748C312.365 80.1852 312.365 80.1852 312.365 80.1957C312.365 80.3206 312.354 80.706 312.354 81.2997C308.014 85.3306 302.38 90.4759 297.85 94.611L295.864 96.4337C292.668 99.3605 289.442 102.287 286.32 105.12C283.777 107.433 281.233 109.745 278.658 112.088C276.262 114.276 273.855 116.588 271.522 118.827C269.23 121.025 266.855 123.306 264.501 125.452C263.239 126.608 261.978 127.754 260.717 128.91C257.953 131.441 255.094 134.066 252.256 136.617C251.751 137.076 251.247 137.534 250.732 137.982C249.197 139.346 247.621 140.752 246.17 142.252C244.205 144.283 241.735 145.502 238.162 146.21C235.629 146.71 231.687 146.294 228.818 145.992C228.492 145.96 228.177 145.919 227.882 145.898C227.914 144.835 227.935 143.773 227.945 142.752C227.956 142.294 228.019 140.93 228.629 140.159C230.142 140.513 231.908 140.7 233.663 140.7C234.599 140.7 235.544 140.648 236.438 140.544C240.432 140.075 243.364 138.878 245.666 136.774C247.968 134.67 250.28 132.576 252.582 130.472C255.64 127.681 258.709 124.9 261.768 122.108C263.954 120.109 266.151 118.109 268.347 116.119C272.51 112.328 276.808 108.412 281.023 104.548C283.903 101.912 286.835 99.2355 289.673 96.6524C291.628 94.8713 293.583 93.1007 295.527 91.3196C297.209 89.7781 299.027 88.122 300.898 86.4242C304.325 83.2995 307.867 80.0707 310.978 77.2168C310.988 77.2376 310.999 77.248 311.009 77.2688C311.177 77.5709 311.44 77.9146 311.692 78.2479C311.85 78.4667 312.06 78.7375 312.123 78.852C312.302 79.1645 312.375 79.5499 312.365 80.1748Z" fill="#8E949B"/>
<path d="M290.283 60.6772C290.294 60.6772 290.294 60.6772 290.304 60.6772C290.578 60.6667 290.798 60.5522 290.945 60.3334C291.124 60.0626 291.019 59.6564 290.872 59.5002C290.662 59.271 290.367 59.1461 290.041 59.1356C289.747 59.1252 289.474 59.2085 289.316 59.3648C289.043 59.6148 289.222 60.0731 289.285 60.1668C289.495 60.4688 289.915 60.6772 290.283 60.6772ZM289.579 59.6564C289.642 59.5939 289.8 59.5314 289.989 59.5314C289.999 59.5314 290.01 59.5314 290.02 59.5314C290.168 59.5418 290.388 59.5835 290.567 59.771C290.62 59.8231 290.662 60.021 290.599 60.1147C290.525 60.2189 290.43 60.2709 290.294 60.2709C290.052 60.2709 289.747 60.1251 289.611 59.9376C289.569 59.8751 289.548 59.6877 289.579 59.6564Z" fill="#8E949B"/>
<path d="M279.342 58.4484L279.384 58.4589C280.666 58.7505 281.98 59.0005 283.252 59.2504C284.513 59.49 285.827 59.74 287.099 60.0316C287.288 60.0733 287.487 60.1149 287.687 60.1149C287.887 60.1149 288.076 60.0733 288.223 59.9691C288.328 59.8858 288.444 59.74 288.454 59.4796C288.549 58.7401 287.256 58.5109 286.121 58.3026C285.911 58.261 285.711 58.2297 285.554 58.1985C283.756 57.8131 282.085 57.5006 280.319 57.1673L279.783 57.0631C279.331 56.9798 278.995 57.0215 278.774 57.1881C278.638 57.2923 278.554 57.4589 278.554 57.6464C278.512 58.2609 278.953 58.3547 279.342 58.4484ZM279.016 57.4902C279.079 57.4381 279.205 57.4069 279.352 57.4069C279.457 57.4069 279.573 57.4173 279.699 57.4381L280.235 57.5423C282.001 57.8756 283.672 58.188 285.459 58.5734C285.627 58.6047 285.827 58.6463 286.037 58.6776C286.71 58.8026 288.097 59.0421 288.034 59.4067C288.034 59.4171 288.034 59.4275 288.034 59.4379C288.034 59.5629 287.992 59.6046 287.96 59.6358C287.845 59.7296 287.582 59.7191 287.172 59.6358C285.89 59.3442 284.576 59.0942 283.315 58.8546C282.054 58.6151 280.74 58.3651 279.468 58.0735L279.426 58.0631C279.006 57.9693 278.932 57.9276 278.942 57.6568C278.953 57.5527 278.995 57.511 279.016 57.4902Z" fill="#8E949B"/>
<path d="M217.981 112.255L218.024 112.265C219.306 112.557 220.62 112.807 221.891 113.057C223.153 113.297 224.466 113.547 225.738 113.838C225.927 113.88 226.127 113.922 226.327 113.922C226.526 113.922 226.716 113.88 226.863 113.776C226.968 113.692 227.084 113.547 227.094 113.286C227.189 112.547 225.896 112.318 224.761 112.109C224.55 112.068 224.351 112.036 224.193 112.005C222.396 111.62 220.725 111.307 218.959 110.974L218.423 110.87C217.971 110.786 217.635 110.828 217.414 110.995C217.277 111.099 217.193 111.266 217.193 111.453C217.151 112.068 217.593 112.161 217.981 112.255ZM217.656 111.297C217.719 111.245 217.845 111.214 217.992 111.214C218.097 111.214 218.213 111.224 218.339 111.245L218.875 111.349C220.641 111.682 222.312 111.995 224.099 112.38C224.267 112.411 224.466 112.453 224.677 112.484C225.349 112.609 226.737 112.849 226.674 113.213C226.674 113.224 226.674 113.234 226.674 113.245C226.674 113.37 226.632 113.411 226.6 113.442C226.484 113.536 226.222 113.526 225.812 113.442C224.529 113.151 223.216 112.901 221.954 112.661C220.693 112.422 219.379 112.172 218.108 111.88L218.066 111.87C217.645 111.776 217.572 111.734 217.582 111.463C217.593 111.359 217.624 111.318 217.656 111.297Z" fill="#8E949B"/>
<path d="M218.771 110.433L218.813 110.443C220.095 110.735 221.409 110.985 222.68 111.235C223.942 111.474 225.255 111.724 226.527 112.016C226.716 112.058 226.916 112.099 227.116 112.099C227.316 112.099 227.505 112.058 227.652 111.953C227.757 111.87 227.873 111.724 227.883 111.464C227.978 110.724 226.685 110.495 225.55 110.287C225.34 110.245 225.14 110.214 224.982 110.183C223.185 109.797 221.514 109.485 219.748 109.152L219.212 109.048C218.76 108.964 218.424 109.006 218.203 109.173C218.066 109.277 217.982 109.443 217.982 109.631C217.94 110.245 218.382 110.349 218.771 110.433ZM218.445 109.475C218.508 109.422 218.634 109.391 218.781 109.391C218.886 109.391 219.002 109.402 219.128 109.422L219.664 109.527C221.43 109.86 223.101 110.162 224.888 110.558C225.056 110.589 225.255 110.631 225.466 110.662C226.138 110.787 227.526 111.026 227.463 111.391C227.463 111.401 227.463 111.412 227.463 111.422C227.463 111.547 227.421 111.589 227.389 111.62C227.273 111.714 227.011 111.704 226.601 111.62C225.319 111.329 224.005 111.079 222.743 110.839C221.482 110.599 220.168 110.349 218.897 110.058L218.855 110.047C218.434 109.954 218.361 109.912 218.371 109.641C218.382 109.547 218.413 109.506 218.445 109.475Z" fill="#8E949B"/>
<path d="M277.04 57.8842C277.05 57.8842 277.05 57.8842 277.061 57.8842C277.334 57.8738 277.555 57.7592 277.702 57.5405C277.881 57.2697 277.776 56.8635 277.618 56.7072C277.408 56.4781 277.113 56.3531 276.798 56.3427C276.514 56.3323 276.231 56.4156 276.062 56.5718C275.789 56.8218 275.968 57.2801 276.031 57.3738C276.252 57.6655 276.672 57.8842 277.04 57.8842ZM276.336 56.853C276.399 56.7905 276.556 56.7281 276.746 56.7281C276.756 56.7281 276.767 56.7281 276.777 56.7281C276.924 56.7385 277.145 56.7801 277.313 56.9676C277.366 57.0197 277.408 57.2176 277.345 57.3113C277.271 57.4155 277.176 57.4676 277.04 57.4676H277.029C276.788 57.4676 276.493 57.3113 276.357 57.1343C276.336 57.0718 276.304 56.8843 276.336 56.853Z" fill="#8E949B"/>
<path d="M229.07 113.912C229.081 113.912 229.081 113.912 229.091 113.912C229.364 113.901 229.585 113.787 229.732 113.568C229.911 113.297 229.806 112.891 229.648 112.735C229.438 112.505 229.144 112.38 228.828 112.37C228.545 112.36 228.261 112.443 228.093 112.599C227.819 112.849 227.998 113.307 228.061 113.401C228.282 113.693 228.692 113.912 229.07 113.912ZM228.366 112.891C228.429 112.828 228.587 112.766 228.776 112.766C228.786 112.766 228.797 112.766 228.807 112.766C228.954 112.776 229.175 112.818 229.343 113.005C229.396 113.057 229.438 113.255 229.385 113.349C229.312 113.453 229.217 113.505 229.081 113.505C228.839 113.516 228.534 113.359 228.397 113.172C228.355 113.11 228.324 112.922 228.366 112.891Z" fill="#8E949B"/>
<path d="M216.069 110.818C216.08 110.818 216.08 110.818 216.09 110.818C216.363 110.807 216.584 110.693 216.731 110.474C216.91 110.203 216.805 109.797 216.647 109.641C216.437 109.412 216.143 109.287 215.827 109.276C215.544 109.266 215.26 109.349 215.092 109.505C214.818 109.755 214.997 110.214 215.06 110.307C215.281 110.599 215.701 110.818 216.069 110.818ZM215.375 109.787C215.439 109.724 215.596 109.662 215.785 109.662C215.796 109.662 215.806 109.662 215.817 109.662C215.964 109.672 216.185 109.714 216.353 109.901C216.405 109.953 216.448 110.151 216.395 110.245C216.321 110.349 216.227 110.401 216.09 110.401C215.848 110.412 215.544 110.255 215.407 110.068C215.365 110.005 215.333 109.828 215.375 109.787Z" fill="#8E949B"/>
<path d="M201.576 149.782C201.586 150.125 201.607 150.469 201.607 150.813C201.618 151.365 201.776 151.75 202.511 151.823C204.445 152.031 206.39 152.25 208.324 152.469C209.995 152.656 211.666 152.844 213.348 153.021C213.663 153.052 213.936 153.083 214.199 153.115C214.83 153.177 215.366 153.229 216.133 153.344C216.354 153.375 216.553 153.396 216.721 153.396C217.026 153.396 217.268 153.344 217.457 153.188C217.699 152.99 217.814 152.656 217.825 152.115C217.909 149.584 217.878 147.084 217.836 145.188C217.814 144.293 217.131 144.23 216.721 144.199C212.297 143.782 207.809 143.282 203.468 142.793L202.427 142.678C202.186 142.647 201.828 142.616 201.555 142.959C201.523 142.991 201.513 143.032 201.513 143.084C201.481 145.397 201.492 147.313 201.544 149.115C201.565 149.334 201.576 149.553 201.576 149.782ZM201.933 143.157C202.059 143.043 202.196 143.043 202.417 143.074L203.436 143.189C207.777 143.678 212.276 144.178 216.7 144.595C217.194 144.636 217.436 144.72 217.447 145.199C217.489 147.084 217.52 149.573 217.436 152.104C217.426 152.521 217.352 152.761 217.205 152.886C217.047 153.021 216.753 153.042 216.185 152.958C215.418 152.854 214.872 152.792 214.241 152.729C213.978 152.698 213.705 152.677 213.39 152.646C211.718 152.459 210.037 152.281 208.366 152.084C206.421 151.865 204.487 151.646 202.543 151.438C202.091 151.386 202.017 151.25 202.007 150.813C201.996 150.469 201.986 150.115 201.975 149.771C201.965 149.542 201.954 149.323 201.954 149.094C201.902 147.313 201.891 145.428 201.933 143.157Z" fill="#8E949B"/>
<path d="M222.669 165.989C221.797 165.895 220.862 165.801 219.958 165.718C219.453 165.666 218.949 165.624 218.455 165.572C217.414 165.468 216.384 165.374 215.344 165.27C213.578 165.103 211.76 164.926 209.962 164.728C208.491 164.562 207.03 164.395 205.569 164.229C202.71 163.895 199.757 163.552 196.845 163.26C196.499 163.218 196.099 163.177 195.857 163.395C195.742 163.499 195.679 163.645 195.668 163.822C195.647 164.354 195.889 164.604 196.499 164.666C198.884 164.926 201.365 165.218 203.761 165.51C206.631 165.853 209.584 166.197 212.432 166.499C214.177 166.676 215.806 166.832 217.383 166.989C218.991 167.145 220.662 167.301 222.449 167.489C222.491 167.489 222.533 167.499 222.575 167.499C222.806 167.499 223.006 167.405 223.142 167.228C223.311 167.01 223.342 166.687 223.227 166.416C223.132 166.176 222.922 166.02 222.669 165.989ZM222.827 166.978C222.754 167.062 222.648 167.103 222.512 167.082C222.512 167.082 222.512 167.082 222.501 167.082C220.704 166.895 219.043 166.739 217.425 166.582C215.848 166.437 214.219 166.28 212.474 166.093C209.626 165.801 206.673 165.447 203.803 165.103C201.407 164.822 198.926 164.52 196.541 164.26C196.099 164.218 196.068 164.093 196.078 163.833C196.078 163.749 196.11 163.708 196.131 163.697C196.194 163.645 196.309 163.635 196.435 163.635C196.562 163.635 196.709 163.645 196.835 163.666C199.725 163.968 202.679 164.301 205.527 164.635C206.988 164.801 208.449 164.968 209.92 165.135C211.718 165.333 213.546 165.51 215.302 165.676C216.332 165.77 217.372 165.874 218.402 165.978C218.886 166.03 219.39 166.072 219.905 166.124C220.809 166.208 221.734 166.301 222.606 166.395C222.743 166.416 222.817 166.499 222.848 166.572C222.922 166.707 222.911 166.874 222.827 166.978Z" fill="#8E949B"/>
<path d="M196.478 161.115C198.864 161.375 201.344 161.667 203.741 161.959C206.6 162.302 209.564 162.646 212.401 162.948C214.146 163.125 215.775 163.281 217.352 163.438C218.96 163.594 220.631 163.75 222.418 163.938H222.428C222.46 163.938 222.502 163.948 222.533 163.948C222.765 163.948 222.964 163.854 223.101 163.677C223.269 163.458 223.301 163.136 223.185 162.865C223.08 162.625 222.88 162.469 222.617 162.448C221.745 162.354 220.81 162.261 219.906 162.177C219.401 162.125 218.897 162.084 218.403 162.032C217.362 161.927 216.332 161.834 215.292 161.729C213.526 161.563 211.708 161.386 209.91 161.188C208.439 161.021 206.978 160.855 205.517 160.688C202.658 160.355 199.705 160.011 196.804 159.719C196.457 159.688 196.058 159.646 195.805 159.855C195.69 159.959 195.616 160.105 195.616 160.282C195.616 160.282 195.616 160.282 195.616 160.292C195.627 160.802 195.879 161.052 196.478 161.115ZM196.058 160.282C196.058 160.198 196.089 160.157 196.11 160.146C196.226 160.042 196.552 160.084 196.814 160.105C199.705 160.407 202.658 160.74 205.506 161.073C206.967 161.24 208.428 161.417 209.9 161.573C211.697 161.771 213.526 161.948 215.292 162.115C216.322 162.209 217.362 162.313 218.392 162.417C218.876 162.469 219.38 162.511 219.895 162.563C220.789 162.646 221.724 162.74 222.596 162.834C222.733 162.854 222.807 162.938 222.838 163.011C222.901 163.146 222.88 163.313 222.796 163.417C222.723 163.5 222.617 163.542 222.481 163.521C222.481 163.521 222.481 163.521 222.47 163.521C222.46 163.521 222.449 163.521 222.449 163.521C220.662 163.333 219.002 163.177 217.394 163.021C215.817 162.875 214.188 162.719 212.443 162.531C209.606 162.24 206.642 161.886 203.783 161.542C201.386 161.261 198.906 160.959 196.51 160.698C196.089 160.667 196.047 160.552 196.058 160.282Z" fill="#8E949B"/>
<path d="M196.477 157.47C198.863 157.73 201.344 158.022 203.751 158.303C206.609 158.647 209.573 159.001 212.411 159.292C214.156 159.48 215.785 159.626 217.372 159.782C218.98 159.938 220.641 160.095 222.417 160.282C222.417 160.282 222.417 160.282 222.427 160.282C222.438 160.282 222.449 160.282 222.459 160.282C222.491 160.282 222.522 160.292 222.554 160.292C222.785 160.292 222.985 160.199 223.121 160.022C223.289 159.803 223.321 159.48 223.216 159.209C223.111 158.97 222.911 158.813 222.648 158.793C221.765 158.699 220.83 158.605 219.926 158.522C219.422 158.47 218.928 158.428 218.444 158.376C217.404 158.272 216.374 158.178 215.333 158.074C213.567 157.907 211.749 157.73 209.952 157.532C208.491 157.366 207.03 157.199 205.579 157.032C202.72 156.699 199.757 156.355 196.845 156.053C196.498 156.022 196.099 155.98 195.847 156.189C195.731 156.293 195.668 156.439 195.658 156.616V156.626C195.636 157.157 195.878 157.407 196.477 157.47ZM196.057 156.636C196.067 156.553 196.088 156.522 196.109 156.501C196.225 156.407 196.561 156.439 196.814 156.459C199.715 156.761 202.668 157.095 205.537 157.428C206.988 157.595 208.449 157.761 209.91 157.928C211.707 158.126 213.536 158.303 215.291 158.47C216.321 158.563 217.361 158.668 218.392 158.772C218.875 158.824 219.369 158.865 219.873 158.918C220.777 159.001 221.713 159.095 222.596 159.188C222.732 159.199 222.806 159.292 222.837 159.365C222.89 159.501 222.879 159.667 222.795 159.772C222.732 159.855 222.627 159.897 222.491 159.876C222.491 159.876 222.491 159.876 222.48 159.876C220.693 159.688 219.022 159.532 217.414 159.376C215.837 159.23 214.198 159.074 212.464 158.886C209.626 158.584 206.662 158.241 203.803 157.897C201.407 157.616 198.916 157.314 196.53 157.053C196.088 157.022 196.046 156.907 196.057 156.636Z" fill="#8E949B"/>
<path d="M139.396 28.1478C139.406 28.1478 139.406 28.1478 139.417 28.1478C139.69 28.1374 139.911 28.0228 140.058 27.8041C140.236 27.5333 140.131 27.127 139.984 26.9708C139.774 26.7417 139.48 26.6167 139.154 26.6063C138.86 26.5958 138.586 26.6896 138.429 26.8354C138.155 27.0854 138.334 27.5437 138.397 27.6374C138.607 27.9291 139.028 28.1478 139.396 28.1478ZM138.691 27.127C138.702 27.127 138.702 27.127 138.691 27.127C138.754 27.0645 138.912 27.0021 139.101 27.0021C139.112 27.0021 139.122 27.0021 139.133 27.0021C139.28 27.0125 139.501 27.0541 139.679 27.2416C139.732 27.2937 139.774 27.4916 139.711 27.5853C139.637 27.6895 139.543 27.7416 139.406 27.7416C139.164 27.752 138.86 27.5957 138.723 27.4083C138.691 27.3354 138.66 27.1583 138.691 27.127Z" fill="#8E949B"/>
<path d="M126.647 24.804C126.657 24.804 126.657 24.804 126.668 24.804C126.941 24.7936 127.162 24.679 127.309 24.4603C127.487 24.1895 127.382 23.7833 127.235 23.6271C127.025 23.3979 126.731 23.2729 126.405 23.2625C126.11 23.2521 125.837 23.3458 125.68 23.4917C125.406 23.7416 125.585 24.1999 125.648 24.2937C125.858 24.5853 126.279 24.804 126.647 24.804ZM125.942 23.7729C125.953 23.7729 125.953 23.7729 125.942 23.7729C126.005 23.7104 126.163 23.6479 126.352 23.6479C126.363 23.6479 126.373 23.6479 126.384 23.6479C126.531 23.6583 126.752 23.7 126.93 23.8874C126.983 23.9395 127.025 24.1374 126.962 24.2312C126.888 24.3353 126.794 24.3874 126.657 24.3874C126.415 24.3978 126.11 24.2416 125.974 24.0541C125.942 23.9916 125.911 23.8041 125.942 23.7729Z" fill="#8E949B"/>
<path d="M71.3826 76.519C71.3931 76.519 71.3931 76.519 71.4036 76.519C71.6769 76.519 71.8976 76.394 72.0448 76.1752C72.2234 75.9044 72.1183 75.4982 71.9607 75.342C71.7505 75.1128 71.4562 74.9878 71.1409 74.9774C70.8466 74.967 70.5733 75.0503 70.4051 75.2066C70.1319 75.4566 70.3106 75.9148 70.3736 76.0086C70.5943 76.3002 71.0147 76.519 71.3826 76.519ZM70.6889 75.4878C70.752 75.4253 70.9096 75.3628 71.0988 75.3628C71.1093 75.3628 71.1198 75.3628 71.1304 75.3628C71.2775 75.3628 71.4982 75.4149 71.6769 75.6024C71.7295 75.6545 71.7715 75.8524 71.7084 75.9461C71.6349 76.0503 71.5403 76.1023 71.4036 76.1023C71.1619 76.1023 70.8571 75.9565 70.7205 75.769C70.6994 75.7274 70.6784 75.6232 70.6784 75.5607C70.6679 75.5295 70.6784 75.5086 70.6889 75.4878Z" fill="#8E949B"/>
<path d="M60.4411 74.2792L60.4831 74.2896C61.7654 74.5812 63.0792 74.8312 64.3405 75.0812C65.6017 75.3207 66.9155 75.5707 68.1873 75.8623C68.3764 75.904 68.5867 75.9457 68.7759 75.9457C68.965 75.9457 69.1647 75.904 69.3119 75.7894C69.417 75.7061 69.5326 75.5603 69.5431 75.2999C69.6377 74.5604 68.3449 74.3312 67.2098 74.1229C66.9996 74.0917 66.7999 74.05 66.6422 74.0188C64.845 73.6334 63.1738 73.3209 61.3975 72.9876L60.8615 72.8835C60.4096 72.8001 60.0732 72.8418 59.8525 73.0084C59.7159 73.1126 59.6318 73.2793 59.6213 73.4667C59.6108 74.0917 60.0522 74.1958 60.4411 74.2792ZM60.0522 73.4876C60.0522 73.3834 60.0943 73.3417 60.1258 73.3209C60.1888 73.2688 60.3045 73.2376 60.4621 73.2376C60.5567 73.2376 60.6828 73.248 60.809 73.2688L61.345 73.373C63.1107 73.7063 64.7819 74.0084 66.5687 74.4041C66.7368 74.4354 66.9365 74.4771 67.1467 74.5187C67.8089 74.6333 69.2068 74.8833 69.1437 75.2478C69.1437 75.2582 69.1437 75.2687 69.1437 75.2791C69.1437 75.4041 69.1017 75.4457 69.0701 75.477C68.9545 75.5707 68.6918 75.5603 68.2819 75.4665C66.9996 75.1749 65.6858 74.9249 64.4245 74.6854C63.1633 74.4458 61.8495 74.1958 60.5777 73.9042L60.5357 73.8938C60.1153 73.7896 60.0417 73.7584 60.0522 73.4876Z" fill="#8E949B"/>
<path d="M128.171 26.3672L128.213 26.3776C129.485 26.7213 130.778 27.0338 132.039 27.3255C133.29 27.6171 134.582 27.9191 135.844 28.2629C136.033 28.3149 136.233 28.3566 136.432 28.367C136.632 28.3774 136.821 28.3462 136.968 28.242C137.073 28.1691 137.199 28.0233 137.22 27.7629C137.347 27.0234 136.064 26.7422 134.94 26.4922C134.73 26.4505 134.54 26.3985 134.383 26.3672C132.606 25.8985 130.946 25.5235 129.191 25.1173L128.655 24.9923C128.203 24.8882 127.866 24.9194 127.646 25.0757C127.498 25.1798 127.414 25.3361 127.404 25.5235C127.351 26.1381 127.782 26.263 128.171 26.3672ZM127.803 25.5548C127.814 25.4506 127.856 25.409 127.887 25.3881C127.95 25.3361 128.076 25.3152 128.224 25.3256C128.318 25.3256 128.444 25.3465 128.56 25.3777L129.096 25.5027C130.841 25.9089 132.501 26.2839 134.278 26.7526C134.446 26.7943 134.645 26.8359 134.856 26.888C135.518 27.0338 136.895 27.3359 136.821 27.7004C136.821 27.7108 136.821 27.7212 136.821 27.7212C136.811 27.8462 136.769 27.8879 136.737 27.9087C136.611 27.9921 136.348 27.9816 135.949 27.8671C134.677 27.5233 133.384 27.2109 132.123 26.9192C130.872 26.6276 129.569 26.3255 128.308 25.9714L128.266 25.961C127.856 25.8673 127.782 25.8256 127.803 25.5548Z" fill="#8E949B"/>
<path d="M128.99 24.5137L129.032 24.5241C130.304 24.8678 131.597 25.1803 132.858 25.4719C134.109 25.7636 135.402 26.0656 136.663 26.4093C136.852 26.4614 137.052 26.5031 137.251 26.5135C137.451 26.5239 137.64 26.4927 137.787 26.3885C137.893 26.3156 138.019 26.1698 138.04 25.9094C138.166 25.1699 136.884 24.8887 135.759 24.6387C135.549 24.597 135.36 24.5449 135.202 24.5137C133.426 24.045 131.765 23.67 130.01 23.2638L129.474 23.1388C129.022 23.0347 128.685 23.0659 128.465 23.2221C128.318 23.3263 128.234 23.4825 128.223 23.67C128.17 24.2846 128.612 24.4095 128.99 24.5137ZM128.633 23.7117C128.643 23.6075 128.686 23.5659 128.717 23.545C128.78 23.493 128.906 23.4721 129.053 23.4825C129.148 23.4825 129.274 23.5034 129.39 23.5346L129.926 23.6596C131.67 24.0658 133.331 24.4408 135.107 24.9095C135.276 24.9512 135.475 24.9928 135.685 25.0449C136.348 25.1907 137.724 25.4928 137.651 25.8573C137.651 25.8677 137.651 25.8781 137.651 25.8781C137.64 26.0031 137.598 26.0448 137.567 26.0656C137.441 26.149 137.178 26.1385 136.779 26.024C135.507 25.6802 134.214 25.3678 132.953 25.0761C131.702 24.7845 130.399 24.4824 129.137 24.1283L129.095 24.1179C128.685 24.0137 128.612 23.9721 128.633 23.7117Z" fill="#8E949B"/>
<path d="M58.1404 73.7162C58.1509 73.7162 58.1509 73.7162 58.1615 73.7162C58.4347 73.7162 58.6554 73.5912 58.8026 73.3725C58.9813 73.1017 58.8761 72.6955 58.7185 72.5392C58.5083 72.3101 58.214 72.1747 57.8987 72.1747C57.6044 72.1643 57.3311 72.2476 57.163 72.4039C56.8897 72.6538 57.0684 73.1121 57.1314 73.2059C57.3521 73.4975 57.7726 73.7162 58.1404 73.7162ZM57.4467 72.6955C57.5098 72.633 57.6675 72.5705 57.8566 72.5705C57.8672 72.5705 57.8777 72.5705 57.8882 72.5705C58.0353 72.5705 58.256 72.6226 58.4242 72.8101C58.4768 72.8621 58.5188 73.06 58.4662 73.1538C58.3927 73.2579 58.2981 73.31 58.1615 73.31C57.9197 73.31 57.6149 73.1642 57.4783 72.9767C57.4362 72.9038 57.4047 72.7267 57.4467 72.6955Z" fill="#8E949B"/>
<path d="M42.2688 110.662C43.6982 111.245 45.1486 111.828 46.557 112.391C48.0495 112.984 49.5945 113.609 51.108 114.224L51.2657 114.286C51.7807 114.495 52.3062 114.713 52.8107 114.88C53.063 114.963 53.2522 115.005 53.4098 115.005C53.5465 115.005 53.6621 114.974 53.7462 114.911C53.9459 114.776 53.9774 114.515 53.9879 114.265C54.0194 112.922 53.9879 111.568 53.9458 110.266C53.9248 109.485 53.9038 108.683 53.9038 107.881C53.8933 107.068 53.1996 106.829 52.7792 106.683L52.7477 106.672C48.8168 105.287 45.3694 103.964 42.2267 102.641C42.0691 102.579 41.7748 102.631 41.5751 102.766C41.3649 102.912 41.2598 103.131 41.2703 103.391C41.2703 103.839 41.2493 104.891 41.2388 106.006C41.2178 107.329 41.2072 108.703 41.2072 109.235C41.1967 110.057 41.5751 110.37 42.2688 110.662ZM41.6382 106.006C41.6487 104.891 41.6697 103.829 41.6697 103.381V103.371C41.6697 103.266 41.7012 103.183 41.7748 103.121C41.8799 103.037 42.0165 103.006 42.0691 103.006H42.0796C45.2327 104.329 48.6801 105.652 52.6215 107.047L52.6531 107.058C53.1471 107.235 53.5044 107.391 53.5044 107.891C53.5149 108.693 53.5359 109.495 53.5465 110.276C53.578 111.578 53.62 112.922 53.5885 114.255C53.5885 114.495 53.5465 114.567 53.5149 114.588C53.4834 114.609 53.3678 114.651 52.9369 114.505C52.4429 114.349 51.9173 114.13 51.4128 113.922L51.2552 113.859C49.7417 113.234 48.1967 112.62 46.7042 112.016C45.2958 111.453 43.8454 110.87 42.4159 110.287C41.7643 110.016 41.5961 109.797 41.5961 109.235C41.6066 108.714 41.6171 107.339 41.6382 106.006Z" fill="#8E949B"/>
<path d="M37.6337 115.39C39.8514 116.296 42.4475 117.265 44.9594 118.212C46.8408 118.921 48.6276 119.587 50.2462 120.223C52.1275 120.962 53.9879 121.681 55.7116 122.347C55.9323 122.431 56.111 122.472 56.2581 122.472C56.5629 122.472 56.7101 122.316 56.7836 122.16C56.9518 121.785 56.8152 121.452 56.4053 121.264C56.3212 121.233 56.1846 121.181 56.0584 121.129C55.9849 121.098 55.9218 121.077 55.8692 121.056C52.033 119.504 47.4609 117.681 42.6892 115.848C41.2072 115.275 39.6832 114.702 38.2223 114.14C37.5496 113.89 37.1292 114.098 37.0031 114.421C36.8875 114.713 37.0556 115.15 37.6337 115.39ZM37.3814 114.546C37.413 114.463 37.5181 114.411 37.6757 114.411C37.7914 114.411 37.928 114.442 38.0857 114.494C39.5466 115.046 41.0601 115.629 42.5526 116.202C47.3138 118.025 51.8858 119.858 55.7221 121.41C55.7747 121.431 55.8482 121.462 55.9218 121.483C56.0374 121.525 56.1635 121.577 56.2371 121.608C56.4789 121.712 56.4788 121.837 56.4158 121.972C56.3632 122.087 56.1741 122.077 55.8587 121.952C54.135 121.285 52.2747 120.566 50.3933 119.827C48.7642 119.191 46.988 118.514 45.0961 117.817C42.5841 116.879 39.988 115.9 37.7808 115.004C37.476 114.89 37.3394 114.682 37.3814 114.546Z" fill="#8E949B"/>
<path d="M37.4765 118.452C39.6942 119.358 42.2902 120.327 44.8022 121.275C46.6836 121.983 48.4704 122.65 50.089 123.285C51.9703 124.025 53.8307 124.743 55.5544 125.41C55.7751 125.493 55.9538 125.535 56.1009 125.535C56.4057 125.535 56.5528 125.379 56.6264 125.222C56.7946 124.848 56.658 124.514 56.2481 124.327C56.164 124.295 56.0273 124.243 55.9012 124.191C55.8276 124.16 55.7646 124.139 55.712 124.118C51.8757 122.577 47.3142 120.744 42.532 118.911C41.05 118.338 39.526 117.765 38.0651 117.202C37.3924 116.952 36.972 117.161 36.8459 117.484C36.7302 117.786 36.8984 118.223 37.4765 118.452ZM37.2242 117.619C37.2558 117.536 37.3609 117.484 37.5185 117.484C37.6341 117.484 37.7708 117.515 37.9284 117.567C39.3894 118.129 40.9029 118.702 42.3953 119.275C47.1671 121.108 51.7286 122.931 55.5649 124.483C55.6174 124.504 55.691 124.535 55.7646 124.556C55.8802 124.598 56.0063 124.65 56.0799 124.681C56.3216 124.785 56.3216 124.91 56.2586 125.045C56.206 125.16 56.0168 125.15 55.7015 125.025C53.9778 124.358 52.1175 123.639 50.2361 122.9C48.607 122.264 46.8307 121.587 44.9389 120.89C42.4269 119.952 39.8308 118.973 37.6236 118.077C37.3083 117.952 37.1717 117.744 37.2242 117.619Z" fill="#8E949B"/>
<path d="M50.0892 126.691C51.9495 127.42 53.8098 128.139 55.5546 128.816C55.7648 128.9 55.954 128.941 56.1011 128.941C56.3533 128.941 56.5215 128.837 56.6161 128.629C56.7843 128.254 56.6476 127.92 56.2377 127.733C56.1537 127.691 56.017 127.639 55.8804 127.598C55.8173 127.566 55.7543 127.545 55.7017 127.525C51.8654 125.983 47.3039 124.15 42.5217 122.317C41.1553 121.796 39.7679 121.265 38.4226 120.744L38.0652 120.609C37.3926 120.359 36.9722 120.567 36.846 120.89C36.7199 121.202 36.8986 121.64 37.4662 121.879C39.6839 122.786 42.2799 123.754 44.7919 124.702C46.6838 125.389 48.46 126.056 50.0892 126.691ZM37.2244 121.025C37.2559 120.942 37.3611 120.89 37.5187 120.89C37.6343 120.89 37.771 120.921 37.9286 120.973L38.286 121.109C39.6313 121.619 41.0292 122.161 42.385 122.681C47.1673 124.515 51.7288 126.337 55.5546 127.889C55.6071 127.91 55.6702 127.931 55.7438 127.962C55.8699 128.004 55.996 128.056 56.0696 128.098C56.3113 128.212 56.3113 128.316 56.2482 128.462C56.1957 128.577 56.0065 128.566 55.6912 128.441C53.9465 127.764 52.0861 127.046 50.2258 126.316C48.5967 125.681 46.8204 125.014 44.9285 124.306C42.4166 123.369 39.8205 122.39 37.6133 121.494C37.3085 121.369 37.1719 121.161 37.2244 121.025Z" fill="#8E949B"/>
</svg>
