<svg width="770" height="455" viewBox="0 0 770 455" fill="none" xmlns="http://www.w3.org/2000/svg">
<path d="M47.4058 161.629L52.4077 157.789" stroke="#F84E4E" stroke-width="0.594386" stroke-miterlimit="10"/>
<path d="M54.9062 155.588L230.632 29.6445" stroke="#F84E4E" stroke-width="0.594386" stroke-miterlimit="10"/>
<path d="M232.985 28.0441L238.16 24.4409" stroke="#F84E4E" stroke-width="0.594386" stroke-miterlimit="10"/>
<path d="M52.3215 163.246L37.0638 169.569L47.1143 156.464L52.3215 163.246Z" fill="#F84E4E"/>
<path d="M237.79 29.7543L248.44 17.1313L232.906 22.7363L237.79 29.7543Z" fill="#F84E4E"/>
<path d="M705.195 114.681L699.086 113.115" stroke="#F84E4E" stroke-width="0.594386" stroke-miterlimit="10"/>
<path d="M692.286 111.919L282.921 18.0566" stroke="#F84E4E" stroke-width="0.594386" stroke-miterlimit="10"/>
<path d="M280.485 17.5076L274.403 15.8477" stroke="#F84E4E" stroke-width="0.594386" stroke-miterlimit="10"/>
<path d="M703.432 109.817L717.823 117.918L701.31 118.098L703.432 109.817Z" fill="#F84E4E"/>
<path d="M278.34 12.491L261.826 12.4155L276.09 20.7385L278.34 12.491Z" fill="#F84E4E"/>
<path d="M735.241 154.01V160.316" stroke="#F84E4E" stroke-width="0.594386" stroke-miterlimit="10"/>
<path d="M735.435 164.215L735.435 260.759" stroke="#F84E4E" stroke-width="0.594386" stroke-miterlimit="10"/>
<path d="M735.241 267.016V273.322" stroke="#F84E4E" stroke-width="0.594386" stroke-miterlimit="10"/>
<path d="M730.965 156.925L735.24 140.973L739.514 156.925H730.965Z" fill="#F84E4E"/>
<path d="M730.965 270.406L735.24 286.359L739.514 270.406H730.965Z" fill="#F84E4E"/>
<path d="M751.078 166.604H762.714V170.673C762.714 171.483 762.574 172.152 762.294 172.678C762.018 173.205 761.644 173.597 761.175 173.854C760.709 174.112 760.192 174.241 759.624 174.241C759.124 174.241 758.711 174.152 758.385 173.974C758.059 173.799 757.802 173.568 757.612 173.281C757.423 172.996 757.283 172.688 757.192 172.354H757.078C757.055 172.71 756.93 173.068 756.703 173.428C756.476 173.788 756.15 174.089 755.726 174.332C755.302 174.574 754.783 174.695 754.169 174.695C753.586 174.695 753.061 174.563 752.595 174.298C752.129 174.032 751.76 173.614 751.487 173.042C751.214 172.47 751.078 171.726 751.078 170.809V166.604ZM752.328 168.013V170.809C752.328 171.729 752.506 172.383 752.862 172.769C753.222 173.159 753.658 173.354 754.169 173.354C754.563 173.354 754.927 173.254 755.26 173.053C755.597 172.853 755.866 172.567 756.067 172.195C756.271 171.824 756.374 171.385 756.374 170.877V168.013H752.328ZM757.601 168.013V170.627C757.601 171.051 757.684 171.434 757.851 171.775C758.018 172.12 758.252 172.392 758.555 172.593C758.858 172.798 759.214 172.9 759.624 172.9C760.135 172.9 760.569 172.722 760.925 172.366C761.285 172.01 761.464 171.445 761.464 170.673V168.013H757.601ZM757.828 179.336V182.654C757.828 183.488 757.692 184.19 757.419 184.762C757.146 185.338 756.762 185.774 756.266 186.069C755.769 186.368 755.184 186.518 754.51 186.518C753.836 186.518 753.241 186.368 752.726 186.069C752.211 185.774 751.807 185.338 751.516 184.762C751.224 184.19 751.078 183.488 751.078 182.654V178.291H762.714V179.7H752.305V182.654C752.305 183.185 752.411 183.633 752.624 184.001C752.839 184.372 753.116 184.652 753.453 184.842C753.794 185.035 754.154 185.132 754.533 185.132C755.089 185.132 755.569 184.918 755.97 184.49C756.375 184.061 756.578 183.45 756.578 182.654V179.336H757.828ZM762.714 189.063H751.078V187.654H762.714V189.063ZM759.078 202.528V201.119C759.483 201.036 759.839 200.89 760.146 200.681C760.453 200.477 760.711 200.227 760.919 199.931C761.131 199.64 761.29 199.316 761.396 198.96C761.502 198.604 761.555 198.233 761.555 197.846C761.555 197.142 761.377 196.503 761.021 195.931C760.665 195.363 760.141 194.911 759.447 194.573C758.754 194.24 757.904 194.073 756.896 194.073C755.889 194.073 755.038 194.24 754.345 194.573C753.652 194.911 753.127 195.363 752.771 195.931C752.415 196.503 752.237 197.142 752.237 197.846C752.237 198.233 752.29 198.604 752.396 198.96C752.502 199.316 752.66 199.64 752.868 199.931C753.08 200.227 753.339 200.477 753.646 200.681C753.957 200.89 754.313 201.036 754.714 201.119V202.528C754.12 202.422 753.588 202.229 753.118 201.948C752.648 201.668 752.249 201.32 751.919 200.903C751.593 200.486 751.345 200.019 751.175 199.5C751.004 198.984 750.919 198.433 750.919 197.846C750.919 196.854 751.161 195.971 751.646 195.198C752.131 194.426 752.821 193.818 753.714 193.375C754.608 192.931 755.669 192.71 756.896 192.71C758.124 192.71 759.184 192.931 760.078 193.375C760.972 193.818 761.661 194.426 762.146 195.198C762.631 195.971 762.874 196.854 762.874 197.846C762.874 198.433 762.788 198.984 762.618 199.5C762.447 200.019 762.197 200.486 761.868 200.903C761.542 201.32 761.144 201.668 760.675 201.948C760.209 202.229 759.677 202.422 759.078 202.528ZM756.896 215.903C755.669 215.903 754.608 215.682 753.714 215.238C752.821 214.795 752.131 214.187 751.646 213.415C751.161 212.642 750.919 211.759 750.919 210.767C750.919 209.774 751.161 208.892 751.646 208.119C752.131 207.346 752.821 206.738 753.714 206.295C754.608 205.852 755.669 205.63 756.896 205.63C758.124 205.63 759.184 205.852 760.078 206.295C760.972 206.738 761.661 207.346 762.146 208.119C762.631 208.892 762.874 209.774 762.874 210.767C762.874 211.759 762.631 212.642 762.146 213.415C761.661 214.187 760.972 214.795 760.078 215.238C759.184 215.682 758.124 215.903 756.896 215.903ZM756.896 214.54C757.904 214.54 758.754 214.371 759.447 214.034C760.141 213.701 760.665 213.248 761.021 212.676C761.377 212.108 761.555 211.471 761.555 210.767C761.555 210.062 761.377 209.424 761.021 208.852C760.665 208.284 760.141 207.831 759.447 207.494C758.754 207.161 757.904 206.994 756.896 206.994C755.889 206.994 755.038 207.161 754.345 207.494C753.652 207.831 753.127 208.284 752.771 208.852C752.415 209.424 752.237 210.062 752.237 210.767C752.237 211.471 752.415 212.108 752.771 212.676C753.127 213.248 753.652 213.701 754.345 214.034C755.038 214.371 755.889 214.54 756.896 214.54ZM761.464 218.432H762.714V227.159H761.464V223.5H751.078V222.091H761.464V218.432ZM751.078 229.732V228.254L762.714 232.527V233.982L751.078 238.254V236.777L760.874 233.3V233.209L751.078 229.732ZM755.624 230.277V236.232H754.374V230.277H755.624Z" fill="#F84E4E"/>
<path d="M88.0832 98.8961L89.2264 98.0723L95.2687 106.464L98.5876 104.073L92.5453 95.6806L93.6885 94.8568L99.7308 103.249L103.05 100.857L97.0075 92.4652L98.1507 91.6414L104.95 101.085L94.8824 108.339L88.0832 98.8961ZM101.481 89.2413L102.606 88.4308L107.958 95.8636L108.05 95.7972L107.861 84.6439L108.967 83.8467L115.767 93.29L114.623 94.1138L109.285 86.6993L109.193 86.7658L109.387 97.8873L108.28 98.6845L101.481 89.2413ZM119.093 90.8932L112.293 81.4499L115.483 79.1512C116.224 78.6175 116.925 78.315 117.588 78.2436C118.252 78.1669 118.86 78.2726 119.413 78.5606C119.966 78.8486 120.442 79.2708 120.843 79.8272C121.243 80.3836 121.494 80.9712 121.594 81.59C121.697 82.2066 121.611 82.8196 121.336 83.4289C121.058 84.0352 120.552 84.603 119.818 85.1322L117.531 86.7798L116.801 85.7654L119.05 84.1444C119.557 83.779 119.901 83.398 120.083 83.0013C120.264 82.6046 120.316 82.2074 120.24 81.8095C120.164 81.4064 119.99 81.0158 119.718 80.6377C119.446 80.2596 119.132 79.9724 118.776 79.7761C118.423 79.5776 118.03 79.5056 117.598 79.5602C117.164 79.6117 116.69 79.8224 116.177 80.1922L114.167 81.6405L120.236 90.0694L119.093 90.8932ZM121.572 74.7639L122.696 73.9534L128.048 81.3863L128.14 81.3198L127.951 70.1666L129.058 69.3693L135.857 78.8126L134.714 79.6364L129.375 72.222L129.283 72.2884L129.477 83.41L128.371 84.2072L121.572 74.7639ZM139.183 76.4158L132.384 66.9726L133.527 66.1488L136.555 70.354L141.588 66.7266L138.56 62.5214L139.704 61.6976L146.503 71.1409L145.36 71.9647L142.319 67.741L137.285 71.3684L140.326 75.592L139.183 76.4158ZM150.217 68.4642L149.019 69.3279L145.686 57.3866L146.866 56.5362L157.132 63.4815L155.933 64.3452L147.389 58.4288L147.315 58.482L150.217 68.4642ZM148.004 64.4565L152.835 60.9753L153.565 61.9897L148.734 65.471L148.004 64.4565Z" fill="#F84E4E"/>
<path d="M467.458 46.1726L468.421 42.22L469.149 42.3976C469.455 42.2305 469.769 41.9659 470.091 41.6038C470.418 41.239 470.744 40.7258 471.069 40.0642C471.398 39.3999 471.72 38.533 472.035 37.4635L473.44 32.7531L480.153 34.3896L477.695 44.481L478.997 44.7986L478.04 48.7291L476.737 48.4115L477.399 45.6954L469.428 43.7521L468.761 46.4902L467.458 46.1726ZM470.783 42.796L476.392 44.1633L478.554 35.2865L474.381 34.2691L473.338 37.7812C473.093 38.5948 472.834 39.323 472.56 39.9659C472.288 40.6051 472.002 41.1613 471.704 41.6343C471.406 42.1037 471.099 42.491 470.783 42.796ZM481.042 46.5837L481.349 45.3251L481.68 45.4058C482.151 45.5207 482.554 45.459 482.889 45.221C483.224 44.9829 483.53 44.541 483.808 43.8953C484.09 43.2505 484.386 42.3774 484.698 41.2758L486.225 35.8701L493.114 37.5497L490.36 48.8555L488.991 48.5217L491.449 38.4304L487.232 37.4022L485.958 41.8638C485.625 43.0381 485.271 44.02 484.895 44.8096C484.52 45.5991 484.062 46.16 483.521 46.492C482.98 46.8241 482.293 46.8888 481.462 46.686L481.042 46.5837ZM497.093 38.5197L498.44 38.8481L496.272 47.747L496.383 47.7739L504.733 40.3823L506.058 40.7053L503.304 52.0111L501.935 51.6774L504.097 42.8005L503.986 42.7736L495.664 50.1485L494.339 49.8255L497.093 38.5197ZM507.287 52.9822L510.04 41.6764L511.409 42.0101L510.183 47.0447L516.211 48.5144L517.437 43.4797L518.806 43.8135L516.053 55.1193L514.684 54.7856L515.915 49.7289L509.887 48.2592L508.656 53.3159L507.287 52.9822ZM520.501 56.2038L519.065 55.8538L525.97 45.5601L527.383 45.9046L528.781 58.2225L527.346 57.8726L526.285 47.5317L526.197 47.5102L520.501 56.2038ZM522.106 51.9166L527.891 53.327L527.596 54.5415L521.81 53.1311L522.106 51.9166Z" fill="#F84E4E"/>
<path d="M36.5283 333.69V327.438" stroke="#F84E4E" stroke-width="0.475299" stroke-miterlimit="10"/>
<path d="M36.4033 325.163L36.4033 284.203" stroke="#F84E4E" stroke-width="0.475299" stroke-miterlimit="10"/>
<path d="M36.5283 282.539V276.287" stroke="#F84E4E" stroke-width="0.475299" stroke-miterlimit="10"/>
<path d="M40.7637 330.801L36.5273 346.617L32.293 330.801H40.7637Z" fill="#F84E4E"/>
<path d="M40.7637 279.178L36.5273 263.363L32.293 279.178H40.7637Z" fill="#F84E4E"/>
<path d="M36.5283 234.465V228.213" stroke="#F84E4E" stroke-width="0.950598" stroke-miterlimit="10"/>
<path d="M36.5283 223.565V207.305" stroke="#F84E4E" stroke-width="0.475299" stroke-miterlimit="10"/>
<path d="M36.5283 204.983V198.73" stroke="#F84E4E" stroke-width="0.475299" stroke-miterlimit="10"/>
<path d="M40.7637 231.572L36.5273 247.387L32.293 231.572H40.7637Z" fill="#F84E4E"/>
<path d="M40.7637 201.621L36.5273 185.805L32.293 201.621H40.7637Z" fill="#F84E4E"/>
<path d="M15.718 365.772C16.9452 365.772 18.0058 365.994 18.8998 366.437C19.7937 366.88 20.4831 367.488 20.968 368.261C21.4528 369.033 21.6952 369.916 21.6952 370.908C21.6952 371.901 21.4528 372.783 20.968 373.556C20.4831 374.329 19.7937 374.937 18.8998 375.38C18.0058 375.823 16.9452 376.045 15.718 376.045C14.4907 376.045 13.4301 375.823 12.5361 375.38C11.6422 374.937 10.9528 374.329 10.468 373.556C9.9831 372.783 9.74068 371.901 9.74068 370.908C9.74068 369.916 9.9831 369.033 10.468 368.261C10.9528 367.488 11.6422 366.88 12.5361 366.437C13.4301 365.994 14.4907 365.772 15.718 365.772ZM15.718 367.136C14.7104 367.136 13.86 367.304 13.1668 367.641C12.4736 367.975 11.949 368.427 11.593 368.999C11.2369 369.568 11.0589 370.204 11.0589 370.908C11.0589 371.613 11.2369 372.251 11.593 372.823C11.949 373.391 12.4736 373.844 13.1668 374.181C13.86 374.515 14.7104 374.681 15.718 374.681C16.7255 374.681 17.5759 374.515 18.2691 374.181C18.9623 373.844 19.4869 373.391 19.843 372.823C20.199 372.251 20.377 371.613 20.377 370.908C20.377 370.204 20.199 369.568 19.843 368.999C19.4869 368.427 18.9623 367.975 18.2691 367.641C17.5759 367.304 16.7255 367.136 15.718 367.136ZM13.5361 352.759V354.168C13.1308 354.252 12.7748 354.397 12.468 354.606C12.1611 354.81 11.9036 355.06 11.6952 355.356C11.4831 355.647 11.324 355.971 11.218 356.327C11.1119 356.683 11.0589 357.055 11.0589 357.441C11.0589 358.146 11.2369 358.784 11.593 359.356C11.949 359.924 12.4736 360.377 13.1668 360.714C13.86 361.047 14.7104 361.214 15.718 361.214C16.7255 361.214 17.5759 361.047 18.2691 360.714C18.9623 360.377 19.4869 359.924 19.843 359.356C20.199 358.784 20.377 358.146 20.377 357.441C20.377 357.055 20.324 356.683 20.218 356.327C20.1119 355.971 19.9547 355.647 19.7464 355.356C19.5342 355.06 19.2748 354.81 18.968 354.606C18.6573 354.397 18.3013 354.252 17.8998 354.168V352.759C18.4945 352.865 19.0267 353.058 19.4964 353.339C19.9661 353.619 20.3657 353.967 20.6952 354.384C21.021 354.801 21.2691 355.269 21.4395 355.788C21.61 356.303 21.6952 356.854 21.6952 357.441C21.6952 358.433 21.4528 359.316 20.968 360.089C20.4831 360.861 19.7937 361.469 18.8998 361.913C18.0058 362.356 16.9452 362.577 15.718 362.577C14.4907 362.577 13.4301 362.356 12.5361 361.913C11.6422 361.469 10.9528 360.861 10.468 360.089C9.9831 359.316 9.74068 358.433 9.74068 357.441C9.74068 356.854 9.82591 356.303 9.99636 355.788C10.1668 355.269 10.4168 354.801 10.7464 354.384C11.0721 353.967 11.4698 353.619 11.9395 353.339C12.4055 353.058 12.9376 352.865 13.5361 352.759ZM21.5361 349.202H9.89977V347.793H15.0816V341.589H9.89977V340.179H21.5361V341.589H16.3316V347.793H21.5361V349.202ZM15.718 326.26C16.9452 326.26 18.0058 326.482 18.8998 326.925C19.7937 327.368 20.4831 327.976 20.968 328.749C21.4528 329.522 21.6952 330.404 21.6952 331.397C21.6952 332.389 21.4528 333.272 20.968 334.044C20.4831 334.817 19.7937 335.425 18.8998 335.868C18.0058 336.311 16.9452 336.533 15.718 336.533C14.4907 336.533 13.4301 336.311 12.5361 335.868C11.6422 335.425 10.9528 334.817 10.468 334.044C9.9831 333.272 9.74068 332.389 9.74068 331.397C9.74068 330.404 9.9831 329.522 10.468 328.749C10.9528 327.976 11.6422 327.368 12.5361 326.925C13.4301 326.482 14.4907 326.26 15.718 326.26ZM15.718 327.624C14.7104 327.624 13.86 327.792 13.1668 328.13C12.4736 328.463 11.949 328.916 11.593 329.487C11.2369 330.056 11.0589 330.692 11.0589 331.397C11.0589 332.101 11.2369 332.739 11.593 333.311C11.949 333.88 12.4736 334.332 13.1668 334.669C13.86 335.003 14.7104 335.169 15.718 335.169C16.7255 335.169 17.5759 335.003 18.2691 334.669C18.9623 334.332 19.4869 333.88 19.843 333.311C20.199 332.739 20.377 332.101 20.377 331.397C20.377 330.692 20.199 330.056 19.843 329.487C19.4869 328.916 18.9623 328.463 18.2691 328.13C17.5759 327.792 16.7255 327.624 15.718 327.624ZM21.5361 322.611H9.89977V318.543C9.89977 317.732 10.0399 317.064 10.3202 316.537C10.5967 316.011 10.9698 315.618 11.4395 315.361C11.9055 315.103 12.4225 314.975 12.9907 314.975C13.4907 314.975 13.9036 315.064 14.2293 315.242C14.5551 315.416 14.8126 315.647 15.002 315.935C15.1914 316.219 15.3316 316.528 15.4225 316.861H15.5361C15.5589 316.505 15.6839 316.147 15.9111 315.787C16.1384 315.427 16.4642 315.126 16.8884 314.884C17.3126 314.641 17.8316 314.52 18.4452 314.52C19.0286 314.52 19.5532 314.653 20.0191 314.918C20.485 315.183 20.8543 315.601 21.127 316.173C21.3998 316.745 21.5361 317.49 21.5361 318.406V322.611ZM20.2861 321.202V318.406C20.2861 317.486 20.1081 316.832 19.752 316.446C19.3922 316.056 18.9566 315.861 18.4452 315.861C18.0513 315.861 17.6876 315.961 17.3543 316.162C17.0172 316.363 16.7483 316.649 16.5475 317.02C16.343 317.391 16.2407 317.831 16.2407 318.338V321.202H20.2861ZM15.0134 321.202V318.588C15.0134 318.164 14.9301 317.781 14.7634 317.44C14.5967 317.096 14.3619 316.823 14.0589 316.622C13.7558 316.418 13.3998 316.315 12.9907 316.315C12.4793 316.315 12.0456 316.493 11.6895 316.85C11.3297 317.206 11.1498 317.77 11.1498 318.543V321.202H15.0134ZM21.5361 310.447V311.925L9.89977 307.652V306.197L21.5361 301.925V303.402L11.7407 306.879V306.97L21.5361 310.447ZM16.9907 309.902V303.947H18.2407V309.902H16.9907ZM21.5361 298.832H9.89977V297.423H15.0816V291.219H9.89977V289.809H21.5361V291.219H16.3316V297.423H21.5361V298.832ZM9.89977 285.708V284.322H19.0589V284.208L9.89977 277.845V276.481H21.5361V277.89H12.3998V278.004L21.5361 284.345V285.708H9.89977ZM21.5361 272.382H9.89977V265.359H11.1498V270.972H15.0816V265.722H16.3316V270.972H20.2861V265.268H21.5361V272.382Z" fill="#F84E4E"/>
<path d="M21.5361 238.865L16.1952 242.865V244.297H21.5361V245.706H9.89977V244.297H14.9452V243.683L9.89977 239.024V237.343L15.0134 242.047L21.5361 237.183V238.865ZM21.5361 234.082H9.89977V230.151C9.89977 229.238 10.0645 228.491 10.3941 227.912C10.7198 227.329 11.1611 226.897 11.718 226.616C12.2748 226.336 12.896 226.196 13.5816 226.196C14.2672 226.196 14.8903 226.336 15.4509 226.616C16.0115 226.893 16.4585 227.321 16.7918 227.901C17.1214 228.48 17.2861 229.223 17.2861 230.128V232.946H16.0361V230.173C16.0361 229.548 15.9282 229.046 15.7123 228.668C15.4964 228.289 15.2047 228.014 14.8373 227.844C14.4661 227.67 14.0475 227.582 13.5816 227.582C13.1157 227.582 12.699 227.67 12.3316 227.844C11.9642 228.014 11.6763 228.291 11.468 228.673C11.2558 229.056 11.1498 229.563 11.1498 230.196V232.673H21.5361V234.082ZM14.7861 221.601V218.283C14.7861 217.449 14.9225 216.747 15.1952 216.175C15.468 215.599 15.8524 215.163 16.3486 214.868C16.8448 214.568 17.4301 214.419 18.1043 214.419C18.7786 214.419 19.3733 214.568 19.8884 214.868C20.4036 215.163 20.807 215.599 21.0986 216.175C21.3903 216.747 21.5361 217.449 21.5361 218.283V222.646H9.89977V221.237H20.3089V218.283C20.3089 217.752 20.2028 217.303 19.9907 216.936C19.7748 216.565 19.4983 216.284 19.1611 216.095C18.8202 215.902 18.4604 215.805 18.0816 215.805C17.5248 215.805 17.0456 216.019 16.6441 216.447C16.2388 216.875 16.0361 217.487 16.0361 218.283V221.601H14.7861ZM9.89977 211.873H21.5361V213.283H9.89977V211.873ZM9.89977 207.772L9.89977 206.363H20.2407L20.2407 202.272H9.89977V200.863H20.2407V196.772H9.89977V195.363H21.5361L21.5361 207.772H9.89977ZM21.5361 184.417L16.1952 188.417V189.849H21.5361V191.258H9.89977V189.849H14.9452V189.235L9.89977 184.576V182.894L15.0134 187.599L21.5361 182.735V184.417ZM21.5361 179.157V180.634L9.89977 176.362V174.907L21.5361 170.634V172.112L11.7407 175.589V175.68L21.5361 179.157ZM16.9907 178.612L16.9907 172.657H18.2407L18.2407 178.612H16.9907Z" fill="#F84E4E"/>
<path d="M707.036 205.316C707.153 196.588 707.247 189.691 707.247 189.081C707.27 187.603 707.153 185.679 706.144 183.896C705.863 183.38 705.394 182.746 704.854 182.042C704.526 181.597 704.15 181.104 703.892 180.705C703.822 178.547 703.775 169.256 703.775 156.259V156.071C703.705 152.739 702.133 149.338 699.083 145.936C696.62 143.191 693.313 141.197 689.747 140.258C689.7 140.235 689.653 140.235 689.606 140.211C687.706 139.695 685.806 139.273 683.695 138.804C682.029 138.452 680.364 138.1 678.698 137.748C678.698 137.724 678.698 137.724 678.698 137.701C678.722 136.762 678.745 135.824 678.745 134.886C678.745 133.149 677.291 132.399 676.822 132.141C676.775 132.117 676.728 132.094 676.681 132.07C673.96 130.498 671.426 129.771 668.963 129.865C668.916 129.865 668.846 129.865 668.799 129.888C668.776 129.888 668.776 129.888 668.752 129.888C668.682 129.888 668.611 129.888 668.565 129.888V129.912C666.266 130.311 662.489 132.61 661.949 132.962L661.598 133.22C661.316 133.408 660.988 133.642 660.917 133.666C660.753 133.712 660.12 133.713 659.791 133.713C658.008 133.572 640.321 129.888 638.163 129.396C617.262 124.539 596.384 120.082 577.946 116.164C572.199 114.944 566.78 113.794 561.784 112.715C549.163 109.993 536.543 107.272 523.946 104.574C453.384 89.3945 380.524 73.7226 314.748 58.4259C314.607 58.4025 314.466 58.3556 314.302 58.3321C313.434 58.1209 312.425 57.8159 311.44 57.511C310.619 57.2529 309.751 56.9948 308.953 56.7837C308.953 56.7602 308.953 56.7133 308.953 56.6898C308.977 55.7514 309 54.8129 309 53.8745C309 52.1384 307.546 51.3876 307.077 51.1296C307.03 51.1061 306.983 51.0826 306.936 51.0592C304.215 49.4873 301.681 48.76 299.218 48.8538C299.171 48.8538 299.125 48.8538 299.078 48.8773C298.984 48.8773 298.89 48.8773 298.796 48.9008V48.9242C296.497 49.2996 292.72 51.6222 292.181 51.9741C291.735 52.2791 291.454 52.4903 291.243 52.6545C291.219 52.6545 291.219 52.678 291.219 52.678C291.149 52.678 291.102 52.678 291.031 52.678C289.178 52.3261 280.452 50.1911 277.027 49.2761C273.673 48.0796 264.031 47.3758 260.067 48.7835C257.604 49.6515 253.358 52.0915 250.801 53.8041C250.754 53.8276 250.707 53.8745 250.613 53.9214C250.566 53.9683 250.496 53.9918 250.449 54.0387C250.379 54.0856 250.308 54.1326 250.215 54.2029C250.003 54.3437 249.816 54.4845 249.652 54.6018C242.755 59.4817 206.583 85.195 171.489 110.134C133.229 137.326 93.6559 165.455 92.2249 166.441C90.5125 167.637 88.3309 169.514 86.8061 171.062C85.7505 172.142 80.5663 177.749 80.5194 182.981C80.2144 186.688 80.2613 193.82 80.3317 200.928C80.3552 203.134 80.3786 205.034 80.3552 205.574C80.2848 206.231 79.8156 206.583 77.8452 207.615C77.5871 207.756 77.3056 207.896 77.0241 208.061C74.0215 209.679 72.3325 211.157 70.5966 213.785C68.6731 216.671 67.7817 221.926 68.0163 225.351C68.0397 227.956 68.0397 232.108 68.0397 236.824C68.0632 247.686 68.0632 261.176 68.1805 265.423C68.1805 265.822 68.1805 266.361 68.1805 267.018C68.157 270.702 68.2039 274.479 69.0015 276.778C69.7287 278.866 72.4029 282.221 75.0067 283.863V283.887C75.0537 283.91 75.0771 283.934 75.124 283.957C75.1475 283.957 75.1709 283.981 75.1709 283.981C75.2648 284.028 75.3351 284.074 75.429 284.121C77.2587 285.154 82.3022 288.579 83.827 289.963C83.827 293.107 84.0381 296.274 85.6332 299.887C88.284 305.917 94.3596 309.107 99.9661 311.407C112.023 316.38 136.162 324.099 153.802 329.73C157.227 330.832 160.324 331.818 162.998 332.686C163.889 332.967 164.71 333.249 165.508 333.507V333.483C175.266 336.51 182.609 338.152 187.394 338.363V338.387C187.558 338.387 187.722 338.387 187.887 338.387C188.098 338.387 188.332 338.387 188.567 338.387C194.525 338.434 201.727 338.528 208.717 338.645C216.177 338.762 223.895 338.856 230.088 338.903C234.451 338.926 240.667 339.091 245.453 340.24V340.264C245.64 340.311 245.992 340.404 246.461 340.522C250.566 341.531 264.665 344.956 282.024 349.202C317.891 357.93 371.962 371.092 376.348 372.241C376.372 372.241 376.419 372.265 376.442 372.265C379.773 373.039 395.748 382.752 400.393 385.872C402.152 387.045 416.016 395.866 418.925 397.344C424.132 399.972 427.416 400.723 432.906 401.943V401.896C436.823 402.787 448.951 405.087 488.782 412.36C489.791 412.547 490.612 412.688 491.199 412.805C491.339 412.829 491.48 412.852 491.597 412.876C493.732 413.298 496.547 413.885 499.761 414.565C510.997 416.958 526.268 420.196 534.056 420.196C534.291 420.196 534.526 420.196 534.737 420.196C546.043 419.891 554.864 411.89 562.652 404.829C563.309 404.242 563.942 403.656 564.575 403.092L564.693 402.975L692.539 279.101C697.746 274.033 699.928 270.49 700.139 261.904V261.88L700.092 249.094C700.092 248.859 700.092 248.625 700.092 248.414C700.116 248.367 700.116 248.32 700.139 248.296C700.772 247.639 703.681 244.449 704.713 242.806C704.737 242.76 704.784 242.689 704.807 242.642C704.831 242.595 704.878 242.548 704.901 242.478C704.924 242.431 704.948 242.384 704.971 242.337C705.605 241.117 706.379 239.17 706.52 237.856C706.59 237.058 706.637 236.214 706.613 235.463C706.613 235.416 706.613 235.369 706.613 235.322C706.66 233.375 706.871 217.21 707.036 205.316ZM674.241 135.918C674.241 136.481 674.218 137.044 674.218 137.584C674.195 138.006 674.195 138.452 674.171 138.874C674.101 139.484 674.171 140.024 674.382 140.469C672.81 140.117 671.004 139.719 669.174 139.343C669.432 138.287 670.3 137.208 671.45 136.504C672.412 135.918 673.444 135.707 674.241 135.918ZM664.154 136.927L664.506 136.692C665.656 135.918 668.377 134.557 669.245 134.369C670.3 134.346 671.403 134.557 672.599 135.05C672.06 135.191 671.52 135.402 670.981 135.73C669.62 136.551 668.611 137.865 668.283 139.179C667.485 139.015 666.711 138.85 665.937 138.686C664.647 138.405 663.427 138.17 662.372 137.935C662.911 137.724 663.427 137.419 664.154 136.927ZM303.112 54.1091C303.558 54.2968 304.004 54.5314 304.473 54.7895C304.473 55.3525 304.449 55.9391 304.426 56.5021C304.426 56.9479 304.403 57.3702 304.379 57.816C304.285 58.5902 304.426 59.2236 304.778 59.7398C302.831 59.2705 300.485 58.684 298.186 58.1209C298.069 58.0975 297.952 58.074 297.858 58.0271C298.749 56.291 301.541 54.1326 303.042 54.1326C303.042 54.1091 303.089 54.1091 303.112 54.1091ZM294.011 56.1268C294.198 55.986 294.409 55.8218 294.714 55.6106C295.84 54.8364 298.562 53.4757 299.429 53.288C300.11 53.2645 300.837 53.3584 301.564 53.546C299.781 54.2968 297.694 56.1502 296.943 57.7925C295.535 57.4406 294.175 57.1121 292.932 56.8071C293.283 56.6664 293.612 56.4552 294.011 56.1268ZM252.326 58.1444C252.349 58.1444 252.349 58.1444 252.326 58.1444C252.678 57.9098 252.936 57.7221 253.1 57.6048C253.17 57.5344 253.264 57.4875 253.334 57.4406C255.727 55.8452 259.598 53.6633 261.521 52.983C264.055 52.0915 271.163 52.4668 274.447 53.1941C275.948 53.6633 286.387 56.2675 289.718 56.9714C291.594 57.4171 294.316 58.0975 297.084 58.7779C297.365 58.8482 297.67 58.9186 297.952 58.989C301.775 59.9275 305.693 60.9128 307.734 61.382C309.751 61.8513 311.745 62.3205 313.786 62.7897C379.585 78.0863 452.446 93.7583 523.008 108.938C535.605 111.636 548.225 114.357 560.845 117.079C565.842 118.158 571.284 119.307 577.008 120.527C595.422 124.445 616.277 128.88 637.154 133.759C637.342 133.806 655.803 137.771 659.346 138.17C660.706 138.499 663.075 138.991 665.773 139.554C669.245 140.282 673.162 141.103 675.813 141.76C675.977 141.807 676.118 141.853 676.259 141.877C676.259 141.877 676.259 141.877 676.282 141.877C676.353 141.9 676.446 141.924 676.517 141.947C676.564 141.947 676.587 141.971 676.634 141.971C676.658 141.971 676.681 141.971 676.704 141.971L677.69 142.182C679.402 142.534 681.091 142.886 682.78 143.261C684.868 143.707 686.745 144.129 688.551 144.622C688.574 144.622 688.574 144.622 688.598 144.645C691.131 145.302 693.524 146.663 695.354 148.54C692.187 151.355 687.917 155.132 683.249 159.285C682.1 156.751 678.769 155.977 677.291 155.625C669.972 153.936 662.512 152.341 655.311 150.792C651.182 149.901 646.913 148.986 642.714 148.071C637.506 146.921 632.228 145.725 627.114 144.575C622 143.425 616.699 142.229 611.491 141.079C605.416 139.742 599.246 138.405 593.264 137.138C587.236 135.847 580.996 134.487 574.873 133.149C570.487 132.188 566.03 131.155 561.737 130.17C557.89 129.302 553.925 128.387 550.008 127.519C542.665 125.9 535.182 124.258 527.957 122.686C523.923 121.818 519.888 120.926 515.876 120.058C511.349 119.073 506.822 118.064 502.294 117.079C496.875 115.882 491.457 114.686 486.014 113.513C481.088 112.433 476.139 111.354 471.212 110.298C462.134 108.328 452.751 106.286 443.532 104.222C437.104 102.791 430.56 101.289 424.249 99.8582C417.517 98.3097 410.573 96.7379 403.724 95.2129C398.751 94.1102 393.66 93.0779 388.758 92.0691C385.755 91.4591 382.752 90.8491 379.75 90.2157C373.275 88.8549 367.974 87.7053 363.024 86.6027C359.2 85.7581 355.306 84.8431 351.553 83.975C348.832 83.3416 346.087 82.7081 343.366 82.0982L339.003 81.1128C331.919 79.494 324.576 77.8282 317.351 76.2329C310.9 74.8018 304.332 73.4176 297.999 72.0803L294.058 71.2591C291.735 70.7665 289.389 70.2972 287.067 69.8046C282.985 68.96 278.763 68.0919 274.611 67.1769C271.89 66.5669 269.098 65.8866 266.424 65.2297C262.952 64.3851 259.363 63.4935 255.821 62.7428C253.804 62.3205 252.232 62.2032 249.98 62.3674C249.182 62.4143 247.587 62.9774 246.86 63.3058C246.438 63.212 246.039 63.1181 245.64 63.0243C248.784 60.6782 251.083 59.0359 252.326 58.1444ZM682.334 159.473C673.772 157.549 664.061 155.461 654.63 153.443C646.889 151.778 638.89 150.065 631.806 148.493C626.622 147.343 621.437 146.17 616.23 144.997C609.779 143.543 603.093 142.041 596.525 140.587C588.948 138.921 581.23 137.255 573.771 135.66C567.156 134.229 560.282 132.751 553.55 131.296C549.14 130.334 544.659 129.325 540.32 128.34C536.426 127.448 532.391 126.533 528.426 125.665C522.797 124.422 517.167 123.202 511.537 121.982C504.476 120.457 497.18 118.862 490.002 117.266C484.935 116.14 479.821 114.967 474.848 113.818C469.43 112.574 463.847 111.284 458.334 110.064C453.384 108.961 448.317 107.929 443.438 106.943C440.412 106.333 437.386 105.7 434.36 105.067C428.519 103.847 422.631 102.556 417.634 101.454C410.972 99.999 404.123 98.474 397.273 96.9255C394.95 96.4094 392.628 95.8698 390.306 95.3302C388.03 94.814 385.755 94.2744 383.479 93.7583C379.21 92.7964 374.941 91.858 370.648 90.8961L323.169 80.362C317.516 79.0951 311.862 77.8517 306.232 76.6083C296.661 74.4968 288.052 72.5964 279.326 70.7195C273.626 69.4996 265.791 67.6461 258.214 65.8631C254.765 65.042 251.458 64.2678 248.432 63.5639C249.042 63.3528 249.675 63.1651 250.027 63.1416C252.208 63.0008 253.663 63.0947 255.61 63.4935C259.152 64.2443 262.741 65.1123 266.189 65.9804C268.864 66.6373 271.655 67.3177 274.4 67.9277C278.552 68.8661 282.774 69.7342 286.856 70.5788C289.178 71.048 291.524 71.5407 293.846 72.0334L297.787 72.8545C304.121 74.1918 310.689 75.576 317.14 77.0071C324.365 78.6025 331.708 80.2682 338.792 81.887L343.155 82.8724C345.876 83.4824 348.621 84.1158 351.342 84.7493C355.095 85.6173 358.989 86.5323 362.836 87.3769C367.786 88.4796 373.111 89.6292 379.585 90.9899C382.588 91.6233 385.591 92.2333 388.593 92.8433C393.496 93.8521 398.563 94.8844 403.536 95.9871C410.386 97.5121 417.329 99.084 424.038 100.632C430.349 102.087 436.893 103.565 443.321 104.996C452.54 107.037 461.947 109.078 471.025 111.049C475.974 112.128 480.901 113.184 485.827 114.263C491.246 115.46 496.664 116.633 502.107 117.829C506.634 118.815 511.161 119.824 515.689 120.809C519.724 121.7 523.758 122.568 527.77 123.46C534.995 125.032 542.478 126.651 549.82 128.293C553.738 129.161 557.702 130.076 561.549 130.944C565.865 131.929 570.322 132.962 574.709 133.924C580.832 135.261 587.071 136.622 593.1 137.912C599.082 139.202 605.251 140.54 611.327 141.853C616.535 143.003 621.836 144.2 626.95 145.349C632.064 146.499 637.342 147.695 642.55 148.845C646.749 149.76 651.018 150.675 655.147 151.566C662.348 153.115 669.808 154.71 677.127 156.399C679.074 156.939 681.419 157.713 682.334 159.473ZM90.0433 174.136C91.357 172.775 93.3275 171.109 94.8053 170.054C96.2362 169.068 135.81 140.915 174.093 113.724C202.008 93.8756 230.627 73.5349 244.608 63.6108C245.288 63.7751 246.016 63.9158 246.743 64.1035C250.144 64.8777 253.968 65.7927 257.979 66.7312C265.556 68.5142 273.415 70.3676 279.115 71.5876C287.841 73.4645 296.45 75.3648 306.021 77.4529C311.675 78.6963 317.304 79.9632 322.958 81.2066L370.531 91.7876C374.8 92.726 379.069 93.6879 383.339 94.6498C385.614 95.166 387.89 95.6821 390.142 96.2217C392.464 96.7613 394.786 97.3009 397.132 97.8171C403.982 99.3655 410.831 100.89 417.494 102.345C422.49 103.448 428.402 104.738 434.243 105.958C437.269 106.591 440.295 107.225 443.321 107.835C448.2 108.844 453.244 109.876 458.193 110.955C463.706 112.175 469.289 113.466 474.708 114.709C479.681 115.859 484.795 117.032 489.862 118.158C497.04 119.753 504.359 121.325 511.419 122.873C517.049 124.093 522.679 125.313 528.309 126.557C532.274 127.425 536.285 128.34 540.179 129.231C544.495 130.217 548.999 131.226 553.409 132.188C560.142 133.666 566.991 135.144 573.63 136.551C581.09 138.147 588.807 139.812 596.384 141.478C602.953 142.933 609.638 144.434 616.089 145.889C621.273 147.062 626.457 148.235 631.665 149.384C638.749 150.956 646.749 152.669 654.49 154.335C663.849 156.352 673.538 158.417 682.053 160.341C680.974 161.303 679.871 162.288 678.745 163.273C671.028 170.101 663.052 177.162 658.008 181.667C652.965 186.171 646.561 191.872 639.805 197.879C628.17 208.248 614.986 219.979 606.166 227.909C600.818 232.742 595.587 237.457 590.426 242.126C580.456 251.135 571.05 259.651 560.869 268.684C554.113 274.667 547.005 278.045 539.123 279.03C534.174 279.64 524.814 279.171 519.958 278.608C514.516 277.975 510.082 277.271 505.977 276.379C499.714 275.042 493.286 273.845 487.094 272.696C484.56 272.227 482.027 271.757 479.493 271.288C473.91 270.232 468.233 269.177 462.744 268.168C458.85 267.441 454.933 266.713 451.039 265.986C449.162 265.634 447.238 265.306 445.385 264.977C441.749 264.344 437.972 263.71 434.313 262.866C429.316 261.716 424.742 259.745 420.707 257C403.114 245.059 383.737 236.589 368.818 230.513C360.303 227.064 351.154 223.779 339.167 219.885C326.336 215.709 312.566 212.026 297.06 208.624C281.695 205.245 265.931 202.665 250.215 200.952C242.075 200.06 233.466 199.427 224.645 199.028C216.881 198.676 209.022 198.559 201.328 198.676C198.607 198.723 195.862 198.911 193.188 199.075C190.373 199.263 187.464 199.45 184.603 199.497C175.172 199.591 165.648 198.066 155.538 194.899C147.609 192.389 139.493 190.113 131.611 187.908C129.64 187.344 127.67 186.805 125.699 186.242C120.844 184.858 115.894 183.426 111.132 182.042C103.813 179.907 96.2597 177.725 88.8 175.684C89.1519 175.098 89.5976 174.605 90.0433 174.136ZM85.1171 182.206C85.4221 180.494 86.6419 178.335 88.1198 176.388C95.6967 178.453 103.391 180.682 110.827 182.84C115.613 184.224 120.539 185.655 125.418 187.039C127.388 187.603 129.359 188.142 131.329 188.705C139.188 190.911 147.328 193.186 155.233 195.697C165.437 198.911 175.032 200.436 184.579 200.342C187.464 200.318 190.397 200.131 193.212 199.92C195.862 199.732 198.607 199.568 201.305 199.521C208.999 199.403 216.834 199.521 224.575 199.849C233.395 200.248 241.981 200.905 250.097 201.773C265.814 203.486 281.531 206.066 296.849 209.445C312.331 212.847 326.078 216.53 338.886 220.683C350.849 224.577 359.975 227.838 368.49 231.287C383.362 237.317 402.692 245.786 420.215 257.681C424.343 260.473 429.011 262.514 434.125 263.687C437.808 264.531 441.585 265.188 445.244 265.822C447.098 266.15 449.021 266.479 450.898 266.831C454.792 267.558 458.709 268.285 462.627 269.012C468.116 270.021 473.793 271.077 479.376 272.133C481.909 272.625 484.466 273.071 487 273.564C493.193 274.713 499.597 275.887 505.86 277.224C509.989 278.115 514.446 278.819 519.911 279.453C523.172 279.828 528.473 280.18 533.118 280.18C535.44 280.18 537.622 280.086 539.288 279.898C547.357 278.913 554.629 275.441 561.502 269.341C571.683 260.308 581.09 251.792 591.059 242.76C596.244 238.067 601.451 233.375 606.8 228.542C615.62 220.612 628.803 208.858 640.438 198.512C647.194 192.482 653.598 186.805 658.642 182.3C663.685 177.796 671.661 170.734 679.355 163.93C680.692 162.734 682.029 161.561 683.343 160.388C683.367 160.364 683.39 160.341 683.413 160.341C688.293 156.024 692.726 152.106 696.01 149.173C697.582 150.956 699.341 153.561 699.341 156.259C699.341 158.018 699.341 159.66 699.341 161.185C689.301 170.101 678.393 180.001 667.837 189.573C659.111 197.48 650.103 205.668 641.776 213.105C630.516 223.17 619.092 233.445 608.019 243.37C600.208 250.384 592.373 257.423 584.561 264.438C576.867 271.335 568.915 278.467 561.01 285.67C554.441 291.652 547.662 295.007 540.226 295.969C537.833 296.274 535.464 296.321 533.446 296.321C530.491 296.321 527.793 296.321 524.931 296.18C515.196 295.735 505.297 295.547 495.703 295.359C493.005 295.312 490.307 295.265 487.61 295.195C479.094 295.007 470.438 295.125 462.087 295.265C458.991 295.312 455.871 295.359 452.774 295.383C442.711 295.477 432.952 295.922 423.804 296.697C422.256 296.814 420.66 297.001 419.136 297.142C418.127 297.26 417.118 297.353 416.11 297.447C412.075 297.823 408.885 296.298 407.383 293.224C404.592 287.523 400.041 283.371 395.631 279.359L395.162 278.936C385.403 270.045 374.284 262.091 362.109 255.288C353.242 250.337 343.671 245.95 332.904 241.868C319.768 236.894 305.599 233.234 289.601 230.654C283.197 229.621 276.347 228.964 267.409 228.519C253.264 227.815 239.236 228.542 225.724 230.654C212.541 232.718 201.094 235.627 190.772 239.569C183.406 242.384 176.04 241.798 169.496 237.856C160.065 232.202 150.401 226.595 141.064 221.175C134.801 217.539 128.35 213.785 122.017 210.055C115.964 206.489 109.795 202.899 103.813 199.45C100.224 197.362 96.6116 195.274 93.0225 193.163C90.5828 191.755 86.1962 187.978 84.9999 185.491C85.0468 184.083 85.1171 182.91 85.2344 182.206H85.1171ZM84.8826 204.87C84.8826 204.049 84.8591 202.735 84.8591 200.811C84.8122 197.151 84.7653 191.427 84.8591 187.133C86.6654 189.667 90.2779 192.67 92.483 193.96C96.072 196.049 99.6846 198.16 103.274 200.248C109.232 203.72 115.425 207.31 121.477 210.852C127.811 214.583 134.285 218.337 140.548 221.973C149.885 227.393 159.549 233 168.979 238.654C175.782 242.736 183.406 243.346 191.053 240.437C201.328 236.519 212.705 233.61 225.818 231.569C239.283 229.457 253.241 228.753 267.315 229.457C276.229 229.903 283.032 230.56 289.413 231.569C305.364 234.126 319.463 237.786 332.552 242.736C343.296 246.795 352.82 251.182 361.64 256.085C373.744 262.842 384.817 270.749 394.528 279.617L394.997 280.039C399.337 283.981 403.818 288.086 406.539 293.623C408.017 296.673 411.113 298.409 414.913 298.409C415.312 298.409 415.734 298.386 416.156 298.339C417.165 298.245 418.197 298.128 419.206 298.034C420.731 297.87 422.302 297.705 423.851 297.588C432.976 296.814 442.711 296.392 452.751 296.274C455.847 296.251 458.967 296.204 462.064 296.157C470.415 296.04 479.071 295.899 487.563 296.087C490.26 296.133 492.958 296.204 495.656 296.251C505.227 296.438 515.126 296.626 524.861 297.072C527.746 297.213 530.444 297.213 533.423 297.213C535.464 297.213 537.88 297.166 540.32 296.861C547.92 295.875 554.887 292.45 561.596 286.327C569.501 279.124 577.454 271.992 585.148 265.094C592.983 258.08 600.794 251.041 608.606 244.026C619.655 234.102 631.079 223.826 642.339 213.762C650.666 206.324 659.697 198.137 668.4 190.23C678.745 180.869 689.419 171.18 699.295 162.405C699.295 175.403 699.341 179.743 699.482 181.362C692.445 187.884 684.375 195.298 676.587 202.477C672.435 206.301 668.377 210.031 664.624 213.48C660.284 217.492 655.921 221.504 651.557 225.492C645.224 231.311 638.679 237.34 632.252 243.276C622.845 251.98 613.251 260.801 603.961 269.341C599.059 273.845 594.179 278.35 589.276 282.854C582.45 289.142 575.624 295.43 568.774 301.694C563.637 306.433 558.476 311.149 553.339 315.888C548.342 320.486 541.962 323.114 533.235 324.146C527.77 324.803 521.671 324.521 516.697 323.442C516.744 323.419 516.791 323.372 516.838 323.348C516.838 323.348 516.838 323.348 516.862 323.348C516.885 323.325 516.909 323.301 516.932 323.278C516.956 323.278 516.956 323.254 516.979 323.231C517.002 323.184 517.026 323.161 517.049 323.114V323.09C517.049 323.067 517.073 323.043 517.073 323.02C517.073 322.996 517.073 322.973 517.073 322.949C517.073 322.926 517.073 322.879 517.049 322.856V322.832C517.049 322.809 517.026 322.785 517.026 322.762V322.738C517.026 322.738 517.026 322.738 517.026 322.715C517.002 322.691 516.979 322.668 516.956 322.644C516.956 322.621 516.932 322.621 516.909 322.598C516.862 322.551 516.815 322.527 516.768 322.527C516.744 322.527 516.721 322.504 516.697 322.504C516.674 322.504 516.651 322.504 516.627 322.504C515.759 322.41 513.437 322.128 510.082 321.729C492.09 319.618 444.33 313.987 439.966 313.307C438.254 313.049 436.87 313.753 435.814 315.489C428.542 315.935 419.323 316.38 412.004 316.028C406.515 315.77 400.932 315.207 396.194 314.715C388.195 313.87 379.89 312.814 371.563 311.547C370.929 311.454 369.311 311.195 367.293 310.89C363.657 308.873 354.884 304.556 351.201 303.172C335.508 297.306 319.932 292.708 304.872 289.517C294.316 287.289 283.056 285.365 268.301 283.324C257.885 281.893 245.851 281.916 237.524 282.174C223.848 278.139 202.9 271.405 195.933 268.989C180.896 263.757 169.003 258.854 158.494 253.552C155.632 252.12 152.301 250.291 149.486 247.827C149.228 247.616 149.064 247.428 148.97 247.241C148.782 246.912 148.759 246.537 148.688 245.833C148.571 244.284 148.008 243.346 146.765 242.548C146.601 242.455 146.436 242.361 146.272 242.243H146.249C143.105 240.343 139.68 239.006 136.373 237.715C134.989 237.176 133.558 236.613 132.197 236.026C129.218 234.759 126.192 233.516 123.236 232.319C120.539 231.217 117.771 230.091 115.026 228.941C113.22 228.167 111.414 227.393 109.631 226.618C104.212 224.296 98.6055 221.879 92.999 219.885C92.3891 219.674 91.8027 219.369 91.2631 219.017C87.3222 216.436 84.8591 210.547 84.7418 206.747C84.8357 206.395 84.906 206.019 84.9295 205.621V205.597C84.8826 205.433 84.8826 205.151 84.8826 204.87ZM512.827 359.314C512.827 359.572 512.827 359.83 512.827 360.088C512.85 363.631 512.803 367.174 512.757 370.622C512.733 371.795 512.733 372.992 512.71 374.165C512.686 376.488 512.616 378.834 512.569 381.109C512.522 383.057 512.475 385.051 512.428 387.045C512.428 387.374 512.428 387.702 512.428 388.03C512.428 388.547 512.428 389.063 512.428 389.579C512.428 389.954 512.452 391.033 512.733 391.925C510.81 391.643 508.112 391.292 505.109 390.94C505.109 390.94 505.109 390.94 505.086 390.94C505.062 390.94 505.039 390.94 505.015 390.94H504.992C498.447 390.118 490.612 389.227 486.789 388.758L485.827 388.64C477.898 387.702 470.931 386.881 464.574 386.107C458.146 385.332 451.367 384.535 443.954 383.714C442.265 383.526 440.553 383.338 438.793 383.151C435.439 382.799 435.134 381.344 434.852 378.834C434.806 378.529 434.782 378.224 434.782 377.919C434.782 377.895 434.782 377.848 434.806 377.825C434.806 377.754 434.806 377.708 434.782 377.637C434.735 376.558 434.806 375.479 434.852 374.423C434.899 373.578 434.946 372.71 434.923 371.842C434.923 370.435 434.876 365.203 434.806 358.821C434.782 356.757 434.759 354.575 434.735 352.346C434.641 342.493 434.571 331.888 434.571 328.744C434.571 328.721 434.571 328.674 434.571 328.65C434.571 328.533 434.571 328.439 434.571 328.322C434.571 328.275 434.571 328.252 434.571 328.205V328.181C434.571 328.181 434.571 328.181 434.571 328.158C434.477 325.131 434.501 322.011 435.251 319.172C435.251 319.125 435.275 319.102 435.275 319.078C435.415 318.562 435.58 318.046 435.791 317.53C436.002 317.014 436.213 316.568 436.424 316.169C436.448 316.146 436.448 316.122 436.471 316.099C437.363 314.574 438.418 313.987 439.826 314.198C444.189 314.879 491.973 320.509 509.965 322.621C512.405 322.902 514.281 323.137 515.478 323.278C515.454 323.301 515.407 323.348 515.407 323.372C513.718 325.225 513.484 328.533 513.46 330.011C513.437 332.404 513.366 334.938 513.296 337.448C513.296 337.472 513.296 337.472 513.296 337.495C513.249 339.067 513.202 340.663 513.155 342.234C512.991 347.677 512.827 353.308 512.827 358.516C512.827 358.798 512.827 359.056 512.827 359.314ZM504.476 391.761C504.335 392.465 504.007 393.075 503.514 393.497C503.021 393.919 502.388 394.13 501.778 394.06C500.582 393.943 499.385 393.778 498.213 393.638C497.087 393.497 495.914 393.333 494.741 393.215C488.994 392.629 483.129 391.925 477.499 391.221C474.59 390.869 471.682 390.517 468.773 390.165C467.389 390.001 466.005 389.837 464.597 389.696C458.85 389.039 452.892 388.359 447.074 387.491C445.854 387.303 444.541 386.107 444.4 384.652C451.602 385.45 458.217 386.2 464.48 386.975C470.837 387.749 477.804 388.57 485.733 389.508L486.695 389.626C490.424 390.095 498.025 390.963 504.476 391.761ZM142.589 251.51C140.478 253.81 139.422 256.156 139.282 258.971C139.258 259.042 139.258 259.135 139.282 259.206C139.282 259.393 139.258 259.558 139.258 259.745C139.282 265.048 139.516 270.42 139.774 275.605L139.798 276.051C139.915 278.585 140.032 281.001 140.079 283.699C140.079 283.769 140.079 283.816 140.079 283.887C140.103 285.083 140.15 286.397 140.22 287.664C140.243 288.321 140.29 288.978 140.314 289.611L140.384 291.207C140.501 294.468 140.642 297.823 140.877 301.154C140.9 301.318 140.9 301.483 140.947 301.647C140.947 301.694 140.947 301.741 140.971 301.788V301.811C141.604 304.767 144.935 306.55 147.304 307.442C147.046 307.606 146.812 307.794 146.601 308.099C145.78 309.178 144.255 309.037 143.105 308.709C142.824 308.638 142.542 308.544 142.261 308.474C140.877 307.559 139.798 304.955 139.704 303.594C138.953 293.975 138.578 284.192 138.226 275.582C138.085 271.851 137.968 268.051 137.874 264.367C137.827 262.514 137.78 260.66 137.71 258.783C137.663 257.141 137.663 255.217 138.132 253.294C139.211 248.812 142.003 245.246 145.991 243.205C146.084 243.252 146.178 243.323 146.249 243.37C147.257 244.003 147.656 244.707 147.773 245.974C147.797 246.185 147.82 246.396 147.844 246.584C146.554 246.044 145.099 246.068 143.926 246.724C142.753 247.358 142.144 248.484 142.237 249.798C142.237 250.267 142.284 250.971 142.589 251.51ZM433.82 350.587C427.721 350.821 417.681 350.188 411.136 349.484C405.413 348.874 399.689 348.053 395.326 347.396C393.684 347.161 392.018 346.927 390.4 346.716C388.453 346.457 386.459 346.199 384.488 345.894L384.23 345.847C380.078 345.191 375.785 344.534 371.61 343.783C367.669 343.079 363.775 342.422 360.068 341.883C355.729 341.226 351.483 340.451 346.768 339.56C343.179 338.88 339.543 338.129 336.024 337.401C334.616 337.12 333.232 336.815 331.825 336.533C329.643 336.088 327.438 335.642 325.257 335.22C322.16 334.61 318.923 333.953 315.78 333.296L313.88 332.897C308.343 331.724 302.62 330.527 297.037 329.237C292.134 328.087 287.255 326.938 282.375 325.788C277.238 324.568 271.937 323.325 266.729 322.105C251.716 318.633 236.632 314.55 222.018 310.632C211.767 307.864 200.695 304.579 188.098 300.568C179.348 297.776 169.003 294.397 158.517 290.409C153.99 288.673 146.788 285.107 142.026 282.737L140.9 282.174C140.83 280.086 140.736 278.115 140.642 276.074L140.619 275.628C140.384 270.514 140.126 265.212 140.103 259.98C154.389 268.661 172.428 277.318 191.053 284.379C205.152 289.729 220.282 294.702 236.069 299.16C253.944 304.228 270.224 308.31 285.847 311.641C300.18 314.691 313.363 317.225 326.125 319.336C340.528 321.729 355.377 323.7 370.249 325.225C379.492 326.164 388.851 326.891 398.094 327.384C403.794 327.689 409.002 327.829 413.975 327.829C417.024 327.829 420.004 327.782 422.936 327.665C426.243 327.548 430.044 327.36 433.586 326.821C433.586 327.384 433.609 327.923 433.633 328.463C433.656 330.832 433.727 340.827 433.82 350.587ZM141.815 301.553C141.792 301.412 141.768 301.271 141.745 301.107C141.51 297.799 141.393 294.444 141.252 291.183L141.182 289.588C141.158 288.931 141.135 288.297 141.088 287.641C141.041 286.467 140.971 285.271 140.947 284.168L141.205 284.309C146.014 286.702 153.263 290.292 157.86 292.051C168.37 296.063 178.761 299.465 187.535 302.257C200.132 306.269 211.251 309.577 221.525 312.345C236.14 316.286 251.247 320.345 266.283 323.841C271.491 325.037 276.792 326.304 281.93 327.524C286.809 328.674 291.712 329.847 296.615 330.973C302.221 332.287 307.968 333.483 313.504 334.657L315.404 335.055C318.571 335.712 321.785 336.369 324.905 336.979C327.086 337.425 329.268 337.847 331.473 338.293C332.881 338.575 334.265 338.856 335.672 339.161C339.191 339.888 342.85 340.639 346.439 341.319C351.154 342.211 355.424 343.009 359.81 343.666C363.517 344.229 367.387 344.862 371.305 345.566C375.527 346.34 379.82 346.997 383.972 347.63L384.23 347.677C386.201 347.982 388.218 348.24 390.165 348.522C391.784 348.733 393.449 348.968 395.068 349.202C399.431 349.859 405.202 350.68 410.949 351.29C416.602 351.9 424.906 352.44 431.029 352.44C432.014 352.44 432.976 352.417 433.82 352.393C433.844 354.622 433.867 356.804 433.891 358.868C433.938 365.25 433.985 370.482 434.008 371.889C434.008 372.734 433.961 373.578 433.938 374.423C433.938 374.564 433.914 374.705 433.914 374.869C429.176 374.212 424.484 373.391 419.276 372.429C406.75 370.153 394.106 367.479 381.861 364.898L381.298 364.781C369.076 362.2 357.136 359.525 346.041 357.015C321.973 351.548 298.35 345.707 278.435 340.733C256.619 335.267 237.102 330.152 218.757 325.131C202.524 320.674 185.236 315.911 168.323 310.703C161.473 308.615 152.465 305.799 143.481 302.726C142.965 302.538 141.979 301.905 141.815 301.553ZM433.609 325.835C430.067 326.398 426.243 326.562 422.936 326.703C415.242 326.985 407.36 326.891 398.164 326.422C388.945 325.952 379.585 325.225 370.366 324.287C355.518 322.762 340.692 320.791 326.289 318.398C313.551 316.286 300.391 313.776 286.058 310.703C270.459 307.371 254.202 303.289 236.351 298.245C220.611 293.787 205.48 288.814 191.429 283.488C172.662 276.379 154.482 267.652 140.197 258.901C140.361 256.39 141.299 254.279 143.199 252.191C143.246 252.214 143.293 252.238 143.34 252.261C146.038 253.505 148.782 254.795 151.433 256.038C157.18 258.737 163.138 261.552 169.097 264.109C181.834 269.576 195.909 274.878 212.142 280.321C223.871 284.262 235.811 287.899 247.681 291.16C256.736 293.647 266.236 296.11 275.948 298.48C286.481 301.06 297.131 303.43 307.64 305.588C319.439 308.005 330.089 309.929 340.199 311.5C356.62 314.034 369.24 315.723 381.157 316.92C390.564 317.882 399.149 318.562 407.407 319.031C413.201 319.36 419.792 319.383 426.15 319.383C428.988 319.383 431.686 319.407 434.243 319.43C433.75 321.495 433.609 323.677 433.609 325.835ZM426.15 318.492C422.607 318.492 419.018 318.468 415.547 318.421C412.755 318.375 410.01 318.281 407.454 318.14C399.22 317.671 390.634 316.967 381.251 316.028C369.358 314.832 356.737 313.143 340.34 310.609C330.23 309.037 319.58 307.113 307.804 304.697C297.318 302.538 286.645 300.169 276.136 297.588C266.448 295.218 256.947 292.755 247.892 290.292C236.046 287.054 224.106 283.394 212.4 279.476C196.191 274.033 182.139 268.731 169.449 263.288C163.49 260.731 157.555 257.939 151.808 255.241C149.158 253.997 146.413 252.707 143.715 251.464C143.621 251.417 143.528 251.346 143.457 251.252C143.176 250.877 143.129 250.197 143.082 249.751C142.988 248.461 143.809 247.804 144.302 247.546C145.451 246.912 146.999 247.029 148.172 247.851C148.313 248.109 148.524 248.343 148.829 248.601C151.738 251.135 155.116 252.989 158.025 254.443C168.581 259.769 180.497 264.672 195.581 269.904C202.548 272.32 223.59 279.077 237.266 283.113C238.274 283.418 239.236 283.699 240.175 283.957C243.107 284.802 245.523 285.459 247.212 285.857H247.235C255.915 288.274 265.861 290.808 276.136 293.389C287.958 296.368 299.758 299.09 311.205 301.483C319.439 303.195 339.12 307.254 354.274 309.788C354.462 309.811 354.626 309.858 354.79 309.882C355.94 310.069 357.066 310.257 358.145 310.421C358.168 310.421 358.192 310.421 358.215 310.421H358.239C360.045 310.703 362.18 311.031 364.244 311.36C365.206 311.5 366.144 311.641 366.989 311.782C369.029 312.087 370.695 312.345 371.352 312.439C379.703 313.682 387.983 314.762 396.006 315.606C400.745 316.099 406.351 316.662 411.864 316.92C413.037 316.99 414.256 317.014 415.5 317.037C416.25 317.061 417.001 317.061 417.775 317.061C423.593 317.061 429.879 316.756 435.204 316.427C435.087 316.662 434.97 316.92 434.876 317.178C434.712 317.624 434.548 318.07 434.43 318.515C431.85 318.515 429.082 318.515 426.15 318.492ZM243.318 283.934C250.848 283.84 259.95 284.074 268.019 285.177C282.704 287.218 293.94 289.119 304.449 291.347C319.416 294.515 334.898 299.09 350.521 304.908C352.984 305.823 357.77 308.099 361.71 310.069C358.849 309.624 356.198 309.225 354.955 309.014H354.931C354.837 308.99 354.767 308.99 354.673 308.967C354.603 308.943 354.509 308.943 354.439 308.92C339.308 306.386 319.65 302.351 311.416 300.638C299.969 298.245 288.17 295.523 276.37 292.544C266.119 289.963 256.196 287.453 247.54 285.036C247.517 285.036 247.493 285.013 247.47 285.013C247.447 285.013 247.423 285.013 247.4 284.989C246.344 284.755 244.96 284.379 243.318 283.934ZM72.5202 223.92H72.4967C72.5436 221.363 73.2239 217.914 74.3499 216.225C75.6636 214.231 76.7895 213.245 79.1588 211.979C79.4168 211.838 79.6749 211.697 79.9329 211.58C81.3404 210.852 82.9825 210.008 83.9677 208.506C84.5776 212.19 86.8061 216.905 90.1372 219.439C87.4864 220.659 85.7974 221.621 84.1319 224.788C83.3578 226.266 83.0528 229.645 83.0763 231.921C83.0763 231.944 83.0763 231.967 83.0763 231.991C83.0763 231.991 83.0763 231.991 83.0763 232.014C80.6367 231.569 75.3352 228.894 72.5437 226.079C72.5202 225.211 72.5202 224.483 72.5202 223.92ZM72.5437 236.753C72.5437 233.117 72.5437 229.786 72.5202 227.275C75.6401 230.091 80.6367 232.53 83.0528 232.906C83.0997 237.856 83.1232 253.012 83.1232 256.273C83.1232 256.789 83.1232 257.305 83.1232 257.798C80.3552 257.61 75.2413 254.185 72.5437 250.478C72.5437 245.997 72.5437 241.164 72.5437 236.753ZM72.6844 265.235C72.6375 263.124 72.5906 258.619 72.5906 253.294C75.6636 256.625 80.144 259.44 83.1467 259.605C83.1467 259.698 83.1467 259.792 83.1467 259.91C83.1232 261.74 83.1232 263.476 83.1467 265.399C83.1701 268.121 83.0763 270.373 82.9825 273.001L82.9355 273.986C82.8886 275.018 82.8652 276.145 82.8417 277.294C81.8565 277.2 80.1441 276.309 78.2909 274.901C75.4994 272.813 73.2709 270.303 72.6609 268.637C72.6609 268.004 72.6609 267.417 72.6609 266.948C72.6844 266.268 72.6844 265.658 72.6844 265.235ZM82.7244 283.394C81.317 282.409 79.0181 280.884 77.6106 280.086C75.7339 279.054 73.5993 276.238 73.2474 275.206C72.8955 274.197 72.7548 272.414 72.7079 270.631C73.8808 272.367 75.8512 274.221 77.7513 275.652C78.7835 276.426 81.1762 278.092 82.8417 278.209C82.8417 279.734 82.9355 281.236 83.1467 282.549C83.2405 283.066 83.3578 283.535 83.5924 284.004C83.3109 283.793 83.0294 283.605 82.7244 283.394ZM85.0233 284.544C85.0233 284.52 84.9999 284.52 84.9999 284.497L84.9764 284.473C84.3899 283.723 84.2023 283.159 84.0615 282.409C83.827 281.024 83.7566 279.406 83.7566 277.763C83.7566 276.473 83.8035 275.206 83.8504 274.057L83.8973 273.071C83.9912 270.444 84.085 268.144 84.0615 265.423C84.0381 263.499 84.0615 261.763 84.0615 259.933C84.0615 259.792 84.0615 259.651 84.0615 259.511C84.0615 258.995 84.0615 258.478 84.085 257.939C84.085 257.399 84.085 256.86 84.085 256.297C84.085 252.965 84.0615 237.246 84.0146 232.624V232.601C84.0146 232.577 84.0146 232.53 84.0146 232.507C83.9443 230.349 84.2492 226.595 84.9764 225.211C86.595 222.114 88.0963 221.386 91.052 220.026C91.5916 220.354 92.1311 220.636 92.7175 220.823C98.3005 222.794 103.907 225.211 109.302 227.533C111.109 228.308 112.915 229.082 114.721 229.856C117.442 231.006 120.234 232.155 122.931 233.258C125.864 234.454 128.913 235.698 131.869 236.965C133.253 237.551 134.684 238.114 136.068 238.654C139.117 239.85 142.237 241.07 145.123 242.713C141.205 244.894 138.39 248.648 137.288 253.129C136.795 255.147 136.772 257.165 136.842 258.854C136.889 260.707 136.936 262.561 137.006 264.438C137.1 268.121 137.217 271.922 137.358 275.652C137.71 284.286 138.085 294.045 138.836 303.688C138.93 304.837 139.563 306.621 140.525 307.958C138.343 307.277 136.302 306.55 134.309 305.846L133.839 305.682C133.792 305.659 133.722 305.635 133.675 305.612C130.766 304.579 127.037 302.961 124.034 301.647L123.096 301.225C118.686 299.324 114.463 297.565 110.381 295.852C107.332 294.585 104.165 293.271 100.904 291.887L100.083 291.535C97.6437 290.503 95.3448 289.517 92.9287 288.438C92.2484 288.133 91.5446 287.805 90.8409 287.476C90.489 287.312 90.0199 287.124 89.5273 286.913C87.9087 286.256 85.6332 285.294 85.0233 284.544ZM135.622 307.277C134.989 307.887 134.285 308.169 133.441 308.146C133.3 307.653 133.394 307.137 133.675 306.574L133.91 306.667C134.496 306.879 135.059 307.09 135.622 307.277ZM132.502 308.005C132.244 307.934 131.986 307.841 131.705 307.723L128.116 306.222C123.588 304.321 118.92 302.374 114.299 300.497C111.625 299.418 108.904 298.292 106.276 297.213C102.898 295.828 99.4265 294.397 95.9782 293.013C93.4213 291.981 92.8817 290.949 93.0225 289.494C95.2275 290.479 97.3857 291.394 99.6377 292.356L100.459 292.708C103.719 294.092 106.886 295.406 109.936 296.673C114.017 298.362 118.24 300.122 122.626 302.022L123.565 302.444C126.427 303.688 129.945 305.213 132.807 306.269C132.549 306.855 132.432 307.442 132.502 308.005ZM230.111 334.281C223.942 334.258 216.224 334.14 208.788 334.023C201.844 333.929 194.666 333.812 188.708 333.765C188.614 333.765 188.52 333.765 188.426 333.765C188.379 333.765 188.356 333.765 188.309 333.765C185.025 333.742 178.245 332.733 164.382 328.299C161.708 327.431 158.611 326.445 155.186 325.342C137.64 319.735 113.595 312.04 101.702 307.137C96.94 305.166 91.8027 302.562 89.7853 297.987C88.542 295.148 88.3309 292.779 88.3778 289.142C88.3778 288.462 88.2371 287.899 87.3691 287.007C87.9086 287.265 88.4951 287.523 89.1285 287.781C89.6211 287.992 90.0668 288.18 90.4186 288.344C91.0286 288.626 91.615 288.907 92.2014 289.166C91.873 291.441 92.8817 292.802 95.6967 293.928C99.145 295.289 102.617 296.72 105.971 298.128C108.599 299.207 111.32 300.333 113.994 301.412C118.615 303.266 123.283 305.236 127.811 307.113L131.4 308.615C132.174 308.943 132.878 309.107 133.558 309.107C134.637 309.107 135.599 308.685 136.42 307.864C136.49 307.794 136.514 307.723 136.537 307.653C138.25 308.239 140.032 308.849 141.956 309.389C142.261 309.483 142.566 309.577 142.871 309.647C144.841 310.21 146.436 309.882 147.328 308.709C147.75 308.146 148.313 307.958 149.134 308.122H149.157C149.181 308.122 149.204 308.122 149.228 308.146C149.322 308.169 149.439 308.192 149.556 308.216C153.755 309.389 157.954 310.703 162.036 311.993C164.757 312.838 167.572 313.706 170.34 314.55C180.943 317.718 224.669 330.222 235.483 333.296C236.656 333.624 238.908 334.211 242.004 335.008C237.805 334.398 233.442 334.281 230.111 334.281ZM311.088 350.962C276.464 342.563 241.723 334.07 235.694 332.357C224.88 329.284 181.154 316.779 170.575 313.612C167.807 312.791 164.992 311.923 162.271 311.055C158.189 309.788 153.943 308.451 149.744 307.277C149.65 307.254 149.486 307.207 149.298 307.184C147.914 306.808 144.208 305.588 142.542 303.266C142.8 303.406 143.011 303.5 143.152 303.547C152.16 306.644 161.168 309.436 168.018 311.547C184.931 316.756 202.219 321.518 218.476 325.976C236.82 330.997 256.361 336.111 278.176 341.578C288.404 344.135 299.617 346.927 311.346 349.765C322.465 352.463 334.077 355.208 345.782 357.859C356.878 360.37 368.818 363.068 381.04 365.625L381.603 365.742C393.848 368.323 406.515 370.998 419.042 373.273C424.296 374.212 429.011 375.08 433.797 375.713C433.773 376.229 433.773 376.769 433.773 377.285C427.534 376.746 421.341 375.737 416.016 374.845C406.07 373.156 395.818 371.42 385.872 368.957C385.849 368.957 385.825 368.957 385.802 368.933C385.755 368.933 385.708 368.91 385.661 368.91C385.614 368.91 385.567 368.886 385.497 368.863C379.14 367.385 345.173 359.22 311.088 350.962ZM689.442 275.746C689.395 275.793 689.348 275.84 689.301 275.863L561.643 399.55C560.986 400.136 560.329 400.746 559.649 401.356C552.096 408.207 544.284 415.269 534.643 415.55C527.629 415.738 511.443 412.313 500.723 410.013C497.767 409.38 495.163 408.84 493.075 408.418V408.395C493.028 408.395 492.794 408.348 492.418 408.277C492.301 408.254 492.137 408.23 491.996 408.207C491.41 408.09 490.612 407.949 489.627 407.761C450.429 400.606 437.316 398.095 433.891 397.368C433.586 397.298 433.304 397.227 433.023 397.18H432.999C428.261 396.124 425.422 395.397 420.989 393.168C418.408 391.855 404.732 383.197 402.926 381.978C402.739 381.86 386.06 371.092 379.093 368.276C382.025 368.98 384.183 369.473 385.38 369.754C385.473 369.778 385.591 369.801 385.685 369.825C395.654 372.288 405.976 374.048 415.945 375.76C421.317 376.675 427.557 377.684 433.891 378.224C433.914 378.458 433.938 378.693 433.961 378.928C434.266 381.673 434.782 383.643 438.723 384.066C440.342 384.253 441.937 384.417 443.509 384.582C443.602 386.576 445.315 388.171 446.957 388.406C452.798 389.25 458.756 389.931 464.527 390.611C465.911 390.775 467.295 390.94 468.702 391.104C471.611 391.432 474.52 391.784 477.429 392.16C483.082 392.84 488.923 393.567 494.694 394.154C495.843 394.271 497.016 394.412 498.142 394.576C499.315 394.717 500.511 394.881 501.708 394.998C501.802 394.998 501.895 395.022 502.013 395.022C502.763 395.022 503.514 394.74 504.124 394.224C504.804 393.661 505.25 392.84 505.414 391.901C509.003 392.347 512.147 392.77 513.953 393.051C513.976 393.051 514 393.051 514.023 393.051C517.002 393.426 520.193 393.755 523.618 393.755C525.471 393.755 527.394 393.661 529.388 393.426C534.361 392.863 540.155 391.878 545.645 388.898C549.093 387.022 551.814 384.324 554.441 381.696C555.192 380.945 555.966 380.194 556.74 379.444C559.133 377.168 561.526 374.916 563.918 372.64C568.024 368.745 572.269 364.71 576.492 360.769C584.726 353.05 593.077 345.167 601.146 337.542C605.416 333.507 609.708 329.472 613.978 325.436C618.622 321.049 623.338 316.591 627.888 312.251C632.533 307.841 637.342 303.289 642.081 298.808C649.728 291.582 659.252 282.503 668.471 273.705C677.924 264.672 687.683 255.358 695.682 247.827C695.659 247.991 695.659 248.132 695.659 248.273C695.659 248.507 695.659 248.742 695.659 248.977L695.705 261.716C695.494 268.684 694.04 271.265 689.442 275.746ZM702.063 237.293C701.992 237.88 701.382 239.498 700.89 240.32C700.89 240.343 700.866 240.343 700.866 240.366C700.303 241.235 697.793 244.144 696.855 245.082C696.573 245.364 696.339 245.716 696.128 246.114C696.104 246.138 696.081 246.138 696.081 246.161C687.894 253.857 677.666 263.64 667.767 273.071C658.571 281.869 649.047 290.949 641.377 298.151C636.638 302.609 631.829 307.184 627.185 311.594C622.634 315.911 617.919 320.392 613.274 324.779C609.005 328.815 604.712 332.85 600.443 336.885C592.373 344.51 584.045 352.37 575.812 360.112C571.613 364.053 567.367 368.089 563.238 371.983C560.845 374.259 558.453 376.535 556.06 378.787C555.286 379.538 554.488 380.288 553.738 381.039C551.157 383.62 548.46 386.271 545.129 388.077C539.78 390.987 534.08 391.948 529.201 392.488C523.453 393.145 518.386 392.676 513.789 392.066C513.789 392.066 513.765 392.066 513.742 392.066C513.718 392.066 513.695 392.066 513.671 392.066C513.366 391.432 513.249 390.353 513.273 389.555C513.273 389.133 513.273 388.734 513.273 388.312C515.126 388.828 517.472 388.992 518.598 389.039C520.193 389.11 521.788 389.157 523.406 389.157C533.118 389.157 542.924 387.374 551.134 379.068C557.327 372.804 563.871 366.681 570.229 360.769C573.677 357.578 577.219 354.246 580.691 350.962C587.799 344.158 593.64 338.645 599.035 333.577C605.768 327.266 612.57 320.838 619.162 314.597C622.446 311.477 625.754 308.357 629.038 305.26C634.105 300.474 639.219 295.617 644.192 290.902C648.743 286.585 653.27 282.268 657.821 277.975C665.374 270.819 674.382 262.115 683.085 253.692C689.888 247.123 696.315 240.906 702.086 235.393C702.086 235.416 702.086 235.416 702.086 235.44C702.133 235.979 702.133 236.683 702.063 237.293ZM702.133 234.149C696.198 239.803 689.536 246.255 682.499 253.059C673.796 261.481 664.788 270.185 657.234 277.341C652.683 281.634 648.133 285.951 643.605 290.268C638.656 294.984 633.518 299.864 628.451 304.626C625.144 307.747 621.86 310.867 618.576 313.987C611.984 320.228 605.181 326.68 598.449 332.967C593.053 338.035 587.212 343.548 580.104 350.352C576.656 353.66 573.091 356.968 569.666 360.159C563.309 366.071 556.74 372.194 550.547 378.482C541.235 387.913 529.74 388.711 518.715 388.195C517.823 388.148 515.22 387.984 513.366 387.42C513.39 385.332 513.46 383.221 513.507 381.18C513.578 378.904 513.624 376.558 513.648 374.212C513.671 373.015 513.671 371.842 513.695 370.669C513.742 367.314 513.765 363.866 513.765 360.417C516.369 361.144 520.193 361.543 524.392 361.543C532.414 361.543 541.798 360.112 546.841 356.827C552.823 352.933 561.268 347.138 567.507 341.648C574.756 335.266 583.154 327.829 591.247 320.392C598.918 313.354 606.682 306.175 614.189 299.254C621.25 292.755 628.545 286.022 635.723 279.406C642.526 273.165 649.306 266.69 655.874 260.426C662.161 254.42 668.682 248.226 675.18 242.22C682.874 235.135 694.016 224.882 702.344 217.281C702.227 225.422 702.156 231.569 702.133 234.149ZM702.508 205.245C702.461 208.6 702.414 211.814 702.368 214.77C693.923 222.466 682.029 233.399 673.936 240.859C667.415 246.865 660.894 253.082 654.607 259.088C648.039 265.329 641.259 271.804 634.48 278.045C627.278 284.661 619.983 291.394 612.946 297.893C605.439 304.837 597.651 311.993 590.004 319.031C581.911 326.469 573.513 333.882 566.288 340.264C560.142 345.683 551.791 351.408 545.832 355.279C538.584 359.994 520.662 360.722 513.718 358.493C513.718 353.285 513.883 347.677 514.047 342.258C514.094 340.85 514.117 339.419 514.164 338.011C514.797 338.082 515.478 338.152 516.181 338.223C520.451 338.692 525.776 339.255 530.561 339.255C533.024 339.255 535.347 339.114 537.294 338.715C545.48 337.073 551.134 334.234 555.661 329.519C558.875 326.164 562.394 323.02 565.795 319.946C566.921 318.914 568.07 317.905 569.196 316.873C575.507 311.102 581.887 305.213 588.08 299.488C590.895 296.884 593.71 294.303 596.525 291.699C601.78 286.866 607.081 281.728 612.218 276.755C617.426 271.71 622.798 266.502 628.123 261.599C633.847 256.32 639.547 251.112 645.224 245.903C652.191 239.522 659.392 232.929 666.524 226.337L670.957 222.255C680.857 213.128 693.078 201.843 702.696 192.858C702.649 195.908 702.579 200.389 702.508 205.245ZM702.743 189.081C702.743 189.104 702.743 189.104 702.743 189.128C702.743 189.409 702.719 190.277 702.719 191.614C693.031 200.694 680.458 212.284 670.347 221.598L665.914 225.703C658.783 232.296 651.581 238.888 644.614 245.27C638.937 250.478 633.26 255.687 627.513 260.965C622.165 265.892 616.793 271.1 611.585 276.145C606.471 281.095 601.17 286.233 595.915 291.066C593.1 293.67 590.285 296.251 587.47 298.855C581.301 304.556 574.92 310.468 568.587 316.216C567.461 317.248 566.335 318.281 565.185 319.29C561.76 322.363 558.242 325.53 555.004 328.909C550.618 333.483 545.105 336.228 537.129 337.824C531.476 338.95 522.679 338.011 516.275 337.331C515.548 337.261 514.844 337.167 514.188 337.12C514.258 334.727 514.305 332.334 514.328 330.035C514.352 329.002 514.492 325.929 515.853 324.193C519.231 324.991 523.172 325.413 527.089 325.413C529.177 325.413 531.288 325.296 533.282 325.061C542.196 324.005 548.741 321.307 553.878 316.568C559.016 311.829 564.176 307.113 569.314 302.374C576.14 296.087 582.99 289.822 589.816 283.535C594.695 279.03 599.598 274.526 604.501 270.045C613.79 261.505 623.384 252.684 632.791 243.979C639.219 238.044 645.763 232.014 652.097 226.196C656.46 222.184 660.823 218.196 665.163 214.184C668.916 210.712 672.975 206.981 677.15 203.157C684.797 196.119 692.703 188.846 699.646 182.418C699.67 182.465 699.693 182.488 699.717 182.535C700.092 183.215 700.679 183.99 701.242 184.74C701.593 185.233 702.063 185.843 702.203 186.101C702.602 186.805 702.766 187.673 702.743 189.081Z" fill="#8E949B"/>
<path d="M653.459 145.162C653.482 145.162 653.482 145.162 653.506 145.162C654.115 145.138 654.608 144.88 654.937 144.387C655.335 143.777 655.101 142.863 654.772 142.511C654.303 141.994 653.646 141.713 652.919 141.689C652.262 141.666 651.652 141.854 651.301 142.206C650.691 142.769 651.089 143.801 651.23 144.012C651.699 144.692 652.638 145.162 653.459 145.162ZM651.887 142.863C652.028 142.722 652.38 142.581 652.802 142.581C652.825 142.581 652.849 142.581 652.872 142.581C653.201 142.604 653.693 142.698 654.092 143.121C654.209 143.238 654.303 143.684 654.162 143.895C653.998 144.129 653.787 144.247 653.482 144.247C652.943 144.247 652.262 143.918 651.957 143.496C651.863 143.355 651.817 142.933 651.887 142.863Z" fill="#8E949B"/>
<path d="M629.039 140.142L629.133 140.165C631.995 140.822 634.927 141.385 637.765 141.948C640.58 142.488 643.513 143.051 646.351 143.708C646.773 143.802 647.219 143.896 647.665 143.896C648.11 143.896 648.533 143.802 648.861 143.567C649.096 143.38 649.354 143.051 649.377 142.465C649.588 140.799 646.703 140.283 644.169 139.813C643.7 139.72 643.255 139.649 642.903 139.579C638.891 138.711 635.162 138.007 631.221 137.256L630.024 137.022C629.016 136.834 628.265 136.928 627.772 137.303C627.467 137.538 627.28 137.913 627.28 138.335C627.186 139.72 628.171 139.931 629.039 140.142ZM628.312 137.983C628.453 137.866 628.734 137.796 629.062 137.796C629.297 137.796 629.555 137.819 629.837 137.866L631.033 138.101C634.974 138.852 638.704 139.555 642.692 140.423C643.067 140.494 643.513 140.588 643.982 140.658C645.483 140.94 648.58 141.479 648.439 142.3C648.439 142.324 648.439 142.347 648.439 142.371C648.439 142.652 648.345 142.746 648.275 142.816C648.017 143.028 647.43 143.004 646.515 142.816C643.653 142.16 640.721 141.596 637.906 141.057C635.091 140.517 632.159 139.954 629.32 139.297L629.227 139.274C628.288 139.063 628.124 138.969 628.148 138.359C628.171 138.124 628.265 138.03 628.312 137.983Z" fill="#8E949B"/>
<path d="M492.09 261.341L492.184 261.365C495.046 262.021 497.978 262.585 500.816 263.148C503.631 263.687 506.563 264.25 509.402 264.907C509.824 265.001 510.27 265.095 510.715 265.095C511.161 265.095 511.583 265.001 511.912 264.766C512.146 264.579 512.404 264.25 512.428 263.664C512.639 261.998 509.754 261.482 507.22 261.013C506.751 260.919 506.305 260.848 505.953 260.778C501.942 259.91 498.212 259.206 494.271 258.455L493.075 258.221C492.066 258.033 491.316 258.127 490.823 258.502C490.518 258.737 490.33 259.112 490.33 259.535C490.237 260.919 491.222 261.13 492.09 261.341ZM491.363 259.183C491.503 259.065 491.785 258.995 492.113 258.995C492.348 258.995 492.606 259.018 492.887 259.065L494.084 259.3C498.025 260.051 501.755 260.755 505.742 261.623C506.118 261.693 506.563 261.787 507.033 261.857C508.534 262.139 511.63 262.678 511.49 263.5C511.49 263.523 511.49 263.546 511.49 263.57C511.49 263.851 511.396 263.945 511.325 264.016C511.067 264.227 510.481 264.203 509.566 264.016C506.704 263.359 503.772 262.796 500.957 262.256C498.142 261.717 495.21 261.153 492.371 260.497L492.277 260.473C491.339 260.262 491.175 260.168 491.198 259.558C491.222 259.323 491.292 259.23 491.363 259.183Z" fill="#8E949B"/>
<path d="M493.851 257.236L493.944 257.259C496.806 257.916 499.739 258.479 502.577 259.042C505.392 259.582 508.324 260.145 511.163 260.802C511.585 260.896 512.031 260.989 512.476 260.989C512.922 260.989 513.344 260.896 513.673 260.661C513.907 260.473 514.165 260.145 514.189 259.558C514.4 257.893 511.514 257.376 508.981 256.907C508.512 256.813 508.066 256.743 507.714 256.673C503.703 255.805 499.973 255.101 496.032 254.35L494.836 254.115C493.827 253.928 493.076 254.021 492.584 254.397C492.279 254.631 492.091 255.007 492.091 255.429C491.997 256.813 492.983 257.048 493.851 257.236ZM493.123 255.077C493.264 254.96 493.546 254.89 493.874 254.89C494.109 254.89 494.367 254.913 494.648 254.96L495.844 255.195C499.785 255.945 503.515 256.626 507.503 257.517C507.878 257.588 508.324 257.681 508.793 257.752C510.295 258.033 513.391 258.573 513.25 259.394C513.25 259.418 513.25 259.441 513.25 259.464C513.25 259.746 513.156 259.84 513.086 259.91C512.828 260.121 512.242 260.098 511.327 259.91C508.465 259.253 505.533 258.69 502.718 258.151C499.903 257.611 496.97 257.048 494.132 256.391L494.038 256.368C493.1 256.156 492.936 256.063 492.959 255.453C492.983 255.241 493.053 255.148 493.123 255.077Z" fill="#8E949B"/>
<path d="M623.901 138.873C623.925 138.873 623.925 138.873 623.948 138.873C624.558 138.849 625.051 138.591 625.379 138.098C625.778 137.488 625.543 136.573 625.191 136.222C624.722 135.705 624.065 135.424 623.362 135.4C622.728 135.377 622.095 135.565 621.719 135.917C621.11 136.48 621.508 137.512 621.649 137.723C622.142 138.38 623.08 138.873 623.901 138.873ZM622.329 136.55C622.47 136.409 622.822 136.268 623.244 136.268C623.268 136.268 623.291 136.268 623.315 136.268C623.643 136.292 624.136 136.386 624.511 136.808C624.628 136.925 624.722 137.371 624.581 137.582C624.417 137.817 624.206 137.934 623.901 137.934H623.878C623.338 137.934 622.681 137.582 622.376 137.183C622.329 137.043 622.259 136.62 622.329 136.55Z" fill="#8E949B"/>
<path d="M516.839 265.072C516.862 265.072 516.862 265.072 516.885 265.072C517.495 265.048 517.988 264.79 518.316 264.298C518.715 263.688 518.481 262.773 518.129 262.421C517.66 261.905 517.003 261.623 516.299 261.6C515.666 261.576 515.032 261.764 514.657 262.116C514.047 262.679 514.446 263.711 514.587 263.922C515.079 264.579 515.994 265.072 516.839 265.072ZM515.267 262.773C515.408 262.632 515.759 262.491 516.182 262.491C516.205 262.491 516.229 262.491 516.252 262.491C516.58 262.515 517.073 262.608 517.448 263.031C517.566 263.148 517.66 263.594 517.542 263.805C517.378 264.04 517.167 264.157 516.862 264.157C516.322 264.18 515.642 263.828 515.337 263.406C515.243 263.265 515.173 262.843 515.267 262.773Z" fill="#8E949B"/>
<path d="M487.821 258.103C487.844 258.103 487.844 258.103 487.868 258.103C488.478 258.08 488.97 257.822 489.299 257.329C489.698 256.719 489.463 255.804 489.111 255.452C488.642 254.936 487.985 254.654 487.281 254.631C486.648 254.607 486.015 254.795 485.639 255.147C485.029 255.71 485.428 256.742 485.569 256.953C486.062 257.61 487 258.103 487.821 258.103ZM486.273 255.78C486.414 255.64 486.765 255.499 487.188 255.499C487.211 255.499 487.235 255.499 487.258 255.499C487.586 255.522 488.079 255.616 488.454 256.039C488.572 256.156 488.665 256.602 488.548 256.813C488.384 257.047 488.173 257.165 487.868 257.165C487.328 257.188 486.648 256.836 486.343 256.414C486.249 256.273 486.179 255.874 486.273 255.78Z" fill="#8E949B"/>
<path d="M455.473 345.871C455.497 346.645 455.544 347.42 455.544 348.194C455.567 349.437 455.919 350.305 457.561 350.47C461.877 350.939 466.217 351.431 470.533 351.924C474.263 352.346 477.993 352.769 481.746 353.168C482.45 353.238 483.06 353.308 483.646 353.379C485.054 353.519 486.25 353.637 487.963 353.895C488.455 353.965 488.901 354.012 489.276 354.012C489.957 354.012 490.496 353.895 490.918 353.543C491.458 353.097 491.716 352.346 491.739 351.126C491.927 345.425 491.857 339.795 491.763 335.525C491.716 333.507 490.191 333.366 489.276 333.296C479.4 332.358 469.384 331.231 459.696 330.129L457.373 329.871C456.834 329.8 456.036 329.73 455.426 330.504C455.356 330.575 455.333 330.668 455.333 330.786C455.262 335.994 455.286 340.311 455.403 344.37C455.45 344.862 455.473 345.355 455.473 345.871ZM456.271 330.95C456.552 330.692 456.857 330.692 457.35 330.762L459.625 331.02C469.314 332.123 479.354 333.249 489.229 334.188C490.332 334.281 490.871 334.469 490.895 335.548C490.989 339.795 491.059 345.402 490.871 351.103C490.848 352.041 490.684 352.581 490.355 352.863C490.003 353.168 489.347 353.214 488.08 353.027C486.368 352.792 485.148 352.651 483.74 352.511C483.154 352.44 482.544 352.393 481.84 352.323C478.11 351.901 474.357 351.502 470.627 351.056C466.287 350.563 461.971 350.071 457.631 349.601C456.623 349.484 456.459 349.179 456.435 348.194C456.412 347.42 456.388 346.622 456.365 345.848C456.341 345.332 456.318 344.839 456.318 344.323C456.2 340.311 456.177 336.064 456.271 330.95Z" fill="#8E949B"/>
<path d="M502.554 382.376C500.606 382.165 498.519 381.954 496.501 381.766C495.375 381.649 494.249 381.555 493.147 381.438C490.824 381.203 488.526 380.992 486.203 380.757C482.262 380.382 478.204 379.983 474.193 379.537C470.909 379.162 467.648 378.787 464.387 378.411C458.007 377.66 451.415 376.886 444.917 376.229C444.143 376.136 443.252 376.042 442.712 376.534C442.454 376.769 442.313 377.097 442.29 377.496C442.243 378.693 442.783 379.256 444.143 379.397C449.468 379.983 455.004 380.64 460.353 381.297C466.757 382.071 473.348 382.845 479.705 383.526C483.599 383.925 487.235 384.276 490.754 384.628C494.343 384.98 498.073 385.332 502.061 385.755C502.155 385.755 502.249 385.778 502.342 385.778C502.858 385.778 503.304 385.567 503.609 385.168C503.984 384.675 504.055 383.948 503.797 383.338C503.586 382.798 503.116 382.447 502.554 382.376ZM502.905 384.605C502.741 384.793 502.507 384.887 502.202 384.84C502.202 384.84 502.202 384.84 502.178 384.84C498.167 384.417 494.461 384.065 490.848 383.713C487.329 383.385 483.693 383.033 479.799 382.611C473.442 381.954 466.85 381.156 460.446 380.382C455.098 379.749 449.562 379.068 444.237 378.482C443.252 378.388 443.181 378.106 443.205 377.52C443.205 377.332 443.275 377.238 443.322 377.215C443.463 377.097 443.721 377.074 444.002 377.074C444.284 377.074 444.612 377.097 444.894 377.144C451.345 377.825 457.936 378.575 464.293 379.326C467.554 379.702 470.815 380.077 474.099 380.452C478.11 380.898 482.192 381.297 486.109 381.672C488.408 381.883 490.731 382.118 493.03 382.353C494.109 382.47 495.235 382.564 496.384 382.681C498.401 382.869 500.466 383.08 502.413 383.291C502.718 383.338 502.882 383.526 502.952 383.69C503.116 383.995 503.093 384.37 502.905 384.605Z" fill="#8E949B"/>
<path d="M444.096 371.397C449.421 371.984 454.957 372.641 460.306 373.298C466.686 374.072 473.302 374.846 479.635 375.527C483.529 375.925 487.165 376.277 490.684 376.629C494.273 376.981 498.003 377.333 501.991 377.755H502.014C502.085 377.755 502.178 377.779 502.249 377.779C502.765 377.779 503.211 377.568 503.516 377.169C503.891 376.676 503.961 375.949 503.703 375.339C503.469 374.799 503.023 374.447 502.436 374.4C500.489 374.189 498.402 373.978 496.384 373.79C495.258 373.673 494.132 373.579 493.03 373.462C490.707 373.227 488.409 373.016 486.086 372.782C482.145 372.406 478.087 372.007 474.076 371.562C470.792 371.186 467.531 370.811 464.27 370.435C457.89 369.685 451.298 368.911 444.824 368.254C444.049 368.183 443.158 368.089 442.595 368.559C442.337 368.793 442.173 369.122 442.173 369.52C442.173 369.52 442.173 369.52 442.173 369.544C442.196 370.694 442.759 371.257 444.096 371.397ZM443.158 369.52C443.158 369.333 443.228 369.239 443.275 369.215C443.533 368.981 444.261 369.075 444.847 369.122C451.298 369.802 457.89 370.553 464.247 371.304C467.507 371.679 470.768 372.078 474.052 372.43C478.064 372.875 482.145 373.274 486.086 373.65C488.385 373.861 490.707 374.095 493.006 374.33C494.085 374.447 495.211 374.541 496.361 374.658C498.355 374.846 500.443 375.057 502.39 375.268C502.694 375.315 502.859 375.503 502.929 375.667C503.07 375.972 503.023 376.348 502.835 376.582C502.671 376.77 502.436 376.864 502.131 376.817C502.131 376.817 502.132 376.817 502.108 376.817C502.085 376.817 502.061 376.817 502.061 376.817C498.073 376.395 494.367 376.043 490.778 375.691C487.259 375.362 483.623 375.01 479.729 374.588C473.395 373.931 466.78 373.133 460.4 372.359C455.051 371.726 449.515 371.045 444.167 370.459C443.228 370.389 443.135 370.13 443.158 369.52Z" fill="#8E949B"/>
<path d="M444.095 363.185C449.42 363.771 454.956 364.428 460.328 365.061C466.709 365.836 473.324 366.633 479.658 367.29C483.552 367.713 487.188 368.041 490.73 368.393C494.319 368.745 498.025 369.097 501.99 369.519C501.99 369.519 501.99 369.519 502.013 369.519C502.036 369.519 502.06 369.519 502.083 369.519C502.154 369.519 502.224 369.543 502.294 369.543C502.811 369.543 503.256 369.331 503.561 368.932C503.937 368.44 504.007 367.713 503.772 367.103C503.538 366.563 503.092 366.211 502.506 366.164C500.535 365.953 498.447 365.742 496.43 365.554C495.304 365.437 494.202 365.343 493.122 365.226C490.8 364.991 488.501 364.78 486.179 364.545C482.238 364.17 478.18 363.771 474.168 363.325C470.908 362.95 467.647 362.575 464.41 362.199C458.029 361.448 451.414 360.674 444.916 359.994C444.142 359.923 443.251 359.83 442.688 360.299C442.43 360.533 442.289 360.862 442.265 361.261V361.284C442.219 362.481 442.758 363.044 444.095 363.185ZM443.157 361.308C443.18 361.12 443.227 361.05 443.274 361.003C443.532 360.791 444.283 360.862 444.846 360.909C451.32 361.589 457.912 362.34 464.316 363.091C467.553 363.466 470.814 363.841 474.075 364.217C478.086 364.663 482.168 365.061 486.085 365.437C488.384 365.648 490.706 365.883 493.005 366.117C494.084 366.234 495.187 366.328 496.313 366.446C498.33 366.633 500.418 366.844 502.388 367.056C502.693 367.079 502.858 367.29 502.928 367.454C503.045 367.759 503.022 368.135 502.834 368.369C502.693 368.557 502.459 368.651 502.154 368.604C502.154 368.604 502.154 368.604 502.13 368.604C498.142 368.182 494.413 367.83 490.824 367.478C487.305 367.149 483.645 366.798 479.775 366.375C473.441 365.695 466.826 364.921 460.445 364.146C455.097 363.513 449.537 362.833 444.213 362.246C443.227 362.176 443.133 361.918 443.157 361.308Z" fill="#8E949B"/>
<path d="M316.696 71.8939C316.719 71.8939 316.719 71.8939 316.743 71.8939C317.353 71.8705 317.845 71.6124 318.174 71.1197C318.573 70.5097 318.338 69.5947 318.01 69.2428C317.54 68.7267 316.884 68.4452 316.156 68.4217C315.5 68.3982 314.89 68.6094 314.538 68.9378C313.928 69.5009 314.327 70.5332 314.467 70.7443C314.937 71.4013 315.875 71.8939 316.696 71.8939ZM315.124 69.5947C315.148 69.5947 315.148 69.5947 315.124 69.5947C315.265 69.454 315.617 69.3132 316.039 69.3132C316.063 69.3132 316.086 69.3132 316.109 69.3132C316.438 69.3367 316.931 69.4305 317.329 69.8528C317.447 69.9701 317.54 70.4159 317.4 70.627C317.235 70.8617 317.024 70.979 316.719 70.979C316.18 71.0024 315.5 70.6505 315.195 70.2282C315.124 70.064 315.054 69.6651 315.124 69.5947Z" fill="#8E949B"/>
<path d="M288.241 64.3607C288.264 64.3607 288.264 64.3607 288.288 64.3607C288.898 64.3373 289.39 64.0792 289.719 63.5865C290.118 62.9765 289.883 62.0615 289.555 61.7096C289.085 61.1935 288.429 60.912 287.701 60.8885C287.045 60.865 286.435 61.0762 286.083 61.4046C285.473 61.9677 285.872 63 286.012 63.2111C286.482 63.8681 287.42 64.3607 288.241 64.3607ZM286.669 62.0381C286.693 62.0381 286.693 62.0381 286.669 62.0381C286.81 61.8973 287.162 61.7566 287.584 61.7566C287.608 61.7566 287.631 61.7566 287.654 61.7566C287.983 61.78 288.475 61.8739 288.874 62.2962C288.992 62.4135 289.085 62.8592 288.945 63.0704C288.78 63.305 288.569 63.4223 288.264 63.4223C287.725 63.4457 287.045 63.0938 286.74 62.6715C286.669 62.5308 286.599 62.1085 286.669 62.0381Z" fill="#8E949B"/>
<path d="M164.898 180.845C164.922 180.845 164.922 180.845 164.945 180.845C165.555 180.845 166.048 180.564 166.376 180.071C166.775 179.461 166.54 178.546 166.188 178.194C165.719 177.678 165.062 177.397 164.359 177.373C163.702 177.35 163.092 177.537 162.717 177.889C162.107 178.452 162.505 179.485 162.646 179.696C163.139 180.353 164.077 180.845 164.898 180.845ZM163.35 178.523C163.491 178.382 163.843 178.241 164.265 178.241C164.288 178.241 164.312 178.241 164.335 178.241C164.664 178.241 165.156 178.358 165.555 178.781C165.672 178.898 165.766 179.344 165.625 179.555C165.461 179.79 165.25 179.907 164.945 179.907C164.406 179.907 163.725 179.578 163.42 179.156C163.373 179.062 163.326 178.828 163.326 178.687C163.303 178.616 163.326 178.57 163.35 178.523Z" fill="#8E949B"/>
<path d="M140.479 175.8L140.572 175.824C143.434 176.481 146.367 177.044 149.181 177.607C151.996 178.146 154.929 178.709 157.767 179.366C158.189 179.46 158.659 179.554 159.081 179.554C159.503 179.554 159.949 179.46 160.277 179.202C160.512 179.014 160.77 178.686 160.793 178.099C161.004 176.434 158.119 175.917 155.586 175.448C155.116 175.378 154.671 175.284 154.319 175.214C150.307 174.346 146.578 173.642 142.613 172.891L141.417 172.656C140.408 172.469 139.658 172.562 139.165 172.938C138.86 173.172 138.672 173.548 138.649 173.97C138.625 175.378 139.611 175.612 140.479 175.8ZM139.611 174.017C139.611 173.782 139.704 173.689 139.775 173.642C139.916 173.524 140.174 173.454 140.525 173.454C140.737 173.454 141.018 173.477 141.3 173.524L142.496 173.759C146.437 174.51 150.167 175.19 154.155 176.082C154.53 176.152 154.976 176.246 155.445 176.34C156.923 176.598 160.043 177.161 159.902 177.982C159.902 178.005 159.902 178.029 159.902 178.052C159.902 178.334 159.808 178.428 159.738 178.498C159.48 178.709 158.893 178.686 157.978 178.475C155.116 177.818 152.184 177.255 149.369 176.715C146.554 176.175 143.622 175.612 140.784 174.956L140.69 174.932C139.751 174.697 139.587 174.627 139.611 174.017Z" fill="#8E949B"/>
<path d="M291.642 67.8801L291.736 67.9035C294.574 68.6777 297.46 69.3816 300.275 70.0385C303.066 70.6954 305.951 71.3758 308.766 72.15C309.189 72.2673 309.634 72.3611 310.08 72.3846C310.526 72.4081 310.948 72.3377 311.276 72.1031C311.511 71.9388 311.793 71.6104 311.839 71.0238C312.121 69.3581 309.259 68.7247 306.749 68.1616C306.28 68.0678 305.858 67.9504 305.506 67.8801C301.541 66.8243 297.835 65.9797 293.918 65.0647L292.721 64.7832C291.712 64.5486 290.962 64.619 290.469 64.9709C290.141 65.2055 289.953 65.5574 289.93 65.9797C289.812 67.3639 290.774 67.6455 291.642 67.8801ZM290.821 66.0501C290.844 65.8155 290.938 65.7217 291.009 65.6747C291.149 65.5574 291.431 65.5105 291.759 65.534C291.97 65.534 292.252 65.5809 292.51 65.6513L293.706 65.9328C297.6 66.8478 301.307 67.6924 305.271 68.7481C305.647 68.842 306.092 68.9358 306.561 69.0531C308.039 69.3816 311.112 70.0619 310.948 70.8831C310.948 70.9065 310.948 70.93 310.948 70.93C310.925 71.2115 310.831 71.3054 310.76 71.3523C310.479 71.54 309.892 71.5165 309.001 71.2585C306.163 70.4842 303.277 69.7804 300.462 69.1235C297.671 68.4666 294.762 67.7862 291.947 66.9885L291.853 66.9651C290.938 66.7539 290.774 66.6601 290.821 66.0501Z" fill="#8E949B"/>
<path d="M293.471 63.7043L293.565 63.7277C296.403 64.502 299.289 65.2058 302.104 65.8627C304.895 66.5196 307.78 67.2 310.595 67.9742C311.018 68.0915 311.463 68.1854 311.909 68.2088C312.355 68.2323 312.777 68.1619 313.105 67.9273C313.34 67.763 313.621 67.4346 313.668 66.8481C313.95 65.1823 311.088 64.5489 308.578 63.9858C308.109 63.892 307.687 63.7747 307.335 63.7043C303.37 62.6485 299.664 61.8039 295.746 60.889L294.55 60.6074C293.541 60.3728 292.791 60.4432 292.298 60.7951C291.97 61.0297 291.782 61.3816 291.759 61.8039C291.641 63.1881 292.627 63.4697 293.471 63.7043ZM292.673 61.8978C292.697 61.6632 292.791 61.5693 292.861 61.5224C293.002 61.4051 293.283 61.3582 293.612 61.3816C293.823 61.3816 294.104 61.4286 294.362 61.4989L295.559 61.7805C299.453 62.6955 303.159 63.5401 307.124 64.5958C307.499 64.6896 307.945 64.7835 308.414 64.9008C309.892 65.2292 312.965 65.9096 312.8 66.7308C312.8 66.7542 312.8 66.7777 312.8 66.7777C312.777 67.0592 312.683 67.1531 312.613 67.2C312.331 67.3877 311.745 67.3642 310.853 67.1061C308.015 66.3319 305.13 65.6281 302.315 64.9712C299.523 64.3143 296.614 63.6339 293.799 62.8362L293.706 62.8128C292.791 62.5782 292.627 62.4843 292.673 61.8978Z" fill="#8E949B"/>
<path d="M135.342 174.535C135.366 174.535 135.366 174.535 135.389 174.535C135.999 174.535 136.492 174.253 136.82 173.761C137.219 173.151 136.985 172.236 136.633 171.884C136.163 171.368 135.507 171.063 134.803 171.063C134.146 171.039 133.536 171.227 133.161 171.579C132.551 172.142 132.95 173.174 133.09 173.385C133.583 174.042 134.521 174.535 135.342 174.535ZM133.794 172.236C133.935 172.095 134.287 171.954 134.709 171.954C134.733 171.954 134.756 171.954 134.779 171.954C135.108 171.954 135.601 172.071 135.976 172.494C136.093 172.611 136.187 173.057 136.07 173.268C135.905 173.502 135.694 173.62 135.389 173.62C134.85 173.62 134.17 173.291 133.865 172.869C133.771 172.705 133.7 172.306 133.794 172.236Z" fill="#8E949B"/>
<path d="M99.9195 257.751C103.11 259.065 106.347 260.379 109.49 261.646C112.821 262.983 116.27 264.391 119.648 265.775L120 265.916C121.149 266.385 122.322 266.877 123.448 267.253C124.011 267.44 124.433 267.534 124.785 267.534C125.09 267.534 125.348 267.464 125.536 267.323C125.981 267.018 126.052 266.432 126.075 265.869C126.146 262.842 126.075 259.792 125.981 256.86C125.934 255.1 125.888 253.293 125.888 251.487C125.864 249.657 124.316 249.117 123.378 248.789L123.307 248.765C114.534 245.645 106.84 242.666 99.8257 239.686C99.4738 239.545 98.817 239.663 98.3713 239.968C97.9022 240.296 97.6676 240.789 97.691 241.375C97.691 242.384 97.6441 244.754 97.6207 247.264C97.5738 250.244 97.5503 253.34 97.5503 254.537C97.5268 256.39 98.3713 257.094 99.9195 257.751ZM98.5121 247.264C98.5355 244.754 98.5824 242.361 98.5824 241.352V241.328C98.5824 241.094 98.6528 240.906 98.817 240.765C99.0516 240.578 99.3565 240.507 99.4738 240.507H99.4973C106.535 243.487 114.229 246.466 123.026 249.61L123.096 249.634C124.199 250.032 124.996 250.384 124.996 251.51C125.02 253.317 125.067 255.123 125.09 256.883C125.16 259.816 125.254 262.842 125.184 265.845C125.184 266.385 125.09 266.549 125.02 266.596C124.949 266.643 124.691 266.737 123.729 266.408C122.627 266.056 121.454 265.564 120.328 265.094L119.976 264.954C116.598 263.546 113.15 262.162 109.819 260.801C106.675 259.534 103.438 258.22 100.248 256.906C98.7936 256.296 98.4182 255.804 98.4182 254.537C98.4417 253.364 98.4651 250.267 98.5121 247.264Z" fill="#8E949B"/>
<path d="M89.5749 268.402C94.5246 270.443 100.319 272.625 105.925 274.76C110.124 276.356 114.112 277.857 117.725 279.288C121.923 280.954 126.076 282.573 129.923 284.074C130.415 284.262 130.814 284.356 131.142 284.356C131.823 284.356 132.151 284.004 132.315 283.652C132.691 282.807 132.386 282.057 131.471 281.634C131.283 281.564 130.978 281.447 130.697 281.329C130.533 281.259 130.392 281.212 130.275 281.165C121.712 277.669 111.508 273.564 100.858 269.435C97.5506 268.144 94.1492 266.854 90.8886 265.587C89.3872 265.024 88.4489 265.493 88.1674 266.22C87.9094 266.877 88.2847 267.863 89.5749 268.402ZM89.0119 266.502C89.0823 266.314 89.3169 266.197 89.6688 266.197C89.9268 266.197 90.2317 266.267 90.5836 266.385C93.8443 267.628 97.2222 268.942 100.553 270.232C111.18 274.338 121.384 278.467 129.946 281.963C130.063 282.01 130.228 282.08 130.392 282.127C130.65 282.221 130.931 282.338 131.096 282.409C131.635 282.643 131.635 282.925 131.494 283.23C131.377 283.488 130.955 283.464 130.251 283.183C126.404 281.681 122.252 280.062 118.053 278.397C114.417 276.966 110.453 275.441 106.23 273.869C100.624 271.757 94.8295 269.552 89.9033 267.534C89.223 267.276 88.9181 266.807 89.0119 266.502Z" fill="#8E949B"/>
<path d="M89.2234 275.299C94.173 277.34 99.9671 279.522 105.574 281.657C109.773 283.252 113.76 284.754 117.373 286.185C121.572 287.85 125.724 289.469 129.571 290.971C130.064 291.158 130.463 291.252 130.791 291.252C131.471 291.252 131.8 290.9 131.964 290.549C132.339 289.704 132.034 288.953 131.119 288.531C130.932 288.46 130.627 288.343 130.345 288.226C130.181 288.155 130.04 288.109 129.923 288.062C121.361 284.589 111.18 280.46 100.507 276.331C97.1991 275.041 93.7977 273.75 90.537 272.483C89.0357 271.92 88.0974 272.39 87.8159 273.117C87.5578 273.797 87.9332 274.783 89.2234 275.299ZM88.6604 273.422C88.7307 273.234 88.9653 273.117 89.3172 273.117C89.5752 273.117 89.8802 273.187 90.2321 273.305C93.4927 274.572 96.8707 275.862 100.202 277.152C110.852 281.281 121.032 285.387 129.595 288.883C129.712 288.93 129.876 289 130.04 289.047C130.298 289.141 130.58 289.258 130.744 289.329C131.284 289.563 131.284 289.845 131.143 290.15C131.025 290.408 130.603 290.384 129.9 290.103C126.052 288.601 121.9 286.982 117.701 285.317C114.065 283.886 110.101 282.361 105.879 280.789C100.272 278.677 94.4779 276.472 89.5518 274.454C88.848 274.173 88.5431 273.703 88.6604 273.422Z" fill="#8E949B"/>
<path d="M117.372 293.857C121.524 295.499 125.676 297.118 129.57 298.643C130.04 298.83 130.462 298.924 130.79 298.924C131.353 298.924 131.729 298.69 131.94 298.22C132.315 297.376 132.01 296.625 131.095 296.203C130.908 296.109 130.603 295.992 130.298 295.898C130.157 295.827 130.016 295.78 129.899 295.734C121.337 292.261 111.156 288.132 100.483 284.003C97.433 282.83 94.3366 281.633 91.334 280.46L90.5364 280.155C89.0351 279.592 88.0968 280.062 87.8153 280.789C87.5338 281.493 87.9326 282.478 89.1993 283.018C94.1489 285.059 99.943 287.241 105.549 289.376C109.772 290.924 113.736 292.426 117.372 293.857ZM88.6597 281.094C88.7301 280.906 88.9647 280.789 89.3166 280.789C89.5746 280.789 89.8796 280.859 90.2314 280.976L91.029 281.282C94.0316 282.431 97.1515 283.651 100.178 284.824C110.851 288.953 121.032 293.059 129.57 296.555C129.688 296.602 129.829 296.648 129.993 296.719C130.274 296.813 130.556 296.93 130.72 297.024C131.259 297.282 131.259 297.517 131.119 297.845C131.001 298.103 130.579 298.08 129.875 297.798C125.981 296.273 121.829 294.654 117.677 293.012C114.041 291.581 110.077 290.079 105.854 288.484C100.248 286.373 94.4539 284.167 89.5277 282.15C88.8474 281.868 88.5424 281.399 88.6597 281.094Z" fill="#8E949B"/>
</svg>
