<svg width="376" height="376" viewBox="0 0 376 376" fill="none" xmlns="http://www.w3.org/2000/svg">
<line x1="18.4312" y1="233.959" x2="359.036" y2="142.478" stroke="white" stroke-opacity="0.17" stroke-width="0.5"/>
<line x1="233.841" y1="359.62" x2="142.359" y2="19.0146" stroke="white" stroke-opacity="0.17" stroke-width="0.5"/>
<circle cx="188.006" cy="188.003" r="137.5" transform="rotate(-60.0339 188.006 188.003)" stroke="#C2C2C2" stroke-opacity="0.08" stroke-width="21"/>
<line y1="-0.25" x2="91.3669" y2="-0.25" transform="matrix(-0.965772 0.259391 0.259391 0.965772 232.477 176.728)" stroke="white" stroke-opacity="0.33" stroke-width="0.5"/>
<line x1="199.833" y1="232.99" x2="176.133" y2="144.75" stroke="white" stroke-opacity="0.33" stroke-width="0.5"/>
<circle cx="187.217" cy="187.545" r="52.6475" transform="rotate(-60.0339 187.217 187.545)" stroke="white" stroke-opacity="0.09" stroke-width="8"/>
<circle cx="188.009" cy="188.001" r="25.5827" transform="rotate(-60.0339 188.009 188.001)" fill="white" fill-opacity="0.06"/>
<circle cx="188.009" cy="188.001" r="18.2734" transform="rotate(-60.0339 188.009 188.001)" fill="#F91C1C"/>
<circle cx="188.008" cy="188.001" r="11.8777" transform="rotate(-60.0339 188.008 188.001)" fill="black"/>
<path d="M192.007 181.088L192.866 181.583L189.574 187.294L195.451 190.682L194.939 191.57L189.062 188.181L185.754 193.92L184.894 193.424L188.203 187.686L182.437 184.361L182.948 183.474L188.714 186.798L192.007 181.088Z" fill="white"/>
<mask id="path-11-inside-1_168_1582" fill="white">
<path d="M61.3187 179.123C62.774 158.362 69.3088 138.278 80.3481 120.636C91.3875 102.994 106.593 88.3354 124.627 77.9495L125.115 78.7953C107.219 89.1014 92.1301 103.647 81.1755 121.154C70.221 138.66 63.7365 158.59 62.2923 179.191L61.3187 179.123Z"/>
</mask>
<path d="M61.3187 179.123C62.774 158.362 69.3088 138.278 80.3481 120.636C91.3875 102.994 106.593 88.3354 124.627 77.9495L125.115 78.7953C107.219 89.1014 92.1301 103.647 81.1755 121.154C70.221 138.66 63.7365 158.59 62.2923 179.191L61.3187 179.123Z" fill="#D9D9D9" stroke="#464646" stroke-width="2" mask="url(#path-11-inside-1_168_1582)"/>
<mask id="path-12-inside-2_168_1582" fill="white">
<path d="M201.311 61.6976C222.008 63.8765 241.852 71.1082 259.098 82.7566C276.344 94.4049 290.463 110.113 300.213 128.499L299.351 128.956C289.675 110.711 275.665 95.1242 258.551 83.5654C241.438 72.0066 221.746 64.8305 201.209 62.6682L201.311 61.6976Z"/>
</mask>
<path d="M201.311 61.6976C222.008 63.8765 241.852 71.1082 259.098 82.7566C276.344 94.4049 290.463 110.113 300.213 128.499L299.351 128.956C289.675 110.711 275.665 95.1242 258.551 83.5654C241.438 72.0066 221.746 64.8305 201.209 62.6682L201.311 61.6976Z" stroke="#F91C1C" stroke-width="2" mask="url(#path-12-inside-2_168_1582)"/>
<mask id="path-13-inside-3_168_1582" fill="white">
<path d="M314.612 198.017C312.971 218.763 306.257 238.788 295.061 256.331C283.864 273.873 268.528 288.395 250.401 298.619L249.922 297.769C267.909 287.624 283.127 273.213 294.238 255.806C305.349 238.398 312.011 218.527 313.639 197.94L314.612 198.017Z"/>
</mask>
<path d="M314.612 198.017C312.971 218.763 306.257 238.788 295.061 256.331C283.864 273.873 268.528 288.395 250.401 298.619L249.922 297.769C267.909 287.624 283.127 273.213 294.238 255.806C305.349 238.398 312.011 218.527 313.639 197.94L314.612 198.017Z" stroke="#464646" stroke-width="2" mask="url(#path-13-inside-3_168_1582)"/>
<mask id="path-14-inside-4_168_1582" fill="white">
<path d="M185.229 314.972C164.423 314.517 144.048 308.956 125.895 298.777C107.743 288.599 92.3699 274.116 81.1287 256.602L81.9501 256.075C93.1049 273.454 108.36 287.826 126.373 297.926C144.385 308.026 164.604 313.545 185.25 313.997L185.229 314.972Z"/>
</mask>
<path d="M185.229 314.972C164.423 314.517 144.048 308.956 125.895 298.777C107.743 288.599 92.3699 274.116 81.1287 256.602L81.9501 256.075C93.1049 273.454 108.36 287.826 126.373 297.926C144.385 308.026 164.604 313.545 185.25 313.997L185.229 314.972Z" stroke="#464646" stroke-width="2" mask="url(#path-14-inside-4_168_1582)"/>
</svg>
