<svg width="65" height="210" viewBox="0 0 65 210" fill="none" xmlns="http://www.w3.org/2000/svg">
<path d="M60.1118 62.8314C58.8792 68.8941 57.457 74.819 55.7935 80.6922C54.5609 85.1445 53.2335 89.5537 51.7596 93.9112C50.096 98.8371 48.2945 103.763 46.3551 108.603C36.3996 133.568 22.8326 156.648 6.33496 177.299V177.35C4.72312 179.391 3.01649 181.381 1.35294 183.37C-0.353714 185.411 -2.06037 187.349 -3.81874 189.338C-5.33577 191.043 -6.90453 192.748 -8.46465 194.41C-10.0765 196.072 -11.6883 197.777 -13.3002 199.388C-17.6616 203.745 -22.1179 207.965 -26.7207 211.987C-30.2805 215.113 -33.8835 218.144 -37.5812 221.038C-43.227 225.542 -49.0537 229.753 -55.0356 233.783C-59.4919 230.752 -63.9051 227.626 -68.2148 224.353C-69.637 223.26 -71.0592 222.175 -72.4814 221.038C-66.4564 217.292 -60.6728 213.27 -55.027 209.05C-51.3293 206.251 -47.6746 203.366 -44.1665 200.378C-39.5637 196.494 -35.0643 192.464 -30.746 188.253C-27.5223 185.127 -24.3417 181.854 -21.2646 178.539C-17.7565 174.75 -14.3862 170.866 -11.1195 166.836C5.42992 146.555 18.9021 123.673 28.5215 98.8457C30.4177 94.0576 32.1244 89.2264 33.6931 84.2488C35.0723 79.986 36.3049 75.6285 37.4426 71.2709C33.3656 69.3764 29.1938 67.6195 24.9272 65.9661C22.6516 65.0618 20.3243 64.2093 17.954 63.4515C17.5316 63.262 17.049 63.1156 16.6266 62.9778C15.6785 62.642 14.6786 62.3147 13.7305 62.0305C11.8773 61.4105 9.98102 60.8421 8.13645 60.2737C3.86982 58.9906 -0.44854 57.8538 -4.85309 56.8635C-9.83514 55.7267 -14.8603 54.7278 -19.9802 53.9699C-31.22 52.1701 -42.7443 51.2658 -54.5012 51.2658C-66.5943 51.2658 -78.4461 52.2131 -90.022 54.1077C-95.0989 54.9172 -100.124 55.9076 -105.106 57.096C-105.296 56.4329 -105.442 55.8128 -105.58 55.1497C-105.718 54.5297 -105.865 53.8666 -106.003 53.2551C-106.382 51.6878 -106.718 50.0774 -107.045 48.5187C-107.614 45.5821 -108.14 42.6885 -108.562 39.7519C-103.58 38.5635 -98.5553 37.5732 -93.4784 36.7637C-80.7733 34.6796 -67.7752 33.5859 -54.5012 33.5859C-41.5548 33.5859 -28.8928 34.5849 -16.5153 36.5742C-11.4384 37.3837 -6.41325 38.3741 -1.3881 39.5108C2.97335 40.5098 7.3348 41.5948 11.6532 42.878C17.3937 44.5401 23.0826 46.383 28.6335 48.467C32.9519 50.0343 37.2185 51.7825 41.3903 53.5824C47.7859 56.4415 54.0437 59.5159 60.1118 62.8314Z" fill="white" fill-opacity="0.07"/>
<path d="M-65.8862 200.377C-71.5319 204.502 -77.3156 208.386 -83.3406 211.986C-87.9434 207.956 -92.4427 203.744 -96.7611 199.387C-99.9848 196.114 -103.165 192.756 -106.243 189.346C-109.751 185.41 -113.121 181.431 -116.388 177.358C-132.799 156.793 -146.263 133.86 -156.218 109.136C-158.166 104.305 -159.968 99.4217 -161.623 94.4527C-163.097 90.0952 -164.467 85.686 -165.7 81.2337C-167.363 75.3605 -168.828 69.4356 -170.061 63.3729C-171.009 58.7743 -171.863 54.1842 -172.578 49.4908C-173.673 42.4292 -174.474 35.2814 -175 28.0734C-168.596 24.8957 -162.01 21.9591 -155.322 19.3066C-154.986 26.4113 -154.374 33.4299 -153.469 40.3451C-152.9 44.9869 -152.141 49.5339 -151.331 54.0378C-150.193 60.0058 -148.909 65.8789 -147.392 71.7091C-146.202 76.0666 -144.97 80.4242 -143.548 84.7387C-141.979 89.6646 -140.272 94.4958 -138.376 99.2839C-128.748 123.922 -115.379 146.666 -98.9246 166.843C-95.6492 170.822 -92.2876 174.757 -88.7795 178.546C-85.6937 181.862 -82.5217 185.134 -79.298 188.26C-75.6003 185.651 -71.9457 182.904 -68.4375 180.114C-63.7916 176.368 -59.3354 172.484 -55.017 168.462C-51.7416 165.379 -48.5697 162.21 -45.5356 158.937C-42.0275 155.243 -38.6573 151.359 -35.3905 147.38C-20.8322 129.614 -8.98044 109.523 -0.533356 87.727C1.31982 82.9905 3.02644 78.1593 4.54346 73.2334C10.2323 74.8955 15.8264 76.8331 21.2825 78.9688C19.7655 83.8948 18.0588 88.7259 16.2056 93.514C7.00865 117.394 -5.93782 139.475 -21.97 158.946C-25.2454 162.925 -28.607 166.766 -32.1151 170.503C-35.2009 173.819 -38.3728 176.996 -41.5965 180.122C-45.9149 184.247 -50.4142 188.226 -55.017 192.015C-58.5338 194.883 -62.1798 197.673 -65.8862 200.377Z" fill="white" fill-opacity="0.07"/>
<path d="M65.0005 27.5403C64.4747 34.7914 63.6731 41.8961 62.6302 48.9578C56.3724 45.6853 50.0199 42.7056 43.4691 39.9068C39.2456 38.15 34.9358 36.4449 30.5744 34.8862C24.9286 32.8969 19.1967 31.0453 13.3613 29.4349C9.04297 28.2035 4.63837 27.1097 0.225204 26.1194C-4.79994 25.0257 -9.87679 24.0784 -14.9967 23.2775C-27.8484 21.2365 -41.0793 20.1946 -54.4998 20.1946C-68.2996 20.1946 -81.8149 21.2882 -94.994 23.4153C-100.114 24.2679 -105.191 25.2152 -110.216 26.3519C-114.629 27.3509 -119.034 28.4877 -123.352 29.7191C-122.921 34.2231 -122.352 38.7184 -121.645 43.1707C-120.697 49.0439 -119.508 54.8224 -118.086 60.5578C-117.043 64.9153 -115.81 69.2298 -114.483 73.4926C-112.966 78.4185 -111.259 83.2497 -109.406 87.9862C-100.916 109.688 -89.1587 129.676 -74.6435 147.356C-71.3681 151.334 -68.0065 155.218 -64.4983 158.913C-68.8167 162.986 -73.273 166.827 -77.9189 170.47C-81.427 166.723 -84.7972 162.891 -88.064 158.913C-104.001 139.536 -116.896 117.602 -126.093 93.8164C-127.946 89.0799 -129.653 84.2487 -131.213 79.3142C-132.54 75.0513 -133.773 70.6938 -134.868 66.3362C-136.342 60.6008 -137.574 54.7276 -138.617 48.8544C-139.376 44.3505 -140.039 39.8035 -140.565 35.2565C-141.375 28.3843 -141.849 21.4174 -142.039 14.4074C-136.298 12.4181 -130.42 10.6613 -124.447 9.10262C-120.034 7.9142 -115.534 6.82908 -111.026 5.88178C-105.949 4.78809 -100.786 3.89247 -95.6146 3.08297C-82.1941 1.04198 -68.4892 0 -54.4998 0C-40.8896 0 -27.5209 0.998939 -14.4279 2.93658C-9.25621 3.69442 -4.09314 4.59865 0.983719 5.68373C5.4917 6.58796 9.99107 7.62999 14.4042 8.8098C20.3775 10.3255 26.256 12.0823 32.0483 14.0199C36.5046 15.5356 40.9177 17.1459 45.3223 18.8511C52.0023 21.5207 58.5532 24.4143 65.0005 27.5403Z" fill="white" fill-opacity="0.07"/>
</svg>
