<svg width="123" height="33" viewBox="0 0 123 33" fill="none" xmlns="http://www.w3.org/2000/svg">
<path fill-rule="evenodd" clip-rule="evenodd" d="M120.087 30.1805C120.087 30.1805 117.433 30.5032 115.232 30.5032C113.031 30.5032 110.215 30.245 110.215 30.245V22.1106H120.087V30.1805ZM120.087 2.38817C120.087 2.38817 117.757 2.09766 115.103 2.09766C112.449 2.09766 110.215 2.35589 110.215 2.35589V10.9421H120.087V2.38817Z" fill="#F91C1C"/>
<path fill-rule="evenodd" clip-rule="evenodd" d="M94.8715 15.4297L106.977 30.2458H94.5806L86.4882 19.7551H82.8631V30.2458H72.8289V2.35673H82.8631V12.4278H86.6174L94.6773 2.35673H106.266L94.8715 15.4297ZM34.5369 2.35673H2.94531V30.2458H13.0766V10.2328H24.438V30.2458H34.5692V2.35673H34.5369ZM39.6187 9.74863C39.6187 9.74863 46.9664 9.26447 50.7535 9.26447C54.5406 9.26447 58.9751 9.74863 58.9751 9.74863C58.9751 9.74863 59.1692 10.9107 59.3311 12.7183H46.319V19.8197H59.2987C59.1692 21.3691 58.9103 22.7894 58.9103 22.7894C58.9103 22.7894 56.774 23.2735 51.3685 23.2735C45.963 23.2735 39.6187 22.7894 39.6187 22.7894L38.1945 30.2136C38.1945 30.2136 47.2577 30.956 53.4724 30.956C59.6871 30.956 66.4847 30.2136 66.4847 30.2136C66.4847 30.2136 68.7181 23.9191 68.7181 15.9462C68.7181 7.9733 66.4847 2.32445 66.4847 2.32445C66.4847 2.32445 59.3958 1.58203 53.5372 1.58203C47.6785 1.58203 38.1945 2.32445 38.1945 2.32445L39.6187 9.74863Z" fill="#2F54A9"/>
</svg>
