<svg width="88" height="38" viewBox="0 0 88 38" fill="none" xmlns="http://www.w3.org/2000/svg">
<path d="M57.4983 27.9627C55.864 28.3902 53.7426 28.596 51.904 28.596C47.1897 28.596 44.0469 26.0627 44.0469 21.4235C44.0469 17.0377 46.954 14.1877 51.2283 14.1877C52.1712 14.1877 53.1926 14.3144 53.8054 14.631V8.23438H57.4983V27.9469V27.9627ZM53.8054 17.9085C53.0922 17.5966 52.3199 17.4453 51.5426 17.4652C49.2954 17.4652 47.7869 18.8585 47.7869 21.3127C47.7869 23.941 49.4212 25.4294 52.0297 25.4294C52.5012 25.4294 53.1926 25.3819 53.8054 25.271V17.8927V17.9085ZM87.7169 27.9627C86.0826 28.3902 83.9769 28.596 82.1226 28.596C77.4083 28.596 74.2654 26.0627 74.2654 21.4235C74.2654 17.0377 77.1883 14.1877 81.4469 14.1877C82.4054 14.1877 83.4112 14.3144 84.0397 14.631V8.23438H87.7169V27.9469V27.9627ZM84.0397 17.9085C83.3216 17.5943 82.5437 17.443 81.7612 17.4652C79.514 17.4652 78.0212 18.8585 78.0212 21.3127C78.0212 23.941 79.6397 25.4294 82.264 25.4294C82.7197 25.4294 83.4269 25.3819 84.0397 25.271V17.8927V17.9085ZM63.2969 17.8769C63.894 17.6235 64.7583 17.5285 65.4969 17.5285C67.7597 17.5285 69.3312 18.8585 69.3312 21.2494C69.3312 24.0519 67.6026 25.3185 65.2769 25.366V28.596H65.4654C70.2269 28.596 73.0712 25.9044 73.0712 21.1227C73.0712 16.7527 70.0383 14.1877 65.5597 14.1877C63.2812 14.1877 61.0497 14.726 59.5726 15.3435V33.8685H63.2812V17.8769H63.2969Z" fill="#8E949B"/>
<path d="M24.0417 16.9573C23.9596 17.0016 23.8678 17.0248 23.7746 17.0248C23.6814 17.0248 23.5896 17.0016 23.5075 16.9573L22.6432 16.4189C22.5666 16.3712 22.502 16.3061 22.4546 16.2289V16.2131C22.3991 16.128 22.3666 16.0297 22.3603 15.9281L22.3289 14.8989C22.3304 14.8035 22.3557 14.7101 22.4023 14.6271C22.449 14.5441 22.5156 14.4742 22.596 14.4239L33.1246 8.24892L18.3532 0.142252C18.1671 0.0512094 17.9629 0.00390625 17.756 0.00390625C17.5492 0.00390625 17.345 0.0512094 17.1589 0.142252L2.38746 8.23309L18.9346 17.9389C19.015 17.9893 19.0816 18.0591 19.1283 18.1421C19.175 18.2251 19.2002 18.3185 19.2017 18.4139V32.5689C19.2002 32.6643 19.175 32.7578 19.1283 32.8407C19.0816 32.9237 19.015 32.9936 18.9346 33.0439L18.0389 33.5189C17.9575 33.5667 17.8658 33.5939 17.7717 33.5981H17.756C17.6579 33.6014 17.5606 33.5796 17.4732 33.5348L16.5775 33.0281C16.4941 32.9797 16.4244 32.9106 16.3749 32.8275C16.3254 32.7444 16.2978 32.65 16.2946 32.5531V19.9498C16.2887 19.8984 16.2715 19.8491 16.2443 19.8053C16.2172 19.7614 16.1807 19.7243 16.1375 19.6964L1.57031 11.1623V27.9139C1.57031 28.2781 1.83746 28.7531 2.15174 28.9431L17.1746 37.8573C17.3549 37.9491 17.554 37.9969 17.756 37.9969C17.958 37.9969 18.1572 37.9491 18.3375 37.8573L33.3603 28.9431C33.6746 28.7373 33.9417 28.2781 33.9417 27.9139V11.1623L24.0417 16.9573Z" fill="url(#paint0_linear_2655_4989)"/>
<defs>
<linearGradient id="paint0_linear_2655_4989" x1="1.72746" y1="32.2522" x2="18.2195" y2="18.5207" gradientUnits="userSpaceOnUse">
<stop stop-color="#BE0737"/>
<stop offset="0.04" stop-color="#C00736"/>
<stop offset="0.63" stop-color="#D8062C"/>
<stop offset="1" stop-color="#E10528"/>
</linearGradient>
</defs>
</svg>
