<svg width="48" height="48" viewBox="0 0 48 48" fill="none" xmlns="http://www.w3.org/2000/svg">
<g clip-path="url(#clip0_2655_4985)">
<path fill-rule="evenodd" clip-rule="evenodd" d="M22.6164 0.653499C14.1555 4.50058 7.14404 9.61222 1.01612 16.4012C0.117442 17.3969 0.104362 17.4186 0.151522 17.8363C0.177802 18.0696 0.269242 18.884 0.354802 19.646C1.29248 28.0069 4.21076 36.7443 8.64368 44.4639C9.3458 45.6865 9.10652 45.5521 11.413 46.0195C19.6104 47.6804 28.4799 47.6801 36.6837 46.0185C39.0516 45.5389 38.7858 45.6909 39.5335 44.3887C44.2042 36.2543 47.1046 27.1436 47.8592 18.2365L47.9283 17.4209L47.4812 16.9004C41.7279 10.2043 33.4768 4.1455 25.225 0.557619C23.9409 -0.000741199 24.0652 -0.00542122 22.6164 0.653499ZM26.8687 3.25642C33.8786 6.74254 39.0769 10.5932 44.7182 16.4791L46.141 17.9636L46.0813 18.7019C45.4737 26.2079 42.4648 35.6912 38.4508 42.7514C37.6446 44.1696 37.8918 43.998 36.1678 44.3366C28.1281 45.9162 20.2357 45.9132 11.9982 44.3276L10.3861 44.0174L9.9446 43.2626C6.04508 36.5967 3.18008 27.9747 2.17016 19.8659C1.89956 17.6934 1.68248 18.1279 4.406 15.3905C9.79448 9.97414 15.5215 5.90122 22.1709 2.75602C24.1909 1.80058 23.8729 1.76662 26.8687 3.25642ZM23.0617 10.4419C23.0617 10.7645 23.0832 10.7883 23.3732 10.7883H23.6846L23.6307 11.9513C23.5633 13.4053 23.1627 14.7752 22.7895 14.8283C22.5748 14.8587 22.5668 14.8969 22.5668 15.8921V16.9244H23.1111H23.6554V16.2781V15.6319L24.9174 15.6596L26.1792 15.6873L26.147 16.3058L26.1148 16.9244H26.6666H27.2184V15.9413V14.9582L26.9462 14.9269L26.674 14.8956L26.6438 13.3615C26.6006 11.1667 26.657 10.7883 27.0276 10.7883C27.2928 10.7883 27.3174 10.7589 27.3174 10.4419V10.0956H25.1895H23.0617V10.4419ZM16.9024 11.0778L16.5792 11.3671L16.6084 12.3555C16.6359 13.2857 16.6245 13.3532 16.4145 13.5003C16.1391 13.6932 16.0927 13.6459 15.8954 12.9725C15.6922 12.2787 15.6964 12.2078 15.9453 12.1428C16.1349 12.0932 16.154 11.5862 15.9735 11.39C15.8857 11.2946 13.9566 11.9077 13.9566 12.0311C13.9566 12.399 14.1426 12.6435 14.387 12.5969C14.6794 12.5409 15.169 13.8131 14.9181 13.9769C14.6292 14.1655 14.3973 13.9961 14.0554 13.3467C13.5169 12.3235 13.0987 12.0245 12.4806 12.2207C12.15 12.3255 12.1796 13.0646 12.5144 13.0646C12.8091 13.0646 13.0473 13.2915 13.2375 13.7534C13.4222 14.2023 13.7432 14.5491 13.9737 14.5491C14.0732 14.5491 14.1544 14.5937 14.1544 14.6481C14.1544 14.7025 14.1153 14.7471 14.0674 14.7471C13.8613 14.7471 13.732 15.3615 13.7953 16.0418C13.8566 16.7017 13.8475 16.7453 13.5984 16.9761L13.337 17.2184L13.5981 17.5608C13.89 17.9435 14.2344 17.9231 14.615 17.5007C14.8011 17.294 14.8441 16.2729 14.7002 15.4743C14.6379 15.129 14.8341 14.846 15.1359 14.846C15.5452 14.846 15.8241 16.5187 15.4164 16.527C15.3128 16.5291 15.3262 16.944 15.4353 17.1165C15.6186 17.4061 17.5327 16.7673 17.4552 16.4425C17.3642 16.0611 17.3362 16.0337 17.0394 16.0337C16.7905 16.0337 16.7556 15.9831 16.5996 15.3975C16.5063 15.0477 16.4038 14.6933 16.3719 14.61C16.2921 14.4021 16.7737 14.283 16.9849 14.4583C17.0706 14.5295 17.3138 14.9318 17.5254 15.3527C17.9622 16.2215 18.1954 16.4295 18.7322 16.4295C19.1317 16.4295 19.1545 16.4018 19.2357 15.8167C19.2843 15.467 19.2733 15.4501 18.9763 15.4208C18.7086 15.3945 18.6163 15.302 18.3046 14.7471C18.0642 14.3189 17.826 14.037 17.5923 13.904C17.2653 13.7179 17.2513 13.6908 17.3889 13.5081C17.4998 13.3608 17.5256 13.1292 17.4922 12.5771C17.4512 11.8955 17.4656 11.8257 17.6904 11.6174C17.9302 11.3951 17.9308 11.3895 17.7542 11.0905C17.5308 10.7121 17.3143 10.7089 16.9024 11.0778ZM25.5133 12.8419L25.4864 14.7966L25.1953 14.8297C25.0352 14.8479 24.7173 14.8349 24.489 14.8005L24.0738 14.7383L24.2617 14.2435C24.453 13.7401 24.6404 12.3479 24.6435 11.4069L24.6452 10.8873H25.0927H25.54L25.5133 12.8419ZM32.4937 11.1801C32.3587 11.2377 32.2387 11.4158 32.1775 11.6492C31.9101 12.6686 31.8933 12.6085 32.4771 12.7179C32.8305 12.7843 32.8371 12.7795 32.9712 12.3558C33.2588 11.4467 34.5013 12.1959 34.4854 13.269C34.4754 13.9484 34.445 13.9555 33.0928 13.598C32.9175 13.5517 32.8605 13.6032 32.7642 13.8951C32.6116 14.3573 32.649 14.3994 33.3384 14.5458C34.1907 14.7266 34.2106 14.7479 34.0128 15.266C33.5922 16.3671 31.7902 16.7654 32.0263 15.7051C32.1466 15.1643 32.1288 15.1139 31.7836 15.0219C31.2998 14.8932 31.222 14.9597 31.0812 15.6239C30.9177 16.3937 30.9614 16.485 31.646 16.805C32.4134 17.1637 33.4888 17.1804 34.1265 16.8433C35.5005 16.1172 36.0288 12.906 34.9534 11.8172C34.4424 11.2998 33.0552 10.9405 32.4937 11.1801ZM20.2959 14.8406C20.0185 15.1182 20.0251 15.6662 20.3092 15.9308C20.9649 16.5417 22.0359 15.6739 21.5059 14.9611C21.2422 14.6065 20.5946 14.5421 20.2959 14.8406ZM28.5388 15.0011C28.334 15.2059 28.2967 15.3159 28.3458 15.5701C28.5265 16.506 29.8905 16.4381 29.8905 15.4932C29.8905 14.7889 29.0552 14.4847 28.5388 15.0011ZM5.3462 19.0823C5.4278 19.1329 9.6698 20.9879 14.7728 23.2044L24.051 27.2343L33.4501 23.1485C38.6196 20.9012 42.8392 19.0525 42.827 19.0403C42.8148 19.028 42.1714 19.1251 41.3973 19.2559C37.6374 19.8915 32.8476 20.5069 29.3462 20.8044C28.4716 20.8787 26.2959 20.9305 24.0513 20.9305C20.1022 20.9305 18.975 20.8679 15.0452 20.4303C12.2469 20.1187 6.8666 19.3413 5.46128 19.0457C5.27456 19.0064 5.24096 19.0171 5.3462 19.0823ZM17.3379 35.4911C13.6756 39.9882 10.6929 43.6808 10.7096 43.6967C10.7264 43.7126 13.7017 41.706 17.3215 39.2376C20.9413 36.7691 23.9604 34.7469 24.0306 34.7441C24.135 34.7399 27.2115 36.8107 36.9915 43.4682C37.2229 43.6257 37.4122 43.7329 37.4122 43.7064C37.4122 43.6326 24.1542 27.3692 24.0702 27.3401C24.0297 27.3259 21.0002 30.9939 17.3379 35.4911Z" fill="#E6342A"/>
</g>
<defs>
<clipPath id="clip0_2655_4985">
<rect width="48" height="48" fill="white"/>
</clipPath>
</defs>
</svg>
