<svg width="161" height="37" viewBox="0 0 161 37" fill="none" xmlns="http://www.w3.org/2000/svg">
<g clip-path="url(#clip0_2655_5001)">
<path fill-rule="evenodd" clip-rule="evenodd" d="M7.71718 22.9693L22.9391 29.6796L21.6094 31.9675L4.41074 28.7932L7.7204 22.9693H7.71718ZM3.69601 30.0251L0 36.4486L19.272 36.4356L20.6854 33.4406L3.69601 30.0251ZM20.1091 1.3457L29.7162 18.1786L28.0871 21.0041L16.5193 7.8279L20.1091 1.3457ZM12.4306 14.8381L25.93 24.7976L27.2307 22.5587L15.8207 8.99463L12.4306 14.8381ZM8.4126 21.8221L23.7987 28.451L25.1155 26.0654L11.7351 15.9494L8.41582 21.8221H8.4126Z" fill="#FCAF17"/>
<path fill-rule="evenodd" clip-rule="evenodd" d="M20.8828 36.4502L30.5993 19.5195L40.2128 36.4273L35.0294 36.4306L30.6122 28.6709L26.1757 36.4404L20.8828 36.4502Z" fill="#FCAF17"/>
<path fill-rule="evenodd" clip-rule="evenodd" d="M79.9577 23.722H83.0806L83.0903 31.8174L90.0927 23.7188L92.8711 23.7253V36.4518L89.7482 36.455L89.7386 28.2781L82.6009 36.4583H79.9577V23.722ZM61.8704 36.455L69.1208 23.709L71.6352 23.7285L78.8437 36.4452L74.9932 36.455L70.2605 28.1478L65.5439 36.455H61.8672H61.8704ZM96.1679 23.722H99.2104L99.2072 28.5943H105.707V23.722H108.827V36.455L105.707 36.4583V31.498H99.2136L99.2072 36.4518H96.1679V23.722ZM112.124 23.722H115.247L115.256 31.8174L122.259 23.7188L125.037 23.7253V36.4518L121.914 36.455L121.905 28.2781L114.767 36.4583H112.124V23.722ZM128.331 23.722L131.457 23.7285L131.447 31.7979L138.424 23.7188H141.164V36.4518H138.125V28.2455L130.932 36.4648L128.331 36.4518V23.722Z" fill="#8E949B"/>
<path fill-rule="evenodd" clip-rule="evenodd" d="M139.738 2.82622H142.857V15.5592H139.735V2.82622H139.738ZM146.148 2.82622L160.275 2.8751L158.646 5.65505L146.145 5.64527V2.82948H146.148V2.82622ZM146.151 7.69846H157.506L155.842 10.6022H146.154L146.151 7.69846ZM44.9519 12.6489L52.1282 0.00390625H54.6587L61.8383 12.6359L63.6734 12.6652V19.2354H60.7146V15.5592H46.0272V19.2354H43.0781V12.6587L44.9519 12.6489ZM53.3033 4.46877L48.6576 12.6522L57.962 12.6652L53.3065 4.46877H53.3033ZM65.7757 2.82622H79.8837L78.2449 5.64853H65.7757L65.7725 2.82622H65.7757ZM83.3897 2.85881L76.1973 15.556L79.8772 15.5625L84.5874 7.26175L89.3168 15.5625H93.1771L85.9364 2.82622L83.3865 2.85881H83.3897ZM65.779 7.70172L77.0923 7.71149L75.4311 10.6088L65.7725 10.5957L65.779 7.70172ZM65.779 12.6554H74.2656L72.6623 15.5592H65.779V12.6554ZM98.3154 2.73171C100.662 2.24285 103.277 2.37973 105.366 3.66705C108.57 5.71697 108.995 10.8793 106.406 13.594C104.664 15.2822 102.124 15.8884 99.7706 15.7059C97.9033 15.5788 95.9748 14.9205 94.7063 13.4669C93.0547 11.5376 92.8036 8.62728 93.763 6.31989C94.5647 4.43944 96.3612 3.14234 98.3154 2.73171ZM98.8788 5.66483C96.2581 6.44699 95.7623 10.3709 97.8164 12.0232C99.2523 13.053 101.255 13.0791 102.832 12.3817C105.047 11.3942 105.331 8.0211 103.75 6.35248C102.42 5.24115 100.476 5.18901 98.882 5.66483H98.8788ZM110.775 2.83274C113.64 2.82948 116.509 2.82948 119.381 2.82622C120.369 2.80992 121.444 3.0902 122.13 3.85607C123.054 5.13035 122.896 7.23893 121.435 8.04391C124.007 8.87822 124.345 12.5381 122.7 14.399C121.747 15.3474 120.347 15.556 119.065 15.5657C116.303 15.569 113.541 15.5657 110.778 15.5657C110.775 11.3225 110.781 7.07924 110.775 2.836V2.83274ZM113.811 5.57032C113.814 6.28078 113.821 6.99125 113.824 7.70497C115.466 7.67238 117.108 7.75712 118.743 7.67239C119.812 7.63002 119.864 5.60291 118.734 5.59313C117.095 5.51491 115.45 5.58661 113.811 5.57358V5.57032ZM113.821 10.1786C113.817 11.0618 113.817 11.945 113.821 12.8282C115.681 12.7825 117.555 12.9259 119.413 12.7565C120.765 12.7695 120.897 10.3709 119.59 10.2014C117.668 10.1329 115.743 10.2046 113.821 10.1786ZM126.57 2.82622C127.584 2.82622 128.592 2.82622 129.609 2.82948C129.606 4.33515 129.609 5.84081 129.599 7.34648C131.711 7.46055 133.856 7.14768 135.942 7.52573C137.809 7.894 138.501 10.0287 138.311 11.7299C138.376 13.7928 136.566 15.5103 134.574 15.5429C131.905 15.5983 129.236 15.5462 126.567 15.5592C126.567 11.316 126.563 7.07598 126.57 2.82948V2.82622ZM129.603 10.0091C129.606 10.9444 129.606 11.883 129.606 12.8184C131.154 12.7858 132.713 12.9162 134.255 12.7499C135.62 12.6359 135.575 10.1167 134.197 10.0645C132.671 9.93089 131.135 10.0384 129.599 10.0091H129.603ZM146.151 12.6554L154.663 12.6652L153.038 15.5592H146.141L146.148 12.6522L146.151 12.6554Z" fill="#8E949B"/>
</g>
<defs>
<clipPath id="clip0_2655_5001">
<rect width="160.277" height="36.4652" fill="white"/>
</clipPath>
</defs>
</svg>
