<?xml version="1.0" standalone="no"?>
<!DOCTYPE svg PUBLIC "-//W3C//DTD SVG 20010904//EN"
 "http://www.w3.org/TR/2001/REC-SVG-20010904/DTD/svg10.dtd">
<svg version="1.0" xmlns="http://www.w3.org/2000/svg"
 width="512.000000pt" height="512.000000pt" viewBox="0 0 512.000000 512.000000"
 preserveAspectRatio="xMidYMid meet">
<metadata>
Created by potrace 1.14, written by Peter Selinger 2001-2017
</metadata>
<g transform="translate(0.000000,512.000000) scale(0.100000,-0.100000)"
fill="#000000" stroke="none">
<path d="M2337 4834 c-1 -1 -72 -5 -157 -8 -85 -4 -168 -8 -185 -11 -16 -2
-61 -7 -100 -10 -38 -4 -81 -8 -95 -10 -14 -1 -49 -6 -78 -9 -81 -10 -286 -46
-407 -72 -38 -9 -78 -17 -89 -19 -10 -3 -62 -16 -115 -30 -53 -13 -107 -28
-121 -31 -14 -3 -83 -24 -153 -46 l-128 -39 5 -107 c8 -158 16 -254 31 -362 3
-19 7 -51 9 -70 8 -56 16 -111 27 -170 6 -30 12 -64 14 -75 16 -95 104 -443
128 -505 3 -8 15 -46 28 -85 21 -69 116 -318 143 -379 8 -17 37 -79 65 -139
27 -59 51 -111 53 -115 1 -4 19 -38 40 -76 21 -38 38 -73 38 -77 0 -5 5 -9 10
-9 6 0 10 -4 10 -9 0 -24 193 -334 276 -444 24 -31 44 -61 44 -66 0 -5 3 -11
8 -13 4 -2 26 -28 49 -59 23 -31 47 -62 55 -70 7 -8 33 -39 58 -69 70 -85 81
-99 136 -158 50 -54 51 -55 70 -36 11 10 40 35 64 54 48 37 104 87 152 134
l29 29 -33 35 c-78 84 -69 73 -234 275 -8 9 -44 59 -82 110 -308 423 -529 876
-675 1387 -37 129 -88 348 -102 435 -2 11 -8 52 -14 90 -11 69 -17 110 -24
192 -4 40 -2 43 27 52 33 11 215 57 256 65 14 3 61 12 105 21 44 9 91 18 105
20 14 2 68 10 120 19 85 13 143 21 235 31 242 28 805 27 1025 0 19 -3 58 -7
85 -10 28 -3 68 -8 90 -11 22 -3 51 -7 65 -9 14 -2 41 -6 60 -10 19 -3 46 -8
60 -10 14 -2 41 -7 60 -10 19 -3 42 -8 50 -10 8 -2 31 -7 50 -10 19 -3 53 -11
75 -17 22 -5 49 -12 61 -14 34 -6 234 -61 319 -87 256 -80 574 -208 779 -316
33 -17 61 -29 63 -27 6 5 21 108 28 181 2 22 6 72 10 110 14 130 14 127 -30
150 -22 11 -74 36 -115 54 -41 18 -90 40 -108 48 -97 43 -456 173 -518 188
-10 2 -66 18 -124 35 -58 16 -154 41 -215 55 -60 14 -128 30 -150 36 -22 6
-51 12 -65 13 -14 2 -38 6 -55 9 -41 9 -81 16 -135 23 -25 3 -47 8 -51 9 -3 2
-39 7 -80 11 -40 3 -76 8 -80 10 -3 1 -39 6 -80 9 -40 4 -92 8 -114 11 -93 9
-551 24 -558 18z"/>
<path d="M410 4436 c-46 -17 -264 -114 -315 -141 -37 -19 -40 -23 -38 -60 1
-38 9 -125 18 -190 2 -16 7 -52 10 -80 3 -27 8 -61 10 -75 3 -14 7 -43 11 -65
3 -22 7 -51 10 -65 17 -93 26 -139 30 -166 4 -24 52 -225 78 -324 133 -510
371 -1046 679 -1525 49 -77 93 -141 98 -143 5 -2 9 -9 9 -15 0 -7 10 -24 23
-39 12 -15 44 -58 72 -95 55 -75 199 -256 228 -288 10 -11 35 -40 55 -64 43
-51 386 -398 449 -453 l42 -37 169 113 c93 62 175 118 183 124 8 7 59 47 114
89 55 43 107 84 115 91 8 7 27 22 41 35 239 205 463 438 645 667 32 41 62 76
67 78 4 2 7 10 7 17 0 7 3 15 8 17 24 10 199 275 342 518 32 55 169 328 195
390 10 25 27 63 36 86 34 77 61 149 110 286 l49 138 -37 15 c-21 9 -95 36
-165 60 l-129 44 -9 -22 c-5 -12 -30 -80 -55 -152 -25 -71 -50 -139 -55 -150
-20 -44 -43 -101 -45 -112 -6 -23 -175 -360 -225 -448 -86 -147 -231 -366
-314 -470 -301 -381 -521 -600 -864 -860 l-103 -78 -36 34 c-34 33 -90 91
-149 155 -16 17 -45 49 -65 70 -28 31 -188 225 -242 294 -37 47 -170 236 -212
302 -28 43 -62 97 -77 120 -15 24 -32 52 -38 63 -6 11 -28 52 -50 90 -57 99
-147 274 -198 385 -64 140 -192 467 -207 530 -2 8 -13 44 -25 80 -12 36 -23
72 -25 80 -1 8 -9 35 -16 60 -17 60 -13 46 -52 215 -19 83 -38 173 -43 200 -4
28 -9 57 -10 65 -2 8 -6 30 -9 49 -4 19 -9 53 -11 75 -3 23 -7 52 -9 66 -3 14
-7 55 -10 92 -3 36 -8 76 -10 88 -3 18 -17 200 -18 238 0 6 -1 12 -1 12 -1 -1
-17 -7 -36 -14z"/>
<path d="M2225 4161 c-2 -2 -37 -5 -77 -7 -74 -3 -147 -9 -228 -19 -25 -3 -67
-8 -95 -11 -46 -5 -122 -17 -185 -29 -13 -3 -42 -7 -65 -10 -72 -11 -180 -37
-192 -47 -7 -6 -11 -13 -8 -17 2 -4 9 -34 14 -67 11 -64 13 -74 37 -181 17
-79 20 -81 84 -63 19 6 51 13 70 16 19 3 42 7 51 10 9 2 32 7 50 9 19 3 45 7
59 10 14 3 45 8 70 11 25 3 57 7 71 10 25 4 100 12 189 20 203 19 600 19 770
0 25 -3 70 -8 100 -11 75 -8 162 -20 210 -30 14 -2 41 -7 60 -9 20 -2 47 -7
60 -10 14 -3 37 -8 53 -10 15 -3 35 -7 45 -10 9 -3 29 -7 44 -10 137 -23 545
-151 698 -219 92 -40 106 -46 133 -56 16 -6 27 -18 27 -30 0 -37 -110 -391
-145 -468 -8 -17 -15 -38 -15 -46 0 -9 -4 -18 -9 -22 -5 -3 -12 -18 -16 -35
-3 -16 -15 -46 -25 -67 -9 -21 -27 -60 -39 -88 -48 -109 -119 -255 -172 -355
-60 -112 -207 -362 -218 -370 -4 -3 -18 -23 -31 -45 -13 -22 -26 -42 -30 -45
-3 -3 -17 -23 -32 -45 -15 -22 -41 -60 -59 -85 -38 -54 -202 -261 -245 -310
-17 -19 -57 -64 -89 -100 -62 -70 -303 -310 -376 -375 -47 -41 -216 -184 -234
-197 -5 -5 -35 -27 -65 -51 -91 -71 -125 -95 -253 -181 l-123 -82 75 -60 c42
-34 105 -81 141 -105 36 -24 67 -46 70 -49 3 -3 17 -13 33 -23 27 -17 27 -17
100 33 415 288 750 599 1121 1040 35 42 169 221 221 295 27 39 52 72 55 75 3
3 11 14 17 25 7 11 32 50 55 88 140 221 322 559 392 724 14 35 37 86 50 115
48 108 201 538 190 538 -3 0 0 9 6 21 6 11 13 28 15 37 1 9 10 44 19 77 25 89
29 108 40 160 2 11 9 38 15 60 17 68 22 105 12 105 -6 0 -32 12 -58 28 -86 50
-327 161 -472 217 -129 50 -360 129 -407 140 -10 2 -57 15 -104 28 -47 14
-103 28 -125 33 -22 4 -44 8 -50 10 -27 7 -163 36 -190 40 -16 3 -52 9 -80 14
-116 22 -309 45 -488 56 -103 7 -517 11 -522 5z"/>
<path d="M2160 3522 c0 -4 -26 -7 -58 -8 -54 0 -147 -9 -202 -19 -14 -2 -45
-7 -70 -10 -45 -6 -142 -22 -190 -32 -14 -3 -30 -6 -37 -6 -23 -1 -3 -15 124
-90 139 -82 274 -150 368 -186 159 -61 173 -69 185 -106 11 -34 15 -201 5
-245 -3 -14 -8 -41 -11 -60 -5 -35 -10 -64 -19 -110 -3 -14 -7 -41 -10 -60 -2
-19 -4 -35 -5 -35 -3 0 -10 -41 -16 -91 -6 -48 -4 -53 34 -97 22 -25 51 -57
64 -70 12 -13 45 -48 71 -77 28 -30 52 -49 55 -43 4 6 41 48 84 94 144 159
138 151 133 189 -3 19 -12 64 -21 99 -8 36 -17 84 -20 106 -4 22 -8 51 -10 65
-26 170 -23 340 6 374 6 8 52 29 103 47 104 38 328 148 462 228 104 63 100 60
94 65 -5 5 -21 9 -154 31 -124 22 -131 23 -210 31 -38 3 -86 9 -105 11 -60 8
-650 12 -650 5z"/>
<path d="M3115 2923 c-49 -34 -94 -62 -98 -63 -4 0 -13 -5 -20 -10 -7 -6 -57
-41 -112 -78 l-100 -67 4 -90 c2 -49 4 -150 5 -222 1 -73 4 -133 7 -133 9 0
172 247 192 290 4 8 21 38 37 65 16 28 40 70 52 95 13 25 25 47 28 50 11 10
101 212 98 219 -2 4 -43 -21 -93 -56z"/>
<path d="M1695 2924 c38 -86 158 -315 199 -379 20 -30 36 -60 36 -65 0 -6 5
-10 10 -10 6 0 10 -4 10 -10 0 -10 103 -165 124 -188 13 -14 15 9 19 313 l2
119 -92 61 c-51 33 -134 87 -185 120 -50 33 -105 68 -120 79 l-29 19 26 -59z"/>
</g>
</svg>
